<?xml version="1.0" encoding="utf-8" standalone="no"?>
<!DOCTYPE svg PUBLIC "-//W3C//DTD SVG 1.1//EN"
  "http://www.w3.org/Graphics/SVG/1.1/DTD/svg11.dtd">
<!-- Created with matplotlib (https://matplotlib.org/) -->
<svg height="360pt" version="1.1" viewBox="0 0 360 360" width="360pt" xmlns="http://www.w3.org/2000/svg" xmlns:xlink="http://www.w3.org/1999/xlink">
 <defs>
  <style type="text/css">
*{stroke-linecap:butt;stroke-linejoin:round;}
  </style>
 </defs>
 <g id="figure_1">
  <g id="patch_1">
   <path d="M 0 360 
L 360 360 
L 360 0 
L 0 0 
z
" style="fill:#ffffff;"/>
  </g>
  <g id="axes_1">
   <g id="patch_2">
    <path d="M 67.46 310.54 
L 347.04 310.54 
L 347.04 90 
L 67.46 90 
z
" style="fill:#eaeaf2;"/>
   </g>
   <g id="matplotlib.axis_1">
    <g id="xtick_1">
     <g id="line2d_1">
      <path clip-path="url(#p40b8d8de38)" d="M 75.194658 310.54 
L 75.194658 90 
" style="fill:none;stroke:#ffffff;stroke-linecap:round;"/>
     </g>
     <g id="text_1">
      <!-- 0 -->
      <defs>
       <path d="M 31.78125 66.40625 
Q 24.171875 66.40625 20.328125 58.90625 
Q 16.5 51.421875 16.5 36.375 
Q 16.5 21.390625 20.328125 13.890625 
Q 24.171875 6.390625 31.78125 6.390625 
Q 39.453125 6.390625 43.28125 13.890625 
Q 47.125 21.390625 47.125 36.375 
Q 47.125 51.421875 43.28125 58.90625 
Q 39.453125 66.40625 31.78125 66.40625 
z
M 31.78125 74.21875 
Q 44.046875 74.21875 50.515625 64.515625 
Q 56.984375 54.828125 56.984375 36.375 
Q 56.984375 17.96875 50.515625 8.265625 
Q 44.046875 -1.421875 31.78125 -1.421875 
Q 19.53125 -1.421875 13.0625 8.265625 
Q 6.59375 17.96875 6.59375 36.375 
Q 6.59375 54.828125 13.0625 64.515625 
Q 19.53125 74.21875 31.78125 74.21875 
z
" id="DejaVuSans-48"/>
      </defs>
      <g style="fill:#262626;" transform="translate(71.695283 328.398281)scale(0.11 -0.11)">
       <use xlink:href="#DejaVuSans-48"/>
      </g>
     </g>
    </g>
    <g id="xtick_2">
     <g id="line2d_2">
      <path clip-path="url(#p40b8d8de38)" d="M 131.71552 310.54 
L 131.71552 90 
" style="fill:none;stroke:#ffffff;stroke-linecap:round;"/>
     </g>
     <g id="text_2">
      <!-- 2000 -->
      <defs>
       <path d="M 19.1875 8.296875 
L 53.609375 8.296875 
L 53.609375 0 
L 7.328125 0 
L 7.328125 8.296875 
Q 12.9375 14.109375 22.625 23.890625 
Q 32.328125 33.6875 34.8125 36.53125 
Q 39.546875 41.84375 41.421875 45.53125 
Q 43.3125 49.21875 43.3125 52.78125 
Q 43.3125 58.59375 39.234375 62.25 
Q 35.15625 65.921875 28.609375 65.921875 
Q 23.96875 65.921875 18.8125 64.3125 
Q 13.671875 62.703125 7.8125 59.421875 
L 7.8125 69.390625 
Q 13.765625 71.78125 18.9375 73 
Q 24.125 74.21875 28.421875 74.21875 
Q 39.75 74.21875 46.484375 68.546875 
Q 53.21875 62.890625 53.21875 53.421875 
Q 53.21875 48.921875 51.53125 44.890625 
Q 49.859375 40.875 45.40625 35.40625 
Q 44.1875 33.984375 37.640625 27.21875 
Q 31.109375 20.453125 19.1875 8.296875 
z
" id="DejaVuSans-50"/>
      </defs>
      <g style="fill:#262626;" transform="translate(117.71802 328.398281)scale(0.11 -0.11)">
       <use xlink:href="#DejaVuSans-50"/>
       <use x="63.623047" xlink:href="#DejaVuSans-48"/>
       <use x="127.246094" xlink:href="#DejaVuSans-48"/>
       <use x="190.869141" xlink:href="#DejaVuSans-48"/>
      </g>
     </g>
    </g>
    <g id="xtick_3">
     <g id="line2d_3">
      <path clip-path="url(#p40b8d8de38)" d="M 188.236382 310.54 
L 188.236382 90 
" style="fill:none;stroke:#ffffff;stroke-linecap:round;"/>
     </g>
     <g id="text_3">
      <!-- 4000 -->
      <defs>
       <path d="M 37.796875 64.3125 
L 12.890625 25.390625 
L 37.796875 25.390625 
z
M 35.203125 72.90625 
L 47.609375 72.90625 
L 47.609375 25.390625 
L 58.015625 25.390625 
L 58.015625 17.1875 
L 47.609375 17.1875 
L 47.609375 0 
L 37.796875 0 
L 37.796875 17.1875 
L 4.890625 17.1875 
L 4.890625 26.703125 
z
" id="DejaVuSans-52"/>
      </defs>
      <g style="fill:#262626;" transform="translate(174.238882 328.398281)scale(0.11 -0.11)">
       <use xlink:href="#DejaVuSans-52"/>
       <use x="63.623047" xlink:href="#DejaVuSans-48"/>
       <use x="127.246094" xlink:href="#DejaVuSans-48"/>
       <use x="190.869141" xlink:href="#DejaVuSans-48"/>
      </g>
     </g>
    </g>
    <g id="xtick_4">
     <g id="line2d_4">
      <path clip-path="url(#p40b8d8de38)" d="M 244.757244 310.54 
L 244.757244 90 
" style="fill:none;stroke:#ffffff;stroke-linecap:round;"/>
     </g>
     <g id="text_4">
      <!-- 6000 -->
      <defs>
       <path d="M 33.015625 40.375 
Q 26.375 40.375 22.484375 35.828125 
Q 18.609375 31.296875 18.609375 23.390625 
Q 18.609375 15.53125 22.484375 10.953125 
Q 26.375 6.390625 33.015625 6.390625 
Q 39.65625 6.390625 43.53125 10.953125 
Q 47.40625 15.53125 47.40625 23.390625 
Q 47.40625 31.296875 43.53125 35.828125 
Q 39.65625 40.375 33.015625 40.375 
z
M 52.59375 71.296875 
L 52.59375 62.3125 
Q 48.875 64.0625 45.09375 64.984375 
Q 41.3125 65.921875 37.59375 65.921875 
Q 27.828125 65.921875 22.671875 59.328125 
Q 17.53125 52.734375 16.796875 39.40625 
Q 19.671875 43.65625 24.015625 45.921875 
Q 28.375 48.1875 33.59375 48.1875 
Q 44.578125 48.1875 50.953125 41.515625 
Q 57.328125 34.859375 57.328125 23.390625 
Q 57.328125 12.15625 50.6875 5.359375 
Q 44.046875 -1.421875 33.015625 -1.421875 
Q 20.359375 -1.421875 13.671875 8.265625 
Q 6.984375 17.96875 6.984375 36.375 
Q 6.984375 53.65625 15.1875 63.9375 
Q 23.390625 74.21875 37.203125 74.21875 
Q 40.921875 74.21875 44.703125 73.484375 
Q 48.484375 72.75 52.59375 71.296875 
z
" id="DejaVuSans-54"/>
      </defs>
      <g style="fill:#262626;" transform="translate(230.759744 328.398281)scale(0.11 -0.11)">
       <use xlink:href="#DejaVuSans-54"/>
       <use x="63.623047" xlink:href="#DejaVuSans-48"/>
       <use x="127.246094" xlink:href="#DejaVuSans-48"/>
       <use x="190.869141" xlink:href="#DejaVuSans-48"/>
      </g>
     </g>
    </g>
    <g id="xtick_5">
     <g id="line2d_5">
      <path clip-path="url(#p40b8d8de38)" d="M 301.278106 310.54 
L 301.278106 90 
" style="fill:none;stroke:#ffffff;stroke-linecap:round;"/>
     </g>
     <g id="text_5">
      <!-- 8000 -->
      <defs>
       <path d="M 31.78125 34.625 
Q 24.75 34.625 20.71875 30.859375 
Q 16.703125 27.09375 16.703125 20.515625 
Q 16.703125 13.921875 20.71875 10.15625 
Q 24.75 6.390625 31.78125 6.390625 
Q 38.8125 6.390625 42.859375 10.171875 
Q 46.921875 13.96875 46.921875 20.515625 
Q 46.921875 27.09375 42.890625 30.859375 
Q 38.875 34.625 31.78125 34.625 
z
M 21.921875 38.8125 
Q 15.578125 40.375 12.03125 44.71875 
Q 8.5 49.078125 8.5 55.328125 
Q 8.5 64.0625 14.71875 69.140625 
Q 20.953125 74.21875 31.78125 74.21875 
Q 42.671875 74.21875 48.875 69.140625 
Q 55.078125 64.0625 55.078125 55.328125 
Q 55.078125 49.078125 51.53125 44.71875 
Q 48 40.375 41.703125 38.8125 
Q 48.828125 37.15625 52.796875 32.3125 
Q 56.78125 27.484375 56.78125 20.515625 
Q 56.78125 9.90625 50.3125 4.234375 
Q 43.84375 -1.421875 31.78125 -1.421875 
Q 19.734375 -1.421875 13.25 4.234375 
Q 6.78125 9.90625 6.78125 20.515625 
Q 6.78125 27.484375 10.78125 32.3125 
Q 14.796875 37.15625 21.921875 38.8125 
z
M 18.3125 54.390625 
Q 18.3125 48.734375 21.84375 45.5625 
Q 25.390625 42.390625 31.78125 42.390625 
Q 38.140625 42.390625 41.71875 45.5625 
Q 45.3125 48.734375 45.3125 54.390625 
Q 45.3125 60.0625 41.71875 63.234375 
Q 38.140625 66.40625 31.78125 66.40625 
Q 25.390625 66.40625 21.84375 63.234375 
Q 18.3125 60.0625 18.3125 54.390625 
z
" id="DejaVuSans-56"/>
      </defs>
      <g style="fill:#262626;" transform="translate(287.280606 328.398281)scale(0.11 -0.11)">
       <use xlink:href="#DejaVuSans-56"/>
       <use x="63.623047" xlink:href="#DejaVuSans-48"/>
       <use x="127.246094" xlink:href="#DejaVuSans-48"/>
       <use x="190.869141" xlink:href="#DejaVuSans-48"/>
      </g>
     </g>
    </g>
    <g id="text_6">
     <!-- ABCD_T1w_MPR_vNav_active_RMS_12_T1 -->
     <defs>
      <path d="M 34.1875 63.1875 
L 20.796875 26.90625 
L 47.609375 26.90625 
z
M 28.609375 72.90625 
L 39.796875 72.90625 
L 67.578125 0 
L 57.328125 0 
L 50.6875 18.703125 
L 17.828125 18.703125 
L 11.1875 0 
L 0.78125 0 
z
" id="DejaVuSans-65"/>
      <path d="M 19.671875 34.8125 
L 19.671875 8.109375 
L 35.5 8.109375 
Q 43.453125 8.109375 47.28125 11.40625 
Q 51.125 14.703125 51.125 21.484375 
Q 51.125 28.328125 47.28125 31.5625 
Q 43.453125 34.8125 35.5 34.8125 
z
M 19.671875 64.796875 
L 19.671875 42.828125 
L 34.28125 42.828125 
Q 41.5 42.828125 45.03125 45.53125 
Q 48.578125 48.25 48.578125 53.8125 
Q 48.578125 59.328125 45.03125 62.0625 
Q 41.5 64.796875 34.28125 64.796875 
z
M 9.8125 72.90625 
L 35.015625 72.90625 
Q 46.296875 72.90625 52.390625 68.21875 
Q 58.5 63.53125 58.5 54.890625 
Q 58.5 48.1875 55.375 44.234375 
Q 52.25 40.28125 46.1875 39.3125 
Q 53.46875 37.75 57.5 32.78125 
Q 61.53125 27.828125 61.53125 20.40625 
Q 61.53125 10.640625 54.890625 5.3125 
Q 48.25 0 35.984375 0 
L 9.8125 0 
z
" id="DejaVuSans-66"/>
      <path d="M 64.40625 67.28125 
L 64.40625 56.890625 
Q 59.421875 61.53125 53.78125 63.8125 
Q 48.140625 66.109375 41.796875 66.109375 
Q 29.296875 66.109375 22.65625 58.46875 
Q 16.015625 50.828125 16.015625 36.375 
Q 16.015625 21.96875 22.65625 14.328125 
Q 29.296875 6.6875 41.796875 6.6875 
Q 48.140625 6.6875 53.78125 8.984375 
Q 59.421875 11.28125 64.40625 15.921875 
L 64.40625 5.609375 
Q 59.234375 2.09375 53.4375 0.328125 
Q 47.65625 -1.421875 41.21875 -1.421875 
Q 24.65625 -1.421875 15.125 8.703125 
Q 5.609375 18.84375 5.609375 36.375 
Q 5.609375 53.953125 15.125 64.078125 
Q 24.65625 74.21875 41.21875 74.21875 
Q 47.75 74.21875 53.53125 72.484375 
Q 59.328125 70.75 64.40625 67.28125 
z
" id="DejaVuSans-67"/>
      <path d="M 19.671875 64.796875 
L 19.671875 8.109375 
L 31.59375 8.109375 
Q 46.6875 8.109375 53.6875 14.9375 
Q 60.6875 21.78125 60.6875 36.53125 
Q 60.6875 51.171875 53.6875 57.984375 
Q 46.6875 64.796875 31.59375 64.796875 
z
M 9.8125 72.90625 
L 30.078125 72.90625 
Q 51.265625 72.90625 61.171875 64.09375 
Q 71.09375 55.28125 71.09375 36.53125 
Q 71.09375 17.671875 61.125 8.828125 
Q 51.171875 0 30.078125 0 
L 9.8125 0 
z
" id="DejaVuSans-68"/>
      <path d="M 50.984375 -16.609375 
L 50.984375 -23.578125 
L -0.984375 -23.578125 
L -0.984375 -16.609375 
z
" id="DejaVuSans-95"/>
      <path d="M -0.296875 72.90625 
L 61.375 72.90625 
L 61.375 64.59375 
L 35.5 64.59375 
L 35.5 0 
L 25.59375 0 
L 25.59375 64.59375 
L -0.296875 64.59375 
z
" id="DejaVuSans-84"/>
      <path d="M 12.40625 8.296875 
L 28.515625 8.296875 
L 28.515625 63.921875 
L 10.984375 60.40625 
L 10.984375 69.390625 
L 28.421875 72.90625 
L 38.28125 72.90625 
L 38.28125 8.296875 
L 54.390625 8.296875 
L 54.390625 0 
L 12.40625 0 
z
" id="DejaVuSans-49"/>
      <path d="M 4.203125 54.6875 
L 13.1875 54.6875 
L 24.421875 12.015625 
L 35.59375 54.6875 
L 46.1875 54.6875 
L 57.421875 12.015625 
L 68.609375 54.6875 
L 77.59375 54.6875 
L 63.28125 0 
L 52.6875 0 
L 40.921875 44.828125 
L 29.109375 0 
L 18.5 0 
z
" id="DejaVuSans-119"/>
      <path d="M 9.8125 72.90625 
L 24.515625 72.90625 
L 43.109375 23.296875 
L 61.8125 72.90625 
L 76.515625 72.90625 
L 76.515625 0 
L 66.890625 0 
L 66.890625 64.015625 
L 48.09375 14.015625 
L 38.1875 14.015625 
L 19.390625 64.015625 
L 19.390625 0 
L 9.8125 0 
z
" id="DejaVuSans-77"/>
      <path d="M 19.671875 64.796875 
L 19.671875 37.40625 
L 32.078125 37.40625 
Q 38.96875 37.40625 42.71875 40.96875 
Q 46.484375 44.53125 46.484375 51.125 
Q 46.484375 57.671875 42.71875 61.234375 
Q 38.96875 64.796875 32.078125 64.796875 
z
M 9.8125 72.90625 
L 32.078125 72.90625 
Q 44.34375 72.90625 50.609375 67.359375 
Q 56.890625 61.8125 56.890625 51.125 
Q 56.890625 40.328125 50.609375 34.8125 
Q 44.34375 29.296875 32.078125 29.296875 
L 19.671875 29.296875 
L 19.671875 0 
L 9.8125 0 
z
" id="DejaVuSans-80"/>
      <path d="M 44.390625 34.1875 
Q 47.5625 33.109375 50.5625 29.59375 
Q 53.5625 26.078125 56.59375 19.921875 
L 66.609375 0 
L 56 0 
L 46.6875 18.703125 
Q 43.0625 26.03125 39.671875 28.421875 
Q 36.28125 30.8125 30.421875 30.8125 
L 19.671875 30.8125 
L 19.671875 0 
L 9.8125 0 
L 9.8125 72.90625 
L 32.078125 72.90625 
Q 44.578125 72.90625 50.734375 67.671875 
Q 56.890625 62.453125 56.890625 51.90625 
Q 56.890625 45.015625 53.6875 40.46875 
Q 50.484375 35.9375 44.390625 34.1875 
z
M 19.671875 64.796875 
L 19.671875 38.921875 
L 32.078125 38.921875 
Q 39.203125 38.921875 42.84375 42.21875 
Q 46.484375 45.515625 46.484375 51.90625 
Q 46.484375 58.296875 42.84375 61.546875 
Q 39.203125 64.796875 32.078125 64.796875 
z
" id="DejaVuSans-82"/>
      <path d="M 2.984375 54.6875 
L 12.5 54.6875 
L 29.59375 8.796875 
L 46.6875 54.6875 
L 56.203125 54.6875 
L 35.6875 0 
L 23.484375 0 
z
" id="DejaVuSans-118"/>
      <path d="M 9.8125 72.90625 
L 23.09375 72.90625 
L 55.421875 11.921875 
L 55.421875 72.90625 
L 64.984375 72.90625 
L 64.984375 0 
L 51.703125 0 
L 19.390625 60.984375 
L 19.390625 0 
L 9.8125 0 
z
" id="DejaVuSans-78"/>
      <path d="M 34.28125 27.484375 
Q 23.390625 27.484375 19.1875 25 
Q 14.984375 22.515625 14.984375 16.5 
Q 14.984375 11.71875 18.140625 8.90625 
Q 21.296875 6.109375 26.703125 6.109375 
Q 34.1875 6.109375 38.703125 11.40625 
Q 43.21875 16.703125 43.21875 25.484375 
L 43.21875 27.484375 
z
M 52.203125 31.203125 
L 52.203125 0 
L 43.21875 0 
L 43.21875 8.296875 
Q 40.140625 3.328125 35.546875 0.953125 
Q 30.953125 -1.421875 24.3125 -1.421875 
Q 15.921875 -1.421875 10.953125 3.296875 
Q 6 8.015625 6 15.921875 
Q 6 25.140625 12.171875 29.828125 
Q 18.359375 34.515625 30.609375 34.515625 
L 43.21875 34.515625 
L 43.21875 35.40625 
Q 43.21875 41.609375 39.140625 45 
Q 35.0625 48.390625 27.6875 48.390625 
Q 23 48.390625 18.546875 47.265625 
Q 14.109375 46.140625 10.015625 43.890625 
L 10.015625 52.203125 
Q 14.9375 54.109375 19.578125 55.046875 
Q 24.21875 56 28.609375 56 
Q 40.484375 56 46.34375 49.84375 
Q 52.203125 43.703125 52.203125 31.203125 
z
" id="DejaVuSans-97"/>
      <path d="M 48.78125 52.59375 
L 48.78125 44.1875 
Q 44.96875 46.296875 41.140625 47.34375 
Q 37.3125 48.390625 33.40625 48.390625 
Q 24.65625 48.390625 19.8125 42.84375 
Q 14.984375 37.3125 14.984375 27.296875 
Q 14.984375 17.28125 19.8125 11.734375 
Q 24.65625 6.203125 33.40625 6.203125 
Q 37.3125 6.203125 41.140625 7.25 
Q 44.96875 8.296875 48.78125 10.40625 
L 48.78125 2.09375 
Q 45.015625 0.34375 40.984375 -0.53125 
Q 36.96875 -1.421875 32.421875 -1.421875 
Q 20.0625 -1.421875 12.78125 6.34375 
Q 5.515625 14.109375 5.515625 27.296875 
Q 5.515625 40.671875 12.859375 48.328125 
Q 20.21875 56 33.015625 56 
Q 37.15625 56 41.109375 55.140625 
Q 45.0625 54.296875 48.78125 52.59375 
z
" id="DejaVuSans-99"/>
      <path d="M 18.3125 70.21875 
L 18.3125 54.6875 
L 36.8125 54.6875 
L 36.8125 47.703125 
L 18.3125 47.703125 
L 18.3125 18.015625 
Q 18.3125 11.328125 20.140625 9.421875 
Q 21.96875 7.515625 27.59375 7.515625 
L 36.8125 7.515625 
L 36.8125 0 
L 27.59375 0 
Q 17.1875 0 13.234375 3.875 
Q 9.28125 7.765625 9.28125 18.015625 
L 9.28125 47.703125 
L 2.6875 47.703125 
L 2.6875 54.6875 
L 9.28125 54.6875 
L 9.28125 70.21875 
z
" id="DejaVuSans-116"/>
      <path d="M 9.421875 54.6875 
L 18.40625 54.6875 
L 18.40625 0 
L 9.421875 0 
z
M 9.421875 75.984375 
L 18.40625 75.984375 
L 18.40625 64.59375 
L 9.421875 64.59375 
z
" id="DejaVuSans-105"/>
      <path d="M 56.203125 29.59375 
L 56.203125 25.203125 
L 14.890625 25.203125 
Q 15.484375 15.921875 20.484375 11.0625 
Q 25.484375 6.203125 34.421875 6.203125 
Q 39.59375 6.203125 44.453125 7.46875 
Q 49.3125 8.734375 54.109375 11.28125 
L 54.109375 2.78125 
Q 49.265625 0.734375 44.1875 -0.34375 
Q 39.109375 -1.421875 33.890625 -1.421875 
Q 20.796875 -1.421875 13.15625 6.1875 
Q 5.515625 13.8125 5.515625 26.8125 
Q 5.515625 40.234375 12.765625 48.109375 
Q 20.015625 56 32.328125 56 
Q 43.359375 56 49.78125 48.890625 
Q 56.203125 41.796875 56.203125 29.59375 
z
M 47.21875 32.234375 
Q 47.125 39.59375 43.09375 43.984375 
Q 39.0625 48.390625 32.421875 48.390625 
Q 24.90625 48.390625 20.390625 44.140625 
Q 15.875 39.890625 15.1875 32.171875 
z
" id="DejaVuSans-101"/>
      <path d="M 53.515625 70.515625 
L 53.515625 60.890625 
Q 47.90625 63.578125 42.921875 64.890625 
Q 37.9375 66.21875 33.296875 66.21875 
Q 25.25 66.21875 20.875 63.09375 
Q 16.5 59.96875 16.5 54.203125 
Q 16.5 49.359375 19.40625 46.890625 
Q 22.3125 44.4375 30.421875 42.921875 
L 36.375 41.703125 
Q 47.40625 39.59375 52.65625 34.296875 
Q 57.90625 29 57.90625 20.125 
Q 57.90625 9.515625 50.796875 4.046875 
Q 43.703125 -1.421875 29.984375 -1.421875 
Q 24.8125 -1.421875 18.96875 -0.25 
Q 13.140625 0.921875 6.890625 3.21875 
L 6.890625 13.375 
Q 12.890625 10.015625 18.65625 8.296875 
Q 24.421875 6.59375 29.984375 6.59375 
Q 38.421875 6.59375 43.015625 9.90625 
Q 47.609375 13.234375 47.609375 19.390625 
Q 47.609375 24.75 44.3125 27.78125 
Q 41.015625 30.8125 33.5 32.328125 
L 27.484375 33.5 
Q 16.453125 35.6875 11.515625 40.375 
Q 6.59375 45.0625 6.59375 53.421875 
Q 6.59375 63.09375 13.40625 68.65625 
Q 20.21875 74.21875 32.171875 74.21875 
Q 37.3125 74.21875 42.625 73.28125 
Q 47.953125 72.359375 53.515625 70.515625 
z
" id="DejaVuSans-83"/>
     </defs>
     <g style="fill:#262626;" transform="translate(82.089062 343.804062)scale(0.12 -0.12)">
      <use xlink:href="#DejaVuSans-65"/>
      <use x="68.408203" xlink:href="#DejaVuSans-66"/>
      <use x="136.996094" xlink:href="#DejaVuSans-67"/>
      <use x="206.820312" xlink:href="#DejaVuSans-68"/>
      <use x="283.822266" xlink:href="#DejaVuSans-95"/>
      <use x="333.822266" xlink:href="#DejaVuSans-84"/>
      <use x="394.90625" xlink:href="#DejaVuSans-49"/>
      <use x="458.529297" xlink:href="#DejaVuSans-119"/>
      <use x="540.316406" xlink:href="#DejaVuSans-95"/>
      <use x="590.316406" xlink:href="#DejaVuSans-77"/>
      <use x="676.595703" xlink:href="#DejaVuSans-80"/>
      <use x="736.898438" xlink:href="#DejaVuSans-82"/>
      <use x="806.380859" xlink:href="#DejaVuSans-95"/>
      <use x="856.380859" xlink:href="#DejaVuSans-118"/>
      <use x="915.560547" xlink:href="#DejaVuSans-78"/>
      <use x="990.365234" xlink:href="#DejaVuSans-97"/>
      <use x="1051.644531" xlink:href="#DejaVuSans-118"/>
      <use x="1110.824219" xlink:href="#DejaVuSans-95"/>
      <use x="1160.824219" xlink:href="#DejaVuSans-97"/>
      <use x="1222.103516" xlink:href="#DejaVuSans-99"/>
      <use x="1277.083984" xlink:href="#DejaVuSans-116"/>
      <use x="1316.292969" xlink:href="#DejaVuSans-105"/>
      <use x="1344.076172" xlink:href="#DejaVuSans-118"/>
      <use x="1403.255859" xlink:href="#DejaVuSans-101"/>
      <use x="1464.779297" xlink:href="#DejaVuSans-95"/>
      <use x="1514.779297" xlink:href="#DejaVuSans-82"/>
      <use x="1584.261719" xlink:href="#DejaVuSans-77"/>
      <use x="1670.541016" xlink:href="#DejaVuSans-83"/>
      <use x="1734.017578" xlink:href="#DejaVuSans-95"/>
      <use x="1784.017578" xlink:href="#DejaVuSans-49"/>
      <use x="1847.640625" xlink:href="#DejaVuSans-50"/>
      <use x="1911.263672" xlink:href="#DejaVuSans-95"/>
      <use x="1961.263672" xlink:href="#DejaVuSans-84"/>
      <use x="2022.347656" xlink:href="#DejaVuSans-49"/>
     </g>
    </g>
   </g>
   <g id="matplotlib.axis_2">
    <g id="ytick_1">
     <g id="line2d_6">
      <path clip-path="url(#p40b8d8de38)" d="M 67.46 304.356056 
L 347.04 304.356056 
" style="fill:none;stroke:#ffffff;stroke-linecap:round;"/>
     </g>
     <g id="text_7">
      <!-- 0 -->
      <g style="fill:#262626;" transform="translate(50.96125 308.535197)scale(0.11 -0.11)">
       <use xlink:href="#DejaVuSans-48"/>
      </g>
     </g>
    </g>
    <g id="ytick_2">
     <g id="line2d_7">
      <path clip-path="url(#p40b8d8de38)" d="M 67.46 259.772904 
L 347.04 259.772904 
" style="fill:none;stroke:#ffffff;stroke-linecap:round;"/>
     </g>
     <g id="text_8">
      <!-- 2000 -->
      <g style="fill:#262626;" transform="translate(29.965 263.952045)scale(0.11 -0.11)">
       <use xlink:href="#DejaVuSans-50"/>
       <use x="63.623047" xlink:href="#DejaVuSans-48"/>
       <use x="127.246094" xlink:href="#DejaVuSans-48"/>
       <use x="190.869141" xlink:href="#DejaVuSans-48"/>
      </g>
     </g>
    </g>
    <g id="ytick_3">
     <g id="line2d_8">
      <path clip-path="url(#p40b8d8de38)" d="M 67.46 215.189752 
L 347.04 215.189752 
" style="fill:none;stroke:#ffffff;stroke-linecap:round;"/>
     </g>
     <g id="text_9">
      <!-- 4000 -->
      <g style="fill:#262626;" transform="translate(29.965 219.368893)scale(0.11 -0.11)">
       <use xlink:href="#DejaVuSans-52"/>
       <use x="63.623047" xlink:href="#DejaVuSans-48"/>
       <use x="127.246094" xlink:href="#DejaVuSans-48"/>
       <use x="190.869141" xlink:href="#DejaVuSans-48"/>
      </g>
     </g>
    </g>
    <g id="ytick_4">
     <g id="line2d_9">
      <path clip-path="url(#p40b8d8de38)" d="M 67.46 170.6066 
L 347.04 170.6066 
" style="fill:none;stroke:#ffffff;stroke-linecap:round;"/>
     </g>
     <g id="text_10">
      <!-- 6000 -->
      <g style="fill:#262626;" transform="translate(29.965 174.78574)scale(0.11 -0.11)">
       <use xlink:href="#DejaVuSans-54"/>
       <use x="63.623047" xlink:href="#DejaVuSans-48"/>
       <use x="127.246094" xlink:href="#DejaVuSans-48"/>
       <use x="190.869141" xlink:href="#DejaVuSans-48"/>
      </g>
     </g>
    </g>
    <g id="ytick_5">
     <g id="line2d_10">
      <path clip-path="url(#p40b8d8de38)" d="M 67.46 126.023448 
L 347.04 126.023448 
" style="fill:none;stroke:#ffffff;stroke-linecap:round;"/>
     </g>
     <g id="text_11">
      <!-- 8000 -->
      <g style="fill:#262626;" transform="translate(29.965 130.202588)scale(0.11 -0.11)">
       <use xlink:href="#DejaVuSans-56"/>
       <use x="63.623047" xlink:href="#DejaVuSans-48"/>
       <use x="127.246094" xlink:href="#DejaVuSans-48"/>
       <use x="190.869141" xlink:href="#DejaVuSans-48"/>
      </g>
     </g>
    </g>
    <g id="text_12">
     <!-- ABCD_T1w_MPR_vNav_active_RMS_24_T1 -->
     <g style="fill:#262626;" transform="translate(23.135625 325.430938)rotate(-90)scale(0.12 -0.12)">
      <use xlink:href="#DejaVuSans-65"/>
      <use x="68.408203" xlink:href="#DejaVuSans-66"/>
      <use x="136.996094" xlink:href="#DejaVuSans-67"/>
      <use x="206.820312" xlink:href="#DejaVuSans-68"/>
      <use x="283.822266" xlink:href="#DejaVuSans-95"/>
      <use x="333.822266" xlink:href="#DejaVuSans-84"/>
      <use x="394.90625" xlink:href="#DejaVuSans-49"/>
      <use x="458.529297" xlink:href="#DejaVuSans-119"/>
      <use x="540.316406" xlink:href="#DejaVuSans-95"/>
      <use x="590.316406" xlink:href="#DejaVuSans-77"/>
      <use x="676.595703" xlink:href="#DejaVuSans-80"/>
      <use x="736.898438" xlink:href="#DejaVuSans-82"/>
      <use x="806.380859" xlink:href="#DejaVuSans-95"/>
      <use x="856.380859" xlink:href="#DejaVuSans-118"/>
      <use x="915.560547" xlink:href="#DejaVuSans-78"/>
      <use x="990.365234" xlink:href="#DejaVuSans-97"/>
      <use x="1051.644531" xlink:href="#DejaVuSans-118"/>
      <use x="1110.824219" xlink:href="#DejaVuSans-95"/>
      <use x="1160.824219" xlink:href="#DejaVuSans-97"/>
      <use x="1222.103516" xlink:href="#DejaVuSans-99"/>
      <use x="1277.083984" xlink:href="#DejaVuSans-116"/>
      <use x="1316.292969" xlink:href="#DejaVuSans-105"/>
      <use x="1344.076172" xlink:href="#DejaVuSans-118"/>
      <use x="1403.255859" xlink:href="#DejaVuSans-101"/>
      <use x="1464.779297" xlink:href="#DejaVuSans-95"/>
      <use x="1514.779297" xlink:href="#DejaVuSans-82"/>
      <use x="1584.261719" xlink:href="#DejaVuSans-77"/>
      <use x="1670.541016" xlink:href="#DejaVuSans-83"/>
      <use x="1734.017578" xlink:href="#DejaVuSans-95"/>
      <use x="1784.017578" xlink:href="#DejaVuSans-50"/>
      <use x="1847.640625" xlink:href="#DejaVuSans-52"/>
      <use x="1911.263672" xlink:href="#DejaVuSans-95"/>
      <use x="1961.263672" xlink:href="#DejaVuSans-84"/>
      <use x="2022.347656" xlink:href="#DejaVuSans-49"/>
     </g>
    </g>
   </g>
   <g id="PathCollection_1">
    <defs>
     <path d="M -3 0 
L 3 0 
M 0 3 
L 0 -3 
" id="m85485b9e84" style="stroke:#333333;stroke-width:0.75;"/>
    </defs>
    <g clip-path="url(#p40b8d8de38)">
     <use style="fill:#333333;stroke:#333333;stroke-width:0.75;" x="266.492341" xlink:href="#m85485b9e84" y="150.403744"/>
     <use style="fill:#333333;stroke:#333333;stroke-width:0.75;" x="273.376582" xlink:href="#m85485b9e84" y="141.551759"/>
     <use style="fill:#333333;stroke:#333333;stroke-width:0.75;" x="334.331506" xlink:href="#m85485b9e84" y="110.96103"/>
     <use style="fill:#333333;stroke:#333333;stroke-width:0.75;" x="306.735195" xlink:href="#m85485b9e84" y="121.707798"/>
     <use style="fill:#333333;stroke:#333333;stroke-width:0.75;" x="282.089273" xlink:href="#m85485b9e84" y="140.370306"/>
     <use style="fill:#333333;stroke:#333333;stroke-width:0.75;" x="265.398663" xlink:href="#m85485b9e84" y="163.083193"/>
     <use style="fill:#333333;stroke:#333333;stroke-width:0.75;" x="328.249861" xlink:href="#m85485b9e84" y="100.024782"/>
     <use style="fill:#333333;stroke:#333333;stroke-width:0.75;" x="291.528257" xlink:href="#m85485b9e84" y="124.817473"/>
     <use style="fill:#333333;stroke:#333333;stroke-width:0.75;" x="134.897645" xlink:href="#m85485b9e84" y="262.920475"/>
     <use style="fill:#333333;stroke:#333333;stroke-width:0.75;" x="164.031323" xlink:href="#m85485b9e84" y="230.644502"/>
     <use style="fill:#333333;stroke:#333333;stroke-width:0.75;" x="166.450416" xlink:href="#m85485b9e84" y="230.715835"/>
     <use style="fill:#333333;stroke:#333333;stroke-width:0.75;" x="177.2459" xlink:href="#m85485b9e84" y="226.549539"/>
     <use style="fill:#333333;stroke:#333333;stroke-width:0.75;" x="140.261475" xlink:href="#m85485b9e84" y="252.900411"/>
     <use style="fill:#333333;stroke:#333333;stroke-width:0.75;" x="120.826776" xlink:href="#m85485b9e84" y="268.355161"/>
     <use style="fill:#333333;stroke:#333333;stroke-width:0.75;" x="175.295931" xlink:href="#m85485b9e84" y="222.352035"/>
     <use style="fill:#333333;stroke:#333333;stroke-width:0.75;" x="164.675661" xlink:href="#m85485b9e84" y="233.107721"/>
     <use style="fill:#333333;stroke:#333333;stroke-width:0.75;" x="161.646143" xlink:href="#m85485b9e84" y="235.158546"/>
     <use style="fill:#333333;stroke:#333333;stroke-width:0.75;" x="182.016261" xlink:href="#m85485b9e84" y="220.165232"/>
     <use style="fill:#333333;stroke:#333333;stroke-width:0.75;" x="208.493459" xlink:href="#m85485b9e84" y="199.407316"/>
     <use style="fill:#333333;stroke:#333333;stroke-width:0.75;" x="221.069351" xlink:href="#m85485b9e84" y="189.284711"/>
     <use style="fill:#333333;stroke:#333333;stroke-width:0.75;" x="174.976588" xlink:href="#m85485b9e84" y="231.288728"/>
     <use style="fill:#333333;stroke:#333333;stroke-width:0.75;" x="142.708828" xlink:href="#m85485b9e84" y="250.02034"/>
     <use style="fill:#333333;stroke:#333333;stroke-width:0.75;" x="217.271149" xlink:href="#m85485b9e84" y="189.63246"/>
     <use style="fill:#333333;stroke:#333333;stroke-width:0.75;" x="185.650553" xlink:href="#m85485b9e84" y="219.576734"/>
     <use style="fill:#333333;stroke:#333333;stroke-width:0.75;" x="109.081741" xlink:href="#m85485b9e84" y="276.357837"/>
     <use style="fill:#333333;stroke:#333333;stroke-width:0.75;" x="125.585833" xlink:href="#m85485b9e84" y="266.382356"/>
     <use style="fill:#333333;stroke:#333333;stroke-width:0.75;" x="141.976883" xlink:href="#m85485b9e84" y="251.201793"/>
     <use style="fill:#333333;stroke:#333333;stroke-width:0.75;" x="137.856512" xlink:href="#m85485b9e84" y="253.096577"/>
     <use style="fill:#333333;stroke:#333333;stroke-width:0.75;" x="115.02491" xlink:href="#m85485b9e84" y="272.173708"/>
     <use style="fill:#333333;stroke:#333333;stroke-width:0.75;" x="112.659512" xlink:href="#m85485b9e84" y="275.45057"/>
     <use style="fill:#333333;stroke:#333333;stroke-width:0.75;" x="146.865937" xlink:href="#m85485b9e84" y="247.222747"/>
     <use style="fill:#333333;stroke:#333333;stroke-width:0.75;" x="131.98682" xlink:href="#m85485b9e84" y="259.188865"/>
     <use style="fill:#333333;stroke:#333333;stroke-width:0.75;" x="189.160498" xlink:href="#m85485b9e84" y="215.452792"/>
     <use style="fill:#333333;stroke:#333333;stroke-width:0.75;" x="184.602091" xlink:href="#m85485b9e84" y="216.857162"/>
     <use style="fill:#333333;stroke:#333333;stroke-width:0.75;" x="197.796886" xlink:href="#m85485b9e84" y="206.190643"/>
     <use style="fill:#333333;stroke:#333333;stroke-width:0.75;" x="183.044941" xlink:href="#m85485b9e84" y="218.836654"/>
     <use style="fill:#333333;stroke:#333333;stroke-width:0.75;" x="179.882599" xlink:href="#m85485b9e84" y="225.33019"/>
     <use style="fill:#333333;stroke:#333333;stroke-width:0.75;" x="160.493117" xlink:href="#m85485b9e84" y="236.210708"/>
     <use style="fill:#333333;stroke:#333333;stroke-width:0.75;" x="199.495338" xlink:href="#m85485b9e84" y="207.343117"/>
     <use style="fill:#333333;stroke:#333333;stroke-width:0.75;" x="183.313415" xlink:href="#m85485b9e84" y="219.868754"/>
     <use style="fill:#333333;stroke:#333333;stroke-width:0.75;" x="113.162547" xlink:href="#m85485b9e84" y="274.246824"/>
     <use style="fill:#333333;stroke:#333333;stroke-width:0.75;" x="115.301862" xlink:href="#m85485b9e84" y="269.603489"/>
     <use style="fill:#333333;stroke:#333333;stroke-width:0.75;" x="124.294331" xlink:href="#m85485b9e84" y="267.599476"/>
     <use style="fill:#333333;stroke:#333333;stroke-width:0.75;" x="116.214674" xlink:href="#m85485b9e84" y="270.426048"/>
     <use style="fill:#333333;stroke:#333333;stroke-width:0.75;" x="112.651034" xlink:href="#m85485b9e84" y="273.49114"/>
     <use style="fill:#333333;stroke:#333333;stroke-width:0.75;" x="104.099427" xlink:href="#m85485b9e84" y="280.091676"/>
     <use style="fill:#333333;stroke:#333333;stroke-width:0.75;" x="121.541765" xlink:href="#m85485b9e84" y="265.822838"/>
     <use style="fill:#333333;stroke:#333333;stroke-width:0.75;" x="113.583628" xlink:href="#m85485b9e84" y="274.49649"/>
     <use style="fill:#333333;stroke:#333333;stroke-width:0.75;" x="115.089909" xlink:href="#m85485b9e84" y="270.677943"/>
     <use style="fill:#333333;stroke:#333333;stroke-width:0.75;" x="100.920129" xlink:href="#m85485b9e84" y="283.856723"/>
     <use style="fill:#333333;stroke:#333333;stroke-width:0.75;" x="122.542184" xlink:href="#m85485b9e84" y="268.88793"/>
     <use style="fill:#333333;stroke:#333333;stroke-width:0.75;" x="96.760193" xlink:href="#m85485b9e84" y="286.98646"/>
     <use style="fill:#333333;stroke:#333333;stroke-width:0.75;" x="111.989739" xlink:href="#m85485b9e84" y="276.079192"/>
     <use style="fill:#333333;stroke:#333333;stroke-width:0.75;" x="129.220124" xlink:href="#m85485b9e84" y="259.911112"/>
     <use style="fill:#333333;stroke:#333333;stroke-width:0.75;" x="104.014646" xlink:href="#m85485b9e84" y="279.859843"/>
     <use style="fill:#333333;stroke:#333333;stroke-width:0.75;" x="98.198649" xlink:href="#m85485b9e84" y="287.577187"/>
     <use style="fill:#333333;stroke:#333333;stroke-width:0.75;" x="84.07126" xlink:href="#m85485b9e84" y="299.672596"/>
     <use style="fill:#333333;stroke:#333333;stroke-width:0.75;" x="83.653005" xlink:href="#m85485b9e84" y="298.410893"/>
     <use style="fill:#333333;stroke:#333333;stroke-width:0.75;" x="85.405152" xlink:href="#m85485b9e84" y="293.094352"/>
     <use style="fill:#333333;stroke:#333333;stroke-width:0.75;" x="83.681266" xlink:href="#m85485b9e84" y="296.266443"/>
     <use style="fill:#333333;stroke:#333333;stroke-width:0.75;" x="87.386208" xlink:href="#m85485b9e84" y="294.786283"/>
     <use style="fill:#333333;stroke:#333333;stroke-width:0.75;" x="80.168494" xlink:href="#m85485b9e84" y="300.515218"/>
     <use style="fill:#333333;stroke:#333333;stroke-width:0.75;" x="88.245325" xlink:href="#m85485b9e84" y="297.476876"/>
     <use style="fill:#333333;stroke:#333333;stroke-width:0.75;" x="86.772957" xlink:href="#m85485b9e84" y="298.39306"/>
     <use style="fill:#333333;stroke:#333333;stroke-width:0.75;" x="199.992721" xlink:href="#m85485b9e84" y="208.600362"/>
     <use style="fill:#333333;stroke:#333333;stroke-width:0.75;" x="171.05404" xlink:href="#m85485b9e84" y="229.393944"/>
     <use style="fill:#333333;stroke:#333333;stroke-width:0.75;" x="232.201134" xlink:href="#m85485b9e84" y="174.656979"/>
     <use style="fill:#333333;stroke:#333333;stroke-width:0.75;" x="188.00182" xlink:href="#m85485b9e84" y="212.055556"/>
     <use style="fill:#333333;stroke:#333333;stroke-width:0.75;" x="186.670754" xlink:href="#m85485b9e84" y="215.004732"/>
     <use style="fill:#333333;stroke:#333333;stroke-width:0.75;" x="170.036665" xlink:href="#m85485b9e84" y="227.9227"/>
     <use style="fill:#333333;stroke:#333333;stroke-width:0.75;" x="202.937458" xlink:href="#m85485b9e84" y="203.807673"/>
     <use style="fill:#333333;stroke:#333333;stroke-width:0.75;" x="196.720163" xlink:href="#m85485b9e84" y="214.436297"/>
     <use style="fill:#333333;stroke:#333333;stroke-width:0.75;" x="263.118046" xlink:href="#m85485b9e84" y="142.222736"/>
     <use style="fill:#333333;stroke:#333333;stroke-width:0.75;" x="269.756421" xlink:href="#m85485b9e84" y="151.723406"/>
     <use style="fill:#333333;stroke:#333333;stroke-width:0.75;" x="320.260637" xlink:href="#m85485b9e84" y="113.856705"/>
     <use style="fill:#333333;stroke:#333333;stroke-width:0.75;" x="309.352111" xlink:href="#m85485b9e84" y="119.712702"/>
     <use style="fill:#333333;stroke:#333333;stroke-width:0.75;" x="276.072627" xlink:href="#m85485b9e84" y="140.410431"/>
     <use style="fill:#333333;stroke:#333333;stroke-width:0.75;" x="266.42169" xlink:href="#m85485b9e84" y="160.871868"/>
     <use style="fill:#333333;stroke:#333333;stroke-width:0.75;" x="325.367297" xlink:href="#m85485b9e84" y="107.193753"/>
     <use style="fill:#333333;stroke:#333333;stroke-width:0.75;" x="268.496006" xlink:href="#m85485b9e84" y="143.691751"/>
     <use style="fill:#333333;stroke:#333333;stroke-width:0.75;" x="158.856838" xlink:href="#m85485b9e84" y="246.395729"/>
     <use style="fill:#333333;stroke:#333333;stroke-width:0.75;" x="175.411799" xlink:href="#m85485b9e84" y="224.012758"/>
     <use style="fill:#333333;stroke:#333333;stroke-width:0.75;" x="177.729154" xlink:href="#m85485b9e84" y="222.182619"/>
     <use style="fill:#333333;stroke:#333333;stroke-width:0.75;" x="175.832879" xlink:href="#m85485b9e84" y="225.867417"/>
     <use style="fill:#333333;stroke:#333333;stroke-width:0.75;" x="158.673145" xlink:href="#m85485b9e84" y="239.055113"/>
     <use style="fill:#333333;stroke:#333333;stroke-width:0.75;" x="137.528691" xlink:href="#m85485b9e84" y="247.737682"/>
     <use style="fill:#333333;stroke:#333333;stroke-width:0.75;" x="175.278974" xlink:href="#m85485b9e84" y="223.194657"/>
     <use style="fill:#333333;stroke:#333333;stroke-width:0.75;" x="159.48422" xlink:href="#m85485b9e84" y="236.703352"/>
     <use style="fill:#333333;stroke:#333333;stroke-width:0.75;" x="154.583861" xlink:href="#m85485b9e84" y="241.255292"/>
     <use style="fill:#333333;stroke:#333333;stroke-width:0.75;" x="186.201631" xlink:href="#m85485b9e84" y="215.611063"/>
     <use style="fill:#333333;stroke:#333333;stroke-width:0.75;" x="214.685319" xlink:href="#m85485b9e84" y="199.95123"/>
     <use style="fill:#333333;stroke:#333333;stroke-width:0.75;" x="215.425743" xlink:href="#m85485b9e84" y="193.970401"/>
     <use style="fill:#333333;stroke:#333333;stroke-width:0.75;" x="165.622385" xlink:href="#m85485b9e84" y="234.971297"/>
     <use style="fill:#333333;stroke:#333333;stroke-width:0.75;" x="141.324067" xlink:href="#m85485b9e84" y="255.791629"/>
     <use style="fill:#333333;stroke:#333333;stroke-width:0.75;" x="222.386287" xlink:href="#m85485b9e84" y="187.78003"/>
     <use style="fill:#333333;stroke:#333333;stroke-width:0.75;" x="197.500151" xlink:href="#m85485b9e84" y="206.64762"/>
     <use style="fill:#333333;stroke:#333333;stroke-width:0.75;" x="107.171336" xlink:href="#m85485b9e84" y="276.837106"/>
     <use style="fill:#333333;stroke:#333333;stroke-width:0.75;" x="126.82364" xlink:href="#m85485b9e84" y="265.078299"/>
     <use style="fill:#333333;stroke:#333333;stroke-width:0.75;" x="144.760535" xlink:href="#m85485b9e84" y="251.741249"/>
     <use style="fill:#333333;stroke:#333333;stroke-width:0.75;" x="131.43009" xlink:href="#m85485b9e84" y="257.385476"/>
     <use style="fill:#333333;stroke:#333333;stroke-width:0.75;" x="113.46776" xlink:href="#m85485b9e84" y="275.038175"/>
     <use style="fill:#333333;stroke:#333333;stroke-width:0.75;" x="108.488272" xlink:href="#m85485b9e84" y="277.987351"/>
     <use style="fill:#333333;stroke:#333333;stroke-width:0.75;" x="139.080189" xlink:href="#m85485b9e84" y="254.362739"/>
     <use style="fill:#333333;stroke:#333333;stroke-width:0.75;" x="125.905176" xlink:href="#m85485b9e84" y="262.146957"/>
     <use style="fill:#333333;stroke:#333333;stroke-width:0.75;" x="185.543163" xlink:href="#m85485b9e84" y="218.174594"/>
     <use style="fill:#333333;stroke:#333333;stroke-width:0.75;" x="197.584933" xlink:href="#m85485b9e84" y="210.847353"/>
     <use style="fill:#333333;stroke:#333333;stroke-width:0.75;" x="206.000889" xlink:href="#m85485b9e84" y="200.669019"/>
     <use style="fill:#333333;stroke:#333333;stroke-width:0.75;" x="190.590476" xlink:href="#m85485b9e84" y="215.706916"/>
     <use style="fill:#333333;stroke:#333333;stroke-width:0.75;" x="174.470726" xlink:href="#m85485b9e84" y="224.59011"/>
     <use style="fill:#333333;stroke:#333333;stroke-width:0.75;" x="159.229876" xlink:href="#m85485b9e84" y="237.245037"/>
     <use style="fill:#333333;stroke:#333333;stroke-width:0.75;" x="220.261102" xlink:href="#m85485b9e84" y="190.129562"/>
     <use style="fill:#333333;stroke:#333333;stroke-width:0.75;" x="183.129722" xlink:href="#m85485b9e84" y="219.721629"/>
     <use style="fill:#333333;stroke:#333333;stroke-width:0.75;" x="117.277266" xlink:href="#m85485b9e84" y="270.974421"/>
     <use style="fill:#333333;stroke:#333333;stroke-width:0.75;" x="122.587401" xlink:href="#m85485b9e84" y="266.932958"/>
     <use style="fill:#333333;stroke:#333333;stroke-width:0.75;" x="124.348026" xlink:href="#m85485b9e84" y="267.552664"/>
     <use style="fill:#333333;stroke:#333333;stroke-width:0.75;" x="117.766172" xlink:href="#m85485b9e84" y="270.811693"/>
     <use style="fill:#333333;stroke:#333333;stroke-width:0.75;" x="115.847288" xlink:href="#m85485b9e84" y="271.233003"/>
     <use style="fill:#333333;stroke:#333333;stroke-width:0.75;" x="107.988062" xlink:href="#m85485b9e84" y="277.559353"/>
     <use style="fill:#333333;stroke:#333333;stroke-width:0.75;" x="121.375029" xlink:href="#m85485b9e84" y="265.628901"/>
     <use style="fill:#333333;stroke:#333333;stroke-width:0.75;" x="115.279254" xlink:href="#m85485b9e84" y="271.663231"/>
     <use style="fill:#333333;stroke:#333333;stroke-width:0.75;" x="84.605382" xlink:href="#m85485b9e84" y="296.493817"/>
     <use style="fill:#333333;stroke:#333333;stroke-width:0.75;" x="89.030965" xlink:href="#m85485b9e84" y="294.632471"/>
     <use style="fill:#333333;stroke:#333333;stroke-width:0.75;" x="90.802894" xlink:href="#m85485b9e84" y="290.484008"/>
     <use style="fill:#333333;stroke:#333333;stroke-width:0.75;" x="87.682943" xlink:href="#m85485b9e84" y="293.477767"/>
     <use style="fill:#333333;stroke:#333333;stroke-width:0.75;" x="90.859415" xlink:href="#m85485b9e84" y="292.909332"/>
     <use style="fill:#333333;stroke:#333333;stroke-width:0.75;" x="82.52824" xlink:href="#m85485b9e84" y="298.952578"/>
     <use style="fill:#333333;stroke:#333333;stroke-width:0.75;" x="92.928079" xlink:href="#m85485b9e84" y="290.385926"/>
     <use style="fill:#333333;stroke:#333333;stroke-width:0.75;" x="91.653533" xlink:href="#m85485b9e84" y="292.175939"/>
     <use style="fill:#333333;stroke:#333333;stroke-width:0.75;" x="196.556253" xlink:href="#m85485b9e84" y="217.632909"/>
     <use style="fill:#333333;stroke:#333333;stroke-width:0.75;" x="173.272484" xlink:href="#m85485b9e84" y="223.642718"/>
     <use style="fill:#333333;stroke:#333333;stroke-width:0.75;" x="228.583799" xlink:href="#m85485b9e84" y="184.677043"/>
     <use style="fill:#333333;stroke:#333333;stroke-width:0.75;" x="189.917878" xlink:href="#m85485b9e84" y="214.998044"/>
     <use style="fill:#333333;stroke:#333333;stroke-width:0.75;" x="179.763905" xlink:href="#m85485b9e84" y="222.062245"/>
     <use style="fill:#333333;stroke:#333333;stroke-width:0.75;" x="173.78965" xlink:href="#m85485b9e84" y="224.382798"/>
     <use style="fill:#333333;stroke:#333333;stroke-width:0.75;" x="201.482046" xlink:href="#m85485b9e84" y="203.3128"/>
     <use style="fill:#333333;stroke:#333333;stroke-width:0.75;" x="190.35874" xlink:href="#m85485b9e84" y="218.136698"/>
     <use style="fill:#333333;stroke:#333333;stroke-width:0.75;" x="99.492977" xlink:href="#m85485b9e84" y="284.726094"/>
     <use style="fill:#333333;stroke:#333333;stroke-width:0.75;" x="101.575771" xlink:href="#m85485b9e84" y="283.776473"/>
     <use style="fill:#333333;stroke:#333333;stroke-width:0.75;" x="101.960113" xlink:href="#m85485b9e84" y="283.894619"/>
     <use style="fill:#333333;stroke:#333333;stroke-width:0.75;" x="100.272965" xlink:href="#m85485b9e84" y="282.160334"/>
     <use style="fill:#333333;stroke:#333333;stroke-width:0.75;" x="100.835347" xlink:href="#m85485b9e84" y="283.41535"/>
     <use style="fill:#333333;stroke:#333333;stroke-width:0.75;" x="92.899818" xlink:href="#m85485b9e84" y="294.155431"/>
     <use style="fill:#333333;stroke:#333333;stroke-width:0.75;" x="105.05463" xlink:href="#m85485b9e84" y="279.607948"/>
     <use style="fill:#333333;stroke:#333333;stroke-width:0.75;" x="101.295992" xlink:href="#m85485b9e84" y="283.056455"/>
     <use style="fill:#333333;stroke:#333333;stroke-width:0.75;" x="88.646624" xlink:href="#m85485b9e84" y="296.206256"/>
     <use style="fill:#333333;stroke:#333333;stroke-width:0.75;" x="88.824664" xlink:href="#m85485b9e84" y="294.692658"/>
     <use style="fill:#333333;stroke:#333333;stroke-width:0.75;" x="88.445974" xlink:href="#m85485b9e84" y="293.745266"/>
     <use style="fill:#333333;stroke:#333333;stroke-width:0.75;" x="95.717383" xlink:href="#m85485b9e84" y="288.109956"/>
     <use style="fill:#333333;stroke:#333333;stroke-width:0.75;" x="90.429857" xlink:href="#m85485b9e84" y="293.344018"/>
     <use style="fill:#333333;stroke:#333333;stroke-width:0.75;" x="90.890502" xlink:href="#m85485b9e84" y="294.124223"/>
     <use style="fill:#333333;stroke:#333333;stroke-width:0.75;" x="93.210683" xlink:href="#m85485b9e84" y="288.814369"/>
     <use style="fill:#333333;stroke:#333333;stroke-width:0.75;" x="91.695924" xlink:href="#m85485b9e84" y="290.79832"/>
     <use style="fill:#333333;stroke:#333333;stroke-width:0.75;" x="84.653425" xlink:href="#m85485b9e84" y="296.703358"/>
     <use style="fill:#333333;stroke:#333333;stroke-width:0.75;" x="86.360355" xlink:href="#m85485b9e84" y="295.74482"/>
     <use style="fill:#333333;stroke:#333333;stroke-width:0.75;" x="97.10497" xlink:href="#m85485b9e84" y="289.683741"/>
     <use style="fill:#333333;stroke:#333333;stroke-width:0.75;" x="91.972876" xlink:href="#m85485b9e84" y="291.06136"/>
     <use style="fill:#333333;stroke:#333333;stroke-width:0.75;" x="87.807289" xlink:href="#m85485b9e84" y="294.262431"/>
     <use style="fill:#333333;stroke:#333333;stroke-width:0.75;" x="84.223866" xlink:href="#m85485b9e84" y="295.704696"/>
     <use style="fill:#333333;stroke:#333333;stroke-width:0.75;" x="103.336395" xlink:href="#m85485b9e84" y="279.940093"/>
     <use style="fill:#333333;stroke:#333333;stroke-width:0.75;" x="97.285837" xlink:href="#m85485b9e84" y="285.127343"/>
     <use style="fill:#333333;stroke:#333333;stroke-width:0.75;" x="85.345805" xlink:href="#m85485b9e84" y="296.257527"/>
     <use style="fill:#333333;stroke:#333333;stroke-width:0.75;" x="86.029708" xlink:href="#m85485b9e84" y="295.820612"/>
     <use style="fill:#333333;stroke:#333333;stroke-width:0.75;" x="93.380246" xlink:href="#m85485b9e84" y="292.483563"/>
     <use style="fill:#333333;stroke:#333333;stroke-width:0.75;" x="92.09157" xlink:href="#m85485b9e84" y="292.824624"/>
     <use style="fill:#333333;stroke:#333333;stroke-width:0.75;" x="88.180326" xlink:href="#m85485b9e84" y="290.726987"/>
     <use style="fill:#333333;stroke:#333333;stroke-width:0.75;" x="86.580786" xlink:href="#m85485b9e84" y="294.648075"/>
     <use style="fill:#333333;stroke:#333333;stroke-width:0.75;" x="100.736436" xlink:href="#m85485b9e84" y="281.241921"/>
     <use style="fill:#333333;stroke:#333333;stroke-width:0.75;" x="94.779137" xlink:href="#m85485b9e84" y="287.242813"/>
     <use style="fill:#333333;stroke:#333333;stroke-width:0.75;" x="99.823624" xlink:href="#m85485b9e84" y="285.049322"/>
     <use style="fill:#333333;stroke:#333333;stroke-width:0.75;" x="99.914057" xlink:href="#m85485b9e84" y="284.338221"/>
     <use style="fill:#333333;stroke:#333333;stroke-width:0.75;" x="100.705349" xlink:href="#m85485b9e84" y="284.469741"/>
     <use style="fill:#333333;stroke:#333333;stroke-width:0.75;" x="100.318181" xlink:href="#m85485b9e84" y="282.374333"/>
     <use style="fill:#333333;stroke:#333333;stroke-width:0.75;" x="98.291909" xlink:href="#m85485b9e84" y="288.783161"/>
     <use style="fill:#333333;stroke:#333333;stroke-width:0.75;" x="93.337855" xlink:href="#m85485b9e84" y="286.716732"/>
     <use style="fill:#333333;stroke:#333333;stroke-width:0.75;" x="100.499048" xlink:href="#m85485b9e84" y="283.435412"/>
     <use style="fill:#333333;stroke:#333333;stroke-width:0.75;" x="104.348119" xlink:href="#m85485b9e84" y="281.489357"/>
    </g>
   </g>
   <g id="patch_3">
    <path d="M 67.46 310.54 
L 67.46 90 
" style="fill:none;stroke:#ffffff;stroke-linecap:square;stroke-linejoin:miter;stroke-width:1.25;"/>
   </g>
   <g id="patch_4">
    <path d="M 67.46 310.54 
L 347.04 310.54 
" style="fill:none;stroke:#ffffff;stroke-linecap:square;stroke-linejoin:miter;stroke-width:1.25;"/>
   </g>
   <g id="text_13">
    <!-- ROI volume ($ml^3$) -->
    <defs>
     <path d="M 39.40625 66.21875 
Q 28.65625 66.21875 22.328125 58.203125 
Q 16.015625 50.203125 16.015625 36.375 
Q 16.015625 22.609375 22.328125 14.59375 
Q 28.65625 6.59375 39.40625 6.59375 
Q 50.140625 6.59375 56.421875 14.59375 
Q 62.703125 22.609375 62.703125 36.375 
Q 62.703125 50.203125 56.421875 58.203125 
Q 50.140625 66.21875 39.40625 66.21875 
z
M 39.40625 74.21875 
Q 54.734375 74.21875 63.90625 63.9375 
Q 73.09375 53.65625 73.09375 36.375 
Q 73.09375 19.140625 63.90625 8.859375 
Q 54.734375 -1.421875 39.40625 -1.421875 
Q 24.03125 -1.421875 14.8125 8.828125 
Q 5.609375 19.09375 5.609375 36.375 
Q 5.609375 53.65625 14.8125 63.9375 
Q 24.03125 74.21875 39.40625 74.21875 
z
" id="DejaVuSans-79"/>
     <path d="M 9.8125 72.90625 
L 19.671875 72.90625 
L 19.671875 0 
L 9.8125 0 
z
" id="DejaVuSans-73"/>
     <path id="DejaVuSans-32"/>
     <path d="M 30.609375 48.390625 
Q 23.390625 48.390625 19.1875 42.75 
Q 14.984375 37.109375 14.984375 27.296875 
Q 14.984375 17.484375 19.15625 11.84375 
Q 23.34375 6.203125 30.609375 6.203125 
Q 37.796875 6.203125 41.984375 11.859375 
Q 46.1875 17.53125 46.1875 27.296875 
Q 46.1875 37.015625 41.984375 42.703125 
Q 37.796875 48.390625 30.609375 48.390625 
z
M 30.609375 56 
Q 42.328125 56 49.015625 48.375 
Q 55.71875 40.765625 55.71875 27.296875 
Q 55.71875 13.875 49.015625 6.21875 
Q 42.328125 -1.421875 30.609375 -1.421875 
Q 18.84375 -1.421875 12.171875 6.21875 
Q 5.515625 13.875 5.515625 27.296875 
Q 5.515625 40.765625 12.171875 48.375 
Q 18.84375 56 30.609375 56 
z
" id="DejaVuSans-111"/>
     <path d="M 9.421875 75.984375 
L 18.40625 75.984375 
L 18.40625 0 
L 9.421875 0 
z
" id="DejaVuSans-108"/>
     <path d="M 8.5 21.578125 
L 8.5 54.6875 
L 17.484375 54.6875 
L 17.484375 21.921875 
Q 17.484375 14.15625 20.5 10.265625 
Q 23.53125 6.390625 29.59375 6.390625 
Q 36.859375 6.390625 41.078125 11.03125 
Q 45.3125 15.671875 45.3125 23.6875 
L 45.3125 54.6875 
L 54.296875 54.6875 
L 54.296875 0 
L 45.3125 0 
L 45.3125 8.40625 
Q 42.046875 3.421875 37.71875 1 
Q 33.40625 -1.421875 27.6875 -1.421875 
Q 18.265625 -1.421875 13.375 4.4375 
Q 8.5 10.296875 8.5 21.578125 
z
M 31.109375 56 
z
" id="DejaVuSans-117"/>
     <path d="M 52 44.1875 
Q 55.375 50.25 60.0625 53.125 
Q 64.75 56 71.09375 56 
Q 79.640625 56 84.28125 50.015625 
Q 88.921875 44.046875 88.921875 33.015625 
L 88.921875 0 
L 79.890625 0 
L 79.890625 32.71875 
Q 79.890625 40.578125 77.09375 44.375 
Q 74.3125 48.1875 68.609375 48.1875 
Q 61.625 48.1875 57.5625 43.546875 
Q 53.515625 38.921875 53.515625 30.90625 
L 53.515625 0 
L 44.484375 0 
L 44.484375 32.71875 
Q 44.484375 40.625 41.703125 44.40625 
Q 38.921875 48.1875 33.109375 48.1875 
Q 26.21875 48.1875 22.15625 43.53125 
Q 18.109375 38.875 18.109375 30.90625 
L 18.109375 0 
L 9.078125 0 
L 9.078125 54.6875 
L 18.109375 54.6875 
L 18.109375 46.1875 
Q 21.1875 51.21875 25.484375 53.609375 
Q 29.78125 56 35.6875 56 
Q 41.65625 56 45.828125 52.96875 
Q 50 49.953125 52 44.1875 
z
" id="DejaVuSans-109"/>
     <path d="M 31 75.875 
Q 24.46875 64.65625 21.28125 53.65625 
Q 18.109375 42.671875 18.109375 31.390625 
Q 18.109375 20.125 21.3125 9.0625 
Q 24.515625 -2 31 -13.1875 
L 23.1875 -13.1875 
Q 15.875 -1.703125 12.234375 9.375 
Q 8.59375 20.453125 8.59375 31.390625 
Q 8.59375 42.28125 12.203125 53.3125 
Q 15.828125 64.359375 23.1875 75.875 
z
" id="DejaVuSans-40"/>
     <path d="M 89.796875 33.015625 
L 83.40625 0 
L 74.421875 0 
L 80.71875 32.71875 
Q 81.109375 34.8125 81.296875 36.328125 
Q 81.5 37.84375 81.5 38.921875 
Q 81.5 43.3125 79.046875 45.75 
Q 76.609375 48.1875 72.21875 48.1875 
Q 65.671875 48.1875 60.546875 43.28125 
Q 55.421875 38.375 53.90625 30.515625 
L 47.90625 0 
L 38.921875 0 
L 45.3125 32.71875 
Q 45.703125 34.515625 45.890625 36.046875 
Q 46.09375 37.59375 46.09375 38.8125 
Q 46.09375 43.265625 43.65625 45.71875 
Q 41.21875 48.1875 36.921875 48.1875 
Q 30.28125 48.1875 25.140625 43.28125 
Q 20.015625 38.375 18.5 30.515625 
L 12.5 0 
L 3.515625 0 
L 14.203125 54.6875 
L 23.1875 54.6875 
L 21.484375 46.1875 
Q 25.140625 50.984375 30.046875 53.484375 
Q 34.96875 56 40.578125 56 
Q 46.53125 56 50.359375 52.875 
Q 54.203125 49.75 54.984375 44.1875 
Q 59.078125 49.953125 64.46875 52.96875 
Q 69.875 56 75.875 56 
Q 82.90625 56 86.734375 51.953125 
Q 90.578125 47.90625 90.578125 40.484375 
Q 90.578125 38.875 90.375 36.9375 
Q 90.1875 35.015625 89.796875 33.015625 
z
" id="DejaVuSans-Oblique-109"/>
     <path d="M 18.3125 75.984375 
L 27.296875 75.984375 
L 12.5 0 
L 3.515625 0 
z
" id="DejaVuSans-Oblique-108"/>
     <path d="M 40.578125 39.3125 
Q 47.65625 37.796875 51.625 33 
Q 55.609375 28.21875 55.609375 21.1875 
Q 55.609375 10.40625 48.1875 4.484375 
Q 40.765625 -1.421875 27.09375 -1.421875 
Q 22.515625 -1.421875 17.65625 -0.515625 
Q 12.796875 0.390625 7.625 2.203125 
L 7.625 11.71875 
Q 11.71875 9.328125 16.59375 8.109375 
Q 21.484375 6.890625 26.8125 6.890625 
Q 36.078125 6.890625 40.9375 10.546875 
Q 45.796875 14.203125 45.796875 21.1875 
Q 45.796875 27.640625 41.28125 31.265625 
Q 36.765625 34.90625 28.71875 34.90625 
L 20.21875 34.90625 
L 20.21875 43.015625 
L 29.109375 43.015625 
Q 36.375 43.015625 40.234375 45.921875 
Q 44.09375 48.828125 44.09375 54.296875 
Q 44.09375 59.90625 40.109375 62.90625 
Q 36.140625 65.921875 28.71875 65.921875 
Q 24.65625 65.921875 20.015625 65.03125 
Q 15.375 64.15625 9.8125 62.3125 
L 9.8125 71.09375 
Q 15.4375 72.65625 20.34375 73.4375 
Q 25.25 74.21875 29.59375 74.21875 
Q 40.828125 74.21875 47.359375 69.109375 
Q 53.90625 64.015625 53.90625 55.328125 
Q 53.90625 49.265625 50.4375 45.09375 
Q 46.96875 40.921875 40.578125 39.3125 
z
" id="DejaVuSans-51"/>
     <path d="M 8.015625 75.875 
L 15.828125 75.875 
Q 23.140625 64.359375 26.78125 53.3125 
Q 30.421875 42.28125 30.421875 31.390625 
Q 30.421875 20.453125 26.78125 9.375 
Q 23.140625 -1.703125 15.828125 -13.1875 
L 8.015625 -13.1875 
Q 14.5 -2 17.703125 9.0625 
Q 20.90625 20.125 20.90625 31.390625 
Q 20.90625 42.671875 17.703125 53.65625 
Q 14.5 64.65625 8.015625 75.875 
z
" id="DejaVuSans-41"/>
    </defs>
    <g style="fill:#262626;" transform="translate(155.05 84)scale(0.12 -0.12)">
     <use transform="translate(0 0.765625)" xlink:href="#DejaVuSans-82"/>
     <use transform="translate(69.482422 0.765625)" xlink:href="#DejaVuSans-79"/>
     <use transform="translate(148.193359 0.765625)" xlink:href="#DejaVuSans-73"/>
     <use transform="translate(177.685547 0.765625)" xlink:href="#DejaVuSans-32"/>
     <use transform="translate(209.472656 0.765625)" xlink:href="#DejaVuSans-118"/>
     <use transform="translate(268.652344 0.765625)" xlink:href="#DejaVuSans-111"/>
     <use transform="translate(329.833984 0.765625)" xlink:href="#DejaVuSans-108"/>
     <use transform="translate(357.617188 0.765625)" xlink:href="#DejaVuSans-117"/>
     <use transform="translate(420.996094 0.765625)" xlink:href="#DejaVuSans-109"/>
     <use transform="translate(518.408203 0.765625)" xlink:href="#DejaVuSans-101"/>
     <use transform="translate(579.931641 0.765625)" xlink:href="#DejaVuSans-32"/>
     <use transform="translate(611.71875 0.765625)" xlink:href="#DejaVuSans-40"/>
     <use transform="translate(650.732422 0.765625)" xlink:href="#DejaVuSans-Oblique-109"/>
     <use transform="translate(748.144531 0.765625)" xlink:href="#DejaVuSans-Oblique-108"/>
     <use transform="translate(783.375443 39.046875)scale(0.7)" xlink:href="#DejaVuSans-51"/>
     <use transform="translate(830.645951 0.765625)" xlink:href="#DejaVuSans-41"/>
    </g>
   </g>
  </g>
 </g>
 <defs>
  <clipPath id="p40b8d8de38">
   <rect height="220.54" width="279.58" x="67.46" y="90"/>
  </clipPath>
 </defs>
</svg>
