<?xml version="1.0" encoding="utf-8" standalone="no"?>
<!DOCTYPE svg PUBLIC "-//W3C//DTD SVG 1.1//EN"
  "http://www.w3.org/Graphics/SVG/1.1/DTD/svg11.dtd">
<!-- Created with matplotlib (https://matplotlib.org/) -->
<svg height="1152pt" version="1.1" viewBox="0 0 1440 1152" width="1440pt" xmlns="http://www.w3.org/2000/svg" xmlns:xlink="http://www.w3.org/1999/xlink">
 <defs>
  <style type="text/css">
*{stroke-linecap:butt;stroke-linejoin:round;}
  </style>
 </defs>
 <g id="figure_1">
  <g id="patch_1">
   <path d="M 0 1152 
L 1440 1152 
L 1440 0 
L 0 0 
z
" style="fill:#ffffff;"/>
  </g>
  <g id="axes_1">
   <g id="patch_2">
    <path d="M 180 533.585455 
L 687.272727 533.585455 
L 687.272727 138.24 
L 180 138.24 
z
" style="fill:#ffffff;"/>
   </g>
   <g id="matplotlib.axis_1">
    <g id="xtick_1">
     <g id="line2d_1">
      <path clip-path="url(#p0aac53b2e3)" d="M 200.005825 533.585455 
L 200.005825 138.24 
" style="fill:none;stroke:#cccccc;stroke-linecap:round;"/>
     </g>
     <g id="text_1">
      <!-- −0.100 -->
      <defs>
       <path d="M 10.59375 35.5 
L 73.1875 35.5 
L 73.1875 27.203125 
L 10.59375 27.203125 
z
" id="DejaVuSans-8722"/>
       <path d="M 31.78125 66.40625 
Q 24.171875 66.40625 20.328125 58.90625 
Q 16.5 51.421875 16.5 36.375 
Q 16.5 21.390625 20.328125 13.890625 
Q 24.171875 6.390625 31.78125 6.390625 
Q 39.453125 6.390625 43.28125 13.890625 
Q 47.125 21.390625 47.125 36.375 
Q 47.125 51.421875 43.28125 58.90625 
Q 39.453125 66.40625 31.78125 66.40625 
z
M 31.78125 74.21875 
Q 44.046875 74.21875 50.515625 64.515625 
Q 56.984375 54.828125 56.984375 36.375 
Q 56.984375 17.96875 50.515625 8.265625 
Q 44.046875 -1.421875 31.78125 -1.421875 
Q 19.53125 -1.421875 13.0625 8.265625 
Q 6.59375 17.96875 6.59375 36.375 
Q 6.59375 54.828125 13.0625 64.515625 
Q 19.53125 74.21875 31.78125 74.21875 
z
" id="DejaVuSans-48"/>
       <path d="M 10.6875 12.40625 
L 21 12.40625 
L 21 0 
L 10.6875 0 
z
" id="DejaVuSans-46"/>
       <path d="M 12.40625 8.296875 
L 28.515625 8.296875 
L 28.515625 63.921875 
L 10.984375 60.40625 
L 10.984375 69.390625 
L 28.421875 72.90625 
L 38.28125 72.90625 
L 38.28125 8.296875 
L 54.390625 8.296875 
L 54.390625 0 
L 12.40625 0 
z
" id="DejaVuSans-49"/>
      </defs>
      <g style="fill:#262626;" transform="translate(173.545239 553.95122)scale(0.143 -0.143)">
       <use xlink:href="#DejaVuSans-8722"/>
       <use x="83.789062" xlink:href="#DejaVuSans-48"/>
       <use x="147.412109" xlink:href="#DejaVuSans-46"/>
       <use x="179.199219" xlink:href="#DejaVuSans-49"/>
       <use x="242.822266" xlink:href="#DejaVuSans-48"/>
       <use x="306.445312" xlink:href="#DejaVuSans-48"/>
      </g>
     </g>
    </g>
    <g id="xtick_2">
     <g id="line2d_2">
      <path clip-path="url(#p0aac53b2e3)" d="M 258.049364 533.585455 
L 258.049364 138.24 
" style="fill:none;stroke:#cccccc;stroke-linecap:round;"/>
     </g>
     <g id="text_2">
      <!-- −0.075 -->
      <defs>
       <path d="M 8.203125 72.90625 
L 55.078125 72.90625 
L 55.078125 68.703125 
L 28.609375 0 
L 18.3125 0 
L 43.21875 64.59375 
L 8.203125 64.59375 
z
" id="DejaVuSans-55"/>
       <path d="M 10.796875 72.90625 
L 49.515625 72.90625 
L 49.515625 64.59375 
L 19.828125 64.59375 
L 19.828125 46.734375 
Q 21.96875 47.46875 24.109375 47.828125 
Q 26.265625 48.1875 28.421875 48.1875 
Q 40.625 48.1875 47.75 41.5 
Q 54.890625 34.8125 54.890625 23.390625 
Q 54.890625 11.625 47.5625 5.09375 
Q 40.234375 -1.421875 26.90625 -1.421875 
Q 22.3125 -1.421875 17.546875 -0.640625 
Q 12.796875 0.140625 7.71875 1.703125 
L 7.71875 11.625 
Q 12.109375 9.234375 16.796875 8.0625 
Q 21.484375 6.890625 26.703125 6.890625 
Q 35.15625 6.890625 40.078125 11.328125 
Q 45.015625 15.765625 45.015625 23.390625 
Q 45.015625 31 40.078125 35.4375 
Q 35.15625 39.890625 26.703125 39.890625 
Q 22.75 39.890625 18.8125 39.015625 
Q 14.890625 38.140625 10.796875 36.28125 
z
" id="DejaVuSans-53"/>
      </defs>
      <g style="fill:#262626;" transform="translate(231.588778 553.95122)scale(0.143 -0.143)">
       <use xlink:href="#DejaVuSans-8722"/>
       <use x="83.789062" xlink:href="#DejaVuSans-48"/>
       <use x="147.412109" xlink:href="#DejaVuSans-46"/>
       <use x="179.199219" xlink:href="#DejaVuSans-48"/>
       <use x="242.822266" xlink:href="#DejaVuSans-55"/>
       <use x="306.445312" xlink:href="#DejaVuSans-53"/>
      </g>
     </g>
    </g>
    <g id="xtick_3">
     <g id="line2d_3">
      <path clip-path="url(#p0aac53b2e3)" d="M 316.092903 533.585455 
L 316.092903 138.24 
" style="fill:none;stroke:#cccccc;stroke-linecap:round;"/>
     </g>
     <g id="text_3">
      <!-- −0.050 -->
      <g style="fill:#262626;" transform="translate(289.632317 553.95122)scale(0.143 -0.143)">
       <use xlink:href="#DejaVuSans-8722"/>
       <use x="83.789062" xlink:href="#DejaVuSans-48"/>
       <use x="147.412109" xlink:href="#DejaVuSans-46"/>
       <use x="179.199219" xlink:href="#DejaVuSans-48"/>
       <use x="242.822266" xlink:href="#DejaVuSans-53"/>
       <use x="306.445312" xlink:href="#DejaVuSans-48"/>
      </g>
     </g>
    </g>
    <g id="xtick_4">
     <g id="line2d_4">
      <path clip-path="url(#p0aac53b2e3)" d="M 374.136442 533.585455 
L 374.136442 138.24 
" style="fill:none;stroke:#cccccc;stroke-linecap:round;"/>
     </g>
     <g id="text_4">
      <!-- −0.025 -->
      <defs>
       <path d="M 19.1875 8.296875 
L 53.609375 8.296875 
L 53.609375 0 
L 7.328125 0 
L 7.328125 8.296875 
Q 12.9375 14.109375 22.625 23.890625 
Q 32.328125 33.6875 34.8125 36.53125 
Q 39.546875 41.84375 41.421875 45.53125 
Q 43.3125 49.21875 43.3125 52.78125 
Q 43.3125 58.59375 39.234375 62.25 
Q 35.15625 65.921875 28.609375 65.921875 
Q 23.96875 65.921875 18.8125 64.3125 
Q 13.671875 62.703125 7.8125 59.421875 
L 7.8125 69.390625 
Q 13.765625 71.78125 18.9375 73 
Q 24.125 74.21875 28.421875 74.21875 
Q 39.75 74.21875 46.484375 68.546875 
Q 53.21875 62.890625 53.21875 53.421875 
Q 53.21875 48.921875 51.53125 44.890625 
Q 49.859375 40.875 45.40625 35.40625 
Q 44.1875 33.984375 37.640625 27.21875 
Q 31.109375 20.453125 19.1875 8.296875 
z
" id="DejaVuSans-50"/>
      </defs>
      <g style="fill:#262626;" transform="translate(347.675856 553.95122)scale(0.143 -0.143)">
       <use xlink:href="#DejaVuSans-8722"/>
       <use x="83.789062" xlink:href="#DejaVuSans-48"/>
       <use x="147.412109" xlink:href="#DejaVuSans-46"/>
       <use x="179.199219" xlink:href="#DejaVuSans-48"/>
       <use x="242.822266" xlink:href="#DejaVuSans-50"/>
       <use x="306.445312" xlink:href="#DejaVuSans-53"/>
      </g>
     </g>
    </g>
    <g id="xtick_5">
     <g id="line2d_5">
      <path clip-path="url(#p0aac53b2e3)" d="M 432.179982 533.585455 
L 432.179982 138.24 
" style="fill:none;stroke:#cccccc;stroke-linecap:round;"/>
     </g>
     <g id="text_5">
      <!-- 0.000 -->
      <g style="fill:#262626;" transform="translate(411.710872 553.95122)scale(0.143 -0.143)">
       <use xlink:href="#DejaVuSans-48"/>
       <use x="63.623047" xlink:href="#DejaVuSans-46"/>
       <use x="95.410156" xlink:href="#DejaVuSans-48"/>
       <use x="159.033203" xlink:href="#DejaVuSans-48"/>
       <use x="222.65625" xlink:href="#DejaVuSans-48"/>
      </g>
     </g>
    </g>
    <g id="xtick_6">
     <g id="line2d_6">
      <path clip-path="url(#p0aac53b2e3)" d="M 490.223521 533.585455 
L 490.223521 138.24 
" style="fill:none;stroke:#cccccc;stroke-linecap:round;"/>
     </g>
     <g id="text_6">
      <!-- 0.025 -->
      <g style="fill:#262626;" transform="translate(469.754411 553.95122)scale(0.143 -0.143)">
       <use xlink:href="#DejaVuSans-48"/>
       <use x="63.623047" xlink:href="#DejaVuSans-46"/>
       <use x="95.410156" xlink:href="#DejaVuSans-48"/>
       <use x="159.033203" xlink:href="#DejaVuSans-50"/>
       <use x="222.65625" xlink:href="#DejaVuSans-53"/>
      </g>
     </g>
    </g>
    <g id="xtick_7">
     <g id="line2d_7">
      <path clip-path="url(#p0aac53b2e3)" d="M 548.26706 533.585455 
L 548.26706 138.24 
" style="fill:none;stroke:#cccccc;stroke-linecap:round;"/>
     </g>
     <g id="text_7">
      <!-- 0.050 -->
      <g style="fill:#262626;" transform="translate(527.797951 553.95122)scale(0.143 -0.143)">
       <use xlink:href="#DejaVuSans-48"/>
       <use x="63.623047" xlink:href="#DejaVuSans-46"/>
       <use x="95.410156" xlink:href="#DejaVuSans-48"/>
       <use x="159.033203" xlink:href="#DejaVuSans-53"/>
       <use x="222.65625" xlink:href="#DejaVuSans-48"/>
      </g>
     </g>
    </g>
    <g id="xtick_8">
     <g id="line2d_8">
      <path clip-path="url(#p0aac53b2e3)" d="M 606.310599 533.585455 
L 606.310599 138.24 
" style="fill:none;stroke:#cccccc;stroke-linecap:round;"/>
     </g>
     <g id="text_8">
      <!-- 0.075 -->
      <g style="fill:#262626;" transform="translate(585.84149 553.95122)scale(0.143 -0.143)">
       <use xlink:href="#DejaVuSans-48"/>
       <use x="63.623047" xlink:href="#DejaVuSans-46"/>
       <use x="95.410156" xlink:href="#DejaVuSans-48"/>
       <use x="159.033203" xlink:href="#DejaVuSans-55"/>
       <use x="222.65625" xlink:href="#DejaVuSans-53"/>
      </g>
     </g>
    </g>
    <g id="xtick_9">
     <g id="line2d_9">
      <path clip-path="url(#p0aac53b2e3)" d="M 664.354138 533.585455 
L 664.354138 138.24 
" style="fill:none;stroke:#cccccc;stroke-linecap:round;"/>
     </g>
     <g id="text_9">
      <!-- 0.100 -->
      <g style="fill:#262626;" transform="translate(643.885029 553.95122)scale(0.143 -0.143)">
       <use xlink:href="#DejaVuSans-48"/>
       <use x="63.623047" xlink:href="#DejaVuSans-46"/>
       <use x="95.410156" xlink:href="#DejaVuSans-49"/>
       <use x="159.033203" xlink:href="#DejaVuSans-48"/>
       <use x="222.65625" xlink:href="#DejaVuSans-48"/>
      </g>
     </g>
    </g>
    <g id="text_10">
     <!-- Nucleus Accumbens -->
     <defs>
      <path d="M 9.8125 72.90625 
L 23.09375 72.90625 
L 55.421875 11.921875 
L 55.421875 72.90625 
L 64.984375 72.90625 
L 64.984375 0 
L 51.703125 0 
L 19.390625 60.984375 
L 19.390625 0 
L 9.8125 0 
z
" id="DejaVuSans-78"/>
      <path d="M 8.5 21.578125 
L 8.5 54.6875 
L 17.484375 54.6875 
L 17.484375 21.921875 
Q 17.484375 14.15625 20.5 10.265625 
Q 23.53125 6.390625 29.59375 6.390625 
Q 36.859375 6.390625 41.078125 11.03125 
Q 45.3125 15.671875 45.3125 23.6875 
L 45.3125 54.6875 
L 54.296875 54.6875 
L 54.296875 0 
L 45.3125 0 
L 45.3125 8.40625 
Q 42.046875 3.421875 37.71875 1 
Q 33.40625 -1.421875 27.6875 -1.421875 
Q 18.265625 -1.421875 13.375 4.4375 
Q 8.5 10.296875 8.5 21.578125 
z
M 31.109375 56 
z
" id="DejaVuSans-117"/>
      <path d="M 48.78125 52.59375 
L 48.78125 44.1875 
Q 44.96875 46.296875 41.140625 47.34375 
Q 37.3125 48.390625 33.40625 48.390625 
Q 24.65625 48.390625 19.8125 42.84375 
Q 14.984375 37.3125 14.984375 27.296875 
Q 14.984375 17.28125 19.8125 11.734375 
Q 24.65625 6.203125 33.40625 6.203125 
Q 37.3125 6.203125 41.140625 7.25 
Q 44.96875 8.296875 48.78125 10.40625 
L 48.78125 2.09375 
Q 45.015625 0.34375 40.984375 -0.53125 
Q 36.96875 -1.421875 32.421875 -1.421875 
Q 20.0625 -1.421875 12.78125 6.34375 
Q 5.515625 14.109375 5.515625 27.296875 
Q 5.515625 40.671875 12.859375 48.328125 
Q 20.21875 56 33.015625 56 
Q 37.15625 56 41.109375 55.140625 
Q 45.0625 54.296875 48.78125 52.59375 
z
" id="DejaVuSans-99"/>
      <path d="M 9.421875 75.984375 
L 18.40625 75.984375 
L 18.40625 0 
L 9.421875 0 
z
" id="DejaVuSans-108"/>
      <path d="M 56.203125 29.59375 
L 56.203125 25.203125 
L 14.890625 25.203125 
Q 15.484375 15.921875 20.484375 11.0625 
Q 25.484375 6.203125 34.421875 6.203125 
Q 39.59375 6.203125 44.453125 7.46875 
Q 49.3125 8.734375 54.109375 11.28125 
L 54.109375 2.78125 
Q 49.265625 0.734375 44.1875 -0.34375 
Q 39.109375 -1.421875 33.890625 -1.421875 
Q 20.796875 -1.421875 13.15625 6.1875 
Q 5.515625 13.8125 5.515625 26.8125 
Q 5.515625 40.234375 12.765625 48.109375 
Q 20.015625 56 32.328125 56 
Q 43.359375 56 49.78125 48.890625 
Q 56.203125 41.796875 56.203125 29.59375 
z
M 47.21875 32.234375 
Q 47.125 39.59375 43.09375 43.984375 
Q 39.0625 48.390625 32.421875 48.390625 
Q 24.90625 48.390625 20.390625 44.140625 
Q 15.875 39.890625 15.1875 32.171875 
z
" id="DejaVuSans-101"/>
      <path d="M 44.28125 53.078125 
L 44.28125 44.578125 
Q 40.484375 46.53125 36.375 47.5 
Q 32.28125 48.484375 27.875 48.484375 
Q 21.1875 48.484375 17.84375 46.4375 
Q 14.5 44.390625 14.5 40.28125 
Q 14.5 37.15625 16.890625 35.375 
Q 19.28125 33.59375 26.515625 31.984375 
L 29.59375 31.296875 
Q 39.15625 29.25 43.1875 25.515625 
Q 47.21875 21.78125 47.21875 15.09375 
Q 47.21875 7.46875 41.1875 3.015625 
Q 35.15625 -1.421875 24.609375 -1.421875 
Q 20.21875 -1.421875 15.453125 -0.5625 
Q 10.6875 0.296875 5.421875 2 
L 5.421875 11.28125 
Q 10.40625 8.6875 15.234375 7.390625 
Q 20.0625 6.109375 24.8125 6.109375 
Q 31.15625 6.109375 34.5625 8.28125 
Q 37.984375 10.453125 37.984375 14.40625 
Q 37.984375 18.0625 35.515625 20.015625 
Q 33.0625 21.96875 24.703125 23.78125 
L 21.578125 24.515625 
Q 13.234375 26.265625 9.515625 29.90625 
Q 5.8125 33.546875 5.8125 39.890625 
Q 5.8125 47.609375 11.28125 51.796875 
Q 16.75 56 26.8125 56 
Q 31.78125 56 36.171875 55.265625 
Q 40.578125 54.546875 44.28125 53.078125 
z
" id="DejaVuSans-115"/>
      <path id="DejaVuSans-32"/>
      <path d="M 34.1875 63.1875 
L 20.796875 26.90625 
L 47.609375 26.90625 
z
M 28.609375 72.90625 
L 39.796875 72.90625 
L 67.578125 0 
L 57.328125 0 
L 50.6875 18.703125 
L 17.828125 18.703125 
L 11.1875 0 
L 0.78125 0 
z
" id="DejaVuSans-65"/>
      <path d="M 52 44.1875 
Q 55.375 50.25 60.0625 53.125 
Q 64.75 56 71.09375 56 
Q 79.640625 56 84.28125 50.015625 
Q 88.921875 44.046875 88.921875 33.015625 
L 88.921875 0 
L 79.890625 0 
L 79.890625 32.71875 
Q 79.890625 40.578125 77.09375 44.375 
Q 74.3125 48.1875 68.609375 48.1875 
Q 61.625 48.1875 57.5625 43.546875 
Q 53.515625 38.921875 53.515625 30.90625 
L 53.515625 0 
L 44.484375 0 
L 44.484375 32.71875 
Q 44.484375 40.625 41.703125 44.40625 
Q 38.921875 48.1875 33.109375 48.1875 
Q 26.21875 48.1875 22.15625 43.53125 
Q 18.109375 38.875 18.109375 30.90625 
L 18.109375 0 
L 9.078125 0 
L 9.078125 54.6875 
L 18.109375 54.6875 
L 18.109375 46.1875 
Q 21.1875 51.21875 25.484375 53.609375 
Q 29.78125 56 35.6875 56 
Q 41.65625 56 45.828125 52.96875 
Q 50 49.953125 52 44.1875 
z
" id="DejaVuSans-109"/>
      <path d="M 48.6875 27.296875 
Q 48.6875 37.203125 44.609375 42.84375 
Q 40.53125 48.484375 33.40625 48.484375 
Q 26.265625 48.484375 22.1875 42.84375 
Q 18.109375 37.203125 18.109375 27.296875 
Q 18.109375 17.390625 22.1875 11.75 
Q 26.265625 6.109375 33.40625 6.109375 
Q 40.53125 6.109375 44.609375 11.75 
Q 48.6875 17.390625 48.6875 27.296875 
z
M 18.109375 46.390625 
Q 20.953125 51.265625 25.265625 53.625 
Q 29.59375 56 35.59375 56 
Q 45.5625 56 51.78125 48.09375 
Q 58.015625 40.1875 58.015625 27.296875 
Q 58.015625 14.40625 51.78125 6.484375 
Q 45.5625 -1.421875 35.59375 -1.421875 
Q 29.59375 -1.421875 25.265625 0.953125 
Q 20.953125 3.328125 18.109375 8.203125 
L 18.109375 0 
L 9.078125 0 
L 9.078125 75.984375 
L 18.109375 75.984375 
z
" id="DejaVuSans-98"/>
      <path d="M 54.890625 33.015625 
L 54.890625 0 
L 45.90625 0 
L 45.90625 32.71875 
Q 45.90625 40.484375 42.875 44.328125 
Q 39.84375 48.1875 33.796875 48.1875 
Q 26.515625 48.1875 22.3125 43.546875 
Q 18.109375 38.921875 18.109375 30.90625 
L 18.109375 0 
L 9.078125 0 
L 9.078125 54.6875 
L 18.109375 54.6875 
L 18.109375 46.1875 
Q 21.34375 51.125 25.703125 53.5625 
Q 30.078125 56 35.796875 56 
Q 45.21875 56 50.046875 50.171875 
Q 54.890625 44.34375 54.890625 33.015625 
z
" id="DejaVuSans-110"/>
     </defs>
     <g style="fill:#262626;" transform="translate(354.906332 572.778736)scale(0.156 -0.156)">
      <use xlink:href="#DejaVuSans-78"/>
      <use x="74.804688" xlink:href="#DejaVuSans-117"/>
      <use x="138.183594" xlink:href="#DejaVuSans-99"/>
      <use x="193.164062" xlink:href="#DejaVuSans-108"/>
      <use x="220.947266" xlink:href="#DejaVuSans-101"/>
      <use x="282.470703" xlink:href="#DejaVuSans-117"/>
      <use x="345.849609" xlink:href="#DejaVuSans-115"/>
      <use x="397.949219" xlink:href="#DejaVuSans-32"/>
      <use x="429.736328" xlink:href="#DejaVuSans-65"/>
      <use x="498.128906" xlink:href="#DejaVuSans-99"/>
      <use x="553.109375" xlink:href="#DejaVuSans-99"/>
      <use x="608.089844" xlink:href="#DejaVuSans-117"/>
      <use x="671.46875" xlink:href="#DejaVuSans-109"/>
      <use x="768.880859" xlink:href="#DejaVuSans-98"/>
      <use x="832.357422" xlink:href="#DejaVuSans-101"/>
      <use x="893.880859" xlink:href="#DejaVuSans-110"/>
      <use x="957.259766" xlink:href="#DejaVuSans-115"/>
     </g>
    </g>
   </g>
   <g id="matplotlib.axis_2">
    <g id="ytick_1">
     <g id="line2d_10">
      <path clip-path="url(#p0aac53b2e3)" d="M 180 533.585455 
L 687.272727 533.585455 
" style="fill:none;stroke:#cccccc;stroke-linecap:round;"/>
     </g>
     <g id="text_11">
      <!-- 0 -->
      <g style="fill:#262626;" transform="translate(161.401625 539.018337)scale(0.143 -0.143)">
       <use xlink:href="#DejaVuSans-48"/>
      </g>
     </g>
    </g>
    <g id="ytick_2">
     <g id="line2d_11">
      <path clip-path="url(#p0aac53b2e3)" d="M 180 476.965984 
L 687.272727 476.965984 
" style="fill:none;stroke:#cccccc;stroke-linecap:round;"/>
     </g>
     <g id="text_12">
      <!-- 100 -->
      <g style="fill:#262626;" transform="translate(143.204875 482.398867)scale(0.143 -0.143)">
       <use xlink:href="#DejaVuSans-49"/>
       <use x="63.623047" xlink:href="#DejaVuSans-48"/>
       <use x="127.246094" xlink:href="#DejaVuSans-48"/>
      </g>
     </g>
    </g>
    <g id="ytick_3">
     <g id="line2d_12">
      <path clip-path="url(#p0aac53b2e3)" d="M 180 420.346513 
L 687.272727 420.346513 
" style="fill:none;stroke:#cccccc;stroke-linecap:round;"/>
     </g>
     <g id="text_13">
      <!-- 200 -->
      <g style="fill:#262626;" transform="translate(143.204875 425.779396)scale(0.143 -0.143)">
       <use xlink:href="#DejaVuSans-50"/>
       <use x="63.623047" xlink:href="#DejaVuSans-48"/>
       <use x="127.246094" xlink:href="#DejaVuSans-48"/>
      </g>
     </g>
    </g>
    <g id="ytick_4">
     <g id="line2d_13">
      <path clip-path="url(#p0aac53b2e3)" d="M 180 363.727042 
L 687.272727 363.727042 
" style="fill:none;stroke:#cccccc;stroke-linecap:round;"/>
     </g>
     <g id="text_14">
      <!-- 300 -->
      <defs>
       <path d="M 40.578125 39.3125 
Q 47.65625 37.796875 51.625 33 
Q 55.609375 28.21875 55.609375 21.1875 
Q 55.609375 10.40625 48.1875 4.484375 
Q 40.765625 -1.421875 27.09375 -1.421875 
Q 22.515625 -1.421875 17.65625 -0.515625 
Q 12.796875 0.390625 7.625 2.203125 
L 7.625 11.71875 
Q 11.71875 9.328125 16.59375 8.109375 
Q 21.484375 6.890625 26.8125 6.890625 
Q 36.078125 6.890625 40.9375 10.546875 
Q 45.796875 14.203125 45.796875 21.1875 
Q 45.796875 27.640625 41.28125 31.265625 
Q 36.765625 34.90625 28.71875 34.90625 
L 20.21875 34.90625 
L 20.21875 43.015625 
L 29.109375 43.015625 
Q 36.375 43.015625 40.234375 45.921875 
Q 44.09375 48.828125 44.09375 54.296875 
Q 44.09375 59.90625 40.109375 62.90625 
Q 36.140625 65.921875 28.71875 65.921875 
Q 24.65625 65.921875 20.015625 65.03125 
Q 15.375 64.15625 9.8125 62.3125 
L 9.8125 71.09375 
Q 15.4375 72.65625 20.34375 73.4375 
Q 25.25 74.21875 29.59375 74.21875 
Q 40.828125 74.21875 47.359375 69.109375 
Q 53.90625 64.015625 53.90625 55.328125 
Q 53.90625 49.265625 50.4375 45.09375 
Q 46.96875 40.921875 40.578125 39.3125 
z
" id="DejaVuSans-51"/>
      </defs>
      <g style="fill:#262626;" transform="translate(143.204875 369.159925)scale(0.143 -0.143)">
       <use xlink:href="#DejaVuSans-51"/>
       <use x="63.623047" xlink:href="#DejaVuSans-48"/>
       <use x="127.246094" xlink:href="#DejaVuSans-48"/>
      </g>
     </g>
    </g>
    <g id="ytick_5">
     <g id="line2d_14">
      <path clip-path="url(#p0aac53b2e3)" d="M 180 307.107572 
L 687.272727 307.107572 
" style="fill:none;stroke:#cccccc;stroke-linecap:round;"/>
     </g>
     <g id="text_15">
      <!-- 400 -->
      <defs>
       <path d="M 37.796875 64.3125 
L 12.890625 25.390625 
L 37.796875 25.390625 
z
M 35.203125 72.90625 
L 47.609375 72.90625 
L 47.609375 25.390625 
L 58.015625 25.390625 
L 58.015625 17.1875 
L 47.609375 17.1875 
L 47.609375 0 
L 37.796875 0 
L 37.796875 17.1875 
L 4.890625 17.1875 
L 4.890625 26.703125 
z
" id="DejaVuSans-52"/>
      </defs>
      <g style="fill:#262626;" transform="translate(143.204875 312.540454)scale(0.143 -0.143)">
       <use xlink:href="#DejaVuSans-52"/>
       <use x="63.623047" xlink:href="#DejaVuSans-48"/>
       <use x="127.246094" xlink:href="#DejaVuSans-48"/>
      </g>
     </g>
    </g>
    <g id="ytick_6">
     <g id="line2d_15">
      <path clip-path="url(#p0aac53b2e3)" d="M 180 250.488101 
L 687.272727 250.488101 
" style="fill:none;stroke:#cccccc;stroke-linecap:round;"/>
     </g>
     <g id="text_16">
      <!-- 500 -->
      <g style="fill:#262626;" transform="translate(143.204875 255.920984)scale(0.143 -0.143)">
       <use xlink:href="#DejaVuSans-53"/>
       <use x="63.623047" xlink:href="#DejaVuSans-48"/>
       <use x="127.246094" xlink:href="#DejaVuSans-48"/>
      </g>
     </g>
    </g>
    <g id="ytick_7">
     <g id="line2d_16">
      <path clip-path="url(#p0aac53b2e3)" d="M 180 193.86863 
L 687.272727 193.86863 
" style="fill:none;stroke:#cccccc;stroke-linecap:round;"/>
     </g>
     <g id="text_17">
      <!-- 600 -->
      <defs>
       <path d="M 33.015625 40.375 
Q 26.375 40.375 22.484375 35.828125 
Q 18.609375 31.296875 18.609375 23.390625 
Q 18.609375 15.53125 22.484375 10.953125 
Q 26.375 6.390625 33.015625 6.390625 
Q 39.65625 6.390625 43.53125 10.953125 
Q 47.40625 15.53125 47.40625 23.390625 
Q 47.40625 31.296875 43.53125 35.828125 
Q 39.65625 40.375 33.015625 40.375 
z
M 52.59375 71.296875 
L 52.59375 62.3125 
Q 48.875 64.0625 45.09375 64.984375 
Q 41.3125 65.921875 37.59375 65.921875 
Q 27.828125 65.921875 22.671875 59.328125 
Q 17.53125 52.734375 16.796875 39.40625 
Q 19.671875 43.65625 24.015625 45.921875 
Q 28.375 48.1875 33.59375 48.1875 
Q 44.578125 48.1875 50.953125 41.515625 
Q 57.328125 34.859375 57.328125 23.390625 
Q 57.328125 12.15625 50.6875 5.359375 
Q 44.046875 -1.421875 33.015625 -1.421875 
Q 20.359375 -1.421875 13.671875 8.265625 
Q 6.984375 17.96875 6.984375 36.375 
Q 6.984375 53.65625 15.1875 63.9375 
Q 23.390625 74.21875 37.203125 74.21875 
Q 40.921875 74.21875 44.703125 73.484375 
Q 48.484375 72.75 52.59375 71.296875 
z
" id="DejaVuSans-54"/>
      </defs>
      <g style="fill:#262626;" transform="translate(143.204875 199.301513)scale(0.143 -0.143)">
       <use xlink:href="#DejaVuSans-54"/>
       <use x="63.623047" xlink:href="#DejaVuSans-48"/>
       <use x="127.246094" xlink:href="#DejaVuSans-48"/>
      </g>
     </g>
    </g>
   </g>
   <g id="patch_3">
    <path clip-path="url(#p0aac53b2e3)" d="M 203.057851 533.585455 
L 212.869703 533.585455 
L 212.869703 530.188286 
L 203.057851 530.188286 
z
" style="fill:#c44e52;opacity:0.75;stroke:#ffffff;stroke-linejoin:miter;"/>
   </g>
   <g id="patch_4">
    <path clip-path="url(#p0aac53b2e3)" d="M 212.869703 533.585455 
L 222.681554 533.585455 
L 222.681554 529.622092 
L 212.869703 529.622092 
z
" style="fill:#c44e52;opacity:0.75;stroke:#ffffff;stroke-linejoin:miter;"/>
   </g>
   <g id="patch_5">
    <path clip-path="url(#p0aac53b2e3)" d="M 222.681554 533.585455 
L 232.493406 533.585455 
L 232.493406 527.357313 
L 222.681554 527.357313 
z
" style="fill:#c44e52;opacity:0.75;stroke:#ffffff;stroke-linejoin:miter;"/>
   </g>
   <g id="patch_6">
    <path clip-path="url(#p0aac53b2e3)" d="M 232.493406 533.585455 
L 242.305258 533.585455 
L 242.305258 525.092534 
L 232.493406 525.092534 
z
" style="fill:#c44e52;opacity:0.75;stroke:#ffffff;stroke-linejoin:miter;"/>
   </g>
   <g id="patch_7">
    <path clip-path="url(#p0aac53b2e3)" d="M 242.305258 533.585455 
L 252.117109 533.585455 
L 252.117109 519.430587 
L 242.305258 519.430587 
z
" style="fill:#c44e52;opacity:0.75;stroke:#ffffff;stroke-linejoin:miter;"/>
   </g>
   <g id="patch_8">
    <path clip-path="url(#p0aac53b2e3)" d="M 252.117109 533.585455 
L 261.928961 533.585455 
L 261.928961 507.540498 
L 252.117109 507.540498 
z
" style="fill:#c44e52;opacity:0.75;stroke:#ffffff;stroke-linejoin:miter;"/>
   </g>
   <g id="patch_9">
    <path clip-path="url(#p0aac53b2e3)" d="M 261.928961 533.585455 
L 271.740812 533.585455 
L 271.740812 493.951825 
L 261.928961 493.951825 
z
" style="fill:#c44e52;opacity:0.75;stroke:#ffffff;stroke-linejoin:miter;"/>
   </g>
   <g id="patch_10">
    <path clip-path="url(#p0aac53b2e3)" d="M 271.740812 533.585455 
L 281.552664 533.585455 
L 281.552664 488.289878 
L 271.740812 488.289878 
z
" style="fill:#c44e52;opacity:0.75;stroke:#ffffff;stroke-linejoin:miter;"/>
   </g>
   <g id="patch_11">
    <path clip-path="url(#p0aac53b2e3)" d="M 281.552664 533.585455 
L 291.364516 533.585455 
L 291.364516 470.171647 
L 281.552664 470.171647 
z
" style="fill:#c44e52;opacity:0.75;stroke:#ffffff;stroke-linejoin:miter;"/>
   </g>
   <g id="patch_12">
    <path clip-path="url(#p0aac53b2e3)" d="M 291.364516 533.585455 
L 301.176367 533.585455 
L 301.176367 458.847753 
L 291.364516 458.847753 
z
" style="fill:#c44e52;opacity:0.75;stroke:#ffffff;stroke-linejoin:miter;"/>
   </g>
   <g id="patch_13">
    <path clip-path="url(#p0aac53b2e3)" d="M 301.176367 533.585455 
L 310.988219 533.585455 
L 310.988219 436.76616 
L 301.176367 436.76616 
z
" style="fill:#c44e52;opacity:0.75;stroke:#ffffff;stroke-linejoin:miter;"/>
   </g>
   <g id="patch_14">
    <path clip-path="url(#p0aac53b2e3)" d="M 310.988219 533.585455 
L 320.80007 533.585455 
L 320.80007 429.405628 
L 310.988219 429.405628 
z
" style="fill:#c44e52;opacity:0.75;stroke:#ffffff;stroke-linejoin:miter;"/>
   </g>
   <g id="patch_15">
    <path clip-path="url(#p0aac53b2e3)" d="M 320.80007 533.585455 
L 330.611922 533.585455 
L 330.611922 413.552177 
L 320.80007 413.552177 
z
" style="fill:#c44e52;opacity:0.75;stroke:#ffffff;stroke-linejoin:miter;"/>
   </g>
   <g id="patch_16">
    <path clip-path="url(#p0aac53b2e3)" d="M 330.611922 533.585455 
L 340.423774 533.585455 
L 340.423774 389.205804 
L 330.611922 389.205804 
z
" style="fill:#c44e52;opacity:0.75;stroke:#ffffff;stroke-linejoin:miter;"/>
   </g>
   <g id="patch_17">
    <path clip-path="url(#p0aac53b2e3)" d="M 340.423774 533.585455 
L 350.235625 533.585455 
L 350.235625 369.388989 
L 340.423774 369.388989 
z
" style="fill:#c44e52;opacity:0.75;stroke:#ffffff;stroke-linejoin:miter;"/>
   </g>
   <g id="patch_18">
    <path clip-path="url(#p0aac53b2e3)" d="M 350.235625 533.585455 
L 360.047477 533.585455 
L 360.047477 363.160848 
L 350.235625 363.160848 
z
" style="fill:#c44e52;opacity:0.75;stroke:#ffffff;stroke-linejoin:miter;"/>
   </g>
   <g id="patch_19">
    <path clip-path="url(#p0aac53b2e3)" d="M 360.047477 533.585455 
L 369.859328 533.585455 
L 369.859328 333.718723 
L 360.047477 333.718723 
z
" style="fill:#c44e52;opacity:0.75;stroke:#ffffff;stroke-linejoin:miter;"/>
   </g>
   <g id="patch_20">
    <path clip-path="url(#p0aac53b2e3)" d="M 369.859328 533.585455 
L 379.67118 533.585455 
L 379.67118 302.011819 
L 369.859328 302.011819 
z
" style="fill:#c44e52;opacity:0.75;stroke:#ffffff;stroke-linejoin:miter;"/>
   </g>
   <g id="patch_21">
    <path clip-path="url(#p0aac53b2e3)" d="M 379.67118 533.585455 
L 389.483031 533.585455 
L 389.483031 286.158367 
L 379.67118 286.158367 
z
" style="fill:#c44e52;opacity:0.75;stroke:#ffffff;stroke-linejoin:miter;"/>
   </g>
   <g id="patch_22">
    <path clip-path="url(#p0aac53b2e3)" d="M 389.483031 533.585455 
L 399.294883 533.585455 
L 399.294883 270.87111 
L 389.483031 270.87111 
z
" style="fill:#c44e52;opacity:0.75;stroke:#ffffff;stroke-linejoin:miter;"/>
   </g>
   <g id="patch_23">
    <path clip-path="url(#p0aac53b2e3)" d="M 399.294883 533.585455 
L 409.106735 533.585455 
L 409.106735 265.775358 
L 399.294883 265.775358 
z
" style="fill:#c44e52;opacity:0.75;stroke:#ffffff;stroke-linejoin:miter;"/>
   </g>
   <g id="patch_24">
    <path clip-path="url(#p0aac53b2e3)" d="M 409.106735 533.585455 
L 418.918586 533.585455 
L 418.918586 264.642968 
L 409.106735 264.642968 
z
" style="fill:#c44e52;opacity:0.75;stroke:#ffffff;stroke-linejoin:miter;"/>
   </g>
   <g id="patch_25">
    <path clip-path="url(#p0aac53b2e3)" d="M 418.918586 533.585455 
L 428.730438 533.585455 
L 428.730438 273.702084 
L 418.918586 273.702084 
z
" style="fill:#c44e52;opacity:0.75;stroke:#ffffff;stroke-linejoin:miter;"/>
   </g>
   <g id="patch_26">
    <path clip-path="url(#p0aac53b2e3)" d="M 428.730438 533.585455 
L 438.542289 533.585455 
L 438.542289 247.090933 
L 428.730438 247.090933 
z
" style="fill:#c44e52;opacity:0.75;stroke:#ffffff;stroke-linejoin:miter;"/>
   </g>
   <g id="patch_27">
    <path clip-path="url(#p0aac53b2e3)" d="M 438.542289 533.585455 
L 448.354141 533.585455 
L 448.354141 258.414827 
L 438.542289 258.414827 
z
" style="fill:#c44e52;opacity:0.75;stroke:#ffffff;stroke-linejoin:miter;"/>
   </g>
   <g id="patch_28">
    <path clip-path="url(#p0aac53b2e3)" d="M 448.354141 533.585455 
L 458.165993 533.585455 
L 458.165993 267.473942 
L 448.354141 267.473942 
z
" style="fill:#c44e52;opacity:0.75;stroke:#ffffff;stroke-linejoin:miter;"/>
   </g>
   <g id="patch_29">
    <path clip-path="url(#p0aac53b2e3)" d="M 458.165993 533.585455 
L 467.977844 533.585455 
L 467.977844 296.916067 
L 458.165993 296.916067 
z
" style="fill:#c44e52;opacity:0.75;stroke:#ffffff;stroke-linejoin:miter;"/>
   </g>
   <g id="patch_30">
    <path clip-path="url(#p0aac53b2e3)" d="M 467.977844 533.585455 
L 477.789696 533.585455 
L 477.789696 297.482261 
L 467.977844 297.482261 
z
" style="fill:#c44e52;opacity:0.75;stroke:#ffffff;stroke-linejoin:miter;"/>
   </g>
   <g id="patch_31">
    <path clip-path="url(#p0aac53b2e3)" d="M 477.789696 533.585455 
L 487.601547 533.585455 
L 487.601547 322.394829 
L 477.789696 322.394829 
z
" style="fill:#c44e52;opacity:0.75;stroke:#ffffff;stroke-linejoin:miter;"/>
   </g>
   <g id="patch_32">
    <path clip-path="url(#p0aac53b2e3)" d="M 487.601547 533.585455 
L 497.413399 533.585455 
L 497.413399 340.513059 
L 487.601547 340.513059 
z
" style="fill:#c44e52;opacity:0.75;stroke:#ffffff;stroke-linejoin:miter;"/>
   </g>
   <g id="patch_33">
    <path clip-path="url(#p0aac53b2e3)" d="M 497.413399 533.585455 
L 507.225251 533.585455 
L 507.225251 353.535538 
L 497.413399 353.535538 
z
" style="fill:#c44e52;opacity:0.75;stroke:#ffffff;stroke-linejoin:miter;"/>
   </g>
   <g id="patch_34">
    <path clip-path="url(#p0aac53b2e3)" d="M 507.225251 533.585455 
L 517.037102 533.585455 
L 517.037102 366.558016 
L 507.225251 366.558016 
z
" style="fill:#c44e52;opacity:0.75;stroke:#ffffff;stroke-linejoin:miter;"/>
   </g>
   <g id="patch_35">
    <path clip-path="url(#p0aac53b2e3)" d="M 517.037102 533.585455 
L 526.848954 533.585455 
L 526.848954 367.124211 
L 517.037102 367.124211 
z
" style="fill:#c44e52;opacity:0.75;stroke:#ffffff;stroke-linejoin:miter;"/>
   </g>
   <g id="patch_36">
    <path clip-path="url(#p0aac53b2e3)" d="M 526.848954 533.585455 
L 536.660805 533.585455 
L 536.660805 405.059256 
L 526.848954 405.059256 
z
" style="fill:#c44e52;opacity:0.75;stroke:#ffffff;stroke-linejoin:miter;"/>
   </g>
   <g id="patch_37">
    <path clip-path="url(#p0aac53b2e3)" d="M 536.660805 533.585455 
L 546.472657 533.585455 
L 546.472657 419.214124 
L 536.660805 419.214124 
z
" style="fill:#c44e52;opacity:0.75;stroke:#ffffff;stroke-linejoin:miter;"/>
   </g>
   <g id="patch_38">
    <path clip-path="url(#p0aac53b2e3)" d="M 546.472657 533.585455 
L 556.284509 533.585455 
L 556.284509 440.729523 
L 546.472657 440.729523 
z
" style="fill:#c44e52;opacity:0.75;stroke:#ffffff;stroke-linejoin:miter;"/>
   </g>
   <g id="patch_39">
    <path clip-path="url(#p0aac53b2e3)" d="M 556.284509 533.585455 
L 566.09636 533.585455 
L 566.09636 463.943506 
L 556.284509 463.943506 
z
" style="fill:#c44e52;opacity:0.75;stroke:#ffffff;stroke-linejoin:miter;"/>
   </g>
   <g id="patch_40">
    <path clip-path="url(#p0aac53b2e3)" d="M 566.09636 533.585455 
L 575.908212 533.585455 
L 575.908212 465.64209 
L 566.09636 465.64209 
z
" style="fill:#c44e52;opacity:0.75;stroke:#ffffff;stroke-linejoin:miter;"/>
   </g>
   <g id="patch_41">
    <path clip-path="url(#p0aac53b2e3)" d="M 575.908212 533.585455 
L 585.720063 533.585455 
L 585.720063 487.723683 
L 575.908212 487.723683 
z
" style="fill:#c44e52;opacity:0.75;stroke:#ffffff;stroke-linejoin:miter;"/>
   </g>
   <g id="patch_42">
    <path clip-path="url(#p0aac53b2e3)" d="M 585.720063 533.585455 
L 595.531915 533.585455 
L 595.531915 499.047577 
L 585.720063 499.047577 
z
" style="fill:#c44e52;opacity:0.75;stroke:#ffffff;stroke-linejoin:miter;"/>
   </g>
   <g id="patch_43">
    <path clip-path="url(#p0aac53b2e3)" d="M 595.531915 533.585455 
L 605.343766 533.585455 
L 605.343766 506.974303 
L 595.531915 506.974303 
z
" style="fill:#c44e52;opacity:0.75;stroke:#ffffff;stroke-linejoin:miter;"/>
   </g>
   <g id="patch_44">
    <path clip-path="url(#p0aac53b2e3)" d="M 605.343766 533.585455 
L 615.155618 533.585455 
L 615.155618 518.298197 
L 605.343766 518.298197 
z
" style="fill:#c44e52;opacity:0.75;stroke:#ffffff;stroke-linejoin:miter;"/>
   </g>
   <g id="patch_45">
    <path clip-path="url(#p0aac53b2e3)" d="M 615.155618 533.585455 
L 624.96747 533.585455 
L 624.96747 522.26156 
L 615.155618 522.26156 
z
" style="fill:#c44e52;opacity:0.75;stroke:#ffffff;stroke-linejoin:miter;"/>
   </g>
   <g id="patch_46">
    <path clip-path="url(#p0aac53b2e3)" d="M 624.96747 533.585455 
L 634.779321 533.585455 
L 634.779321 530.754481 
L 624.96747 530.754481 
z
" style="fill:#c44e52;opacity:0.75;stroke:#ffffff;stroke-linejoin:miter;"/>
   </g>
   <g id="patch_47">
    <path clip-path="url(#p0aac53b2e3)" d="M 634.779321 533.585455 
L 644.591173 533.585455 
L 644.591173 526.224923 
L 634.779321 526.224923 
z
" style="fill:#c44e52;opacity:0.75;stroke:#ffffff;stroke-linejoin:miter;"/>
   </g>
   <g id="patch_48">
    <path clip-path="url(#p0aac53b2e3)" d="M 644.591173 533.585455 
L 654.403024 533.585455 
L 654.403024 531.88687 
L 644.591173 531.88687 
z
" style="fill:#c44e52;opacity:0.75;stroke:#ffffff;stroke-linejoin:miter;"/>
   </g>
   <g id="patch_49">
    <path clip-path="url(#p0aac53b2e3)" d="M 654.403024 533.585455 
L 664.214876 533.585455 
L 664.214876 532.453065 
L 654.403024 532.453065 
z
" style="fill:#c44e52;opacity:0.75;stroke:#ffffff;stroke-linejoin:miter;"/>
   </g>
   <g id="patch_50">
    <path d="M 180 533.585455 
L 180 138.24 
" style="fill:none;stroke:#cccccc;stroke-linecap:square;stroke-linejoin:miter;stroke-width:1.25;"/>
   </g>
   <g id="patch_51">
    <path d="M 687.272727 533.585455 
L 687.272727 138.24 
" style="fill:none;stroke:#cccccc;stroke-linecap:square;stroke-linejoin:miter;stroke-width:1.25;"/>
   </g>
   <g id="patch_52">
    <path d="M 180 533.585455 
L 687.272727 533.585455 
" style="fill:none;stroke:#cccccc;stroke-linecap:square;stroke-linejoin:miter;stroke-width:1.25;"/>
   </g>
   <g id="patch_53">
    <path d="M 180 138.24 
L 687.272727 138.24 
" style="fill:none;stroke:#cccccc;stroke-linecap:square;stroke-linejoin:miter;stroke-width:1.25;"/>
   </g>
  </g>
  <g id="axes_2">
   <g id="patch_54">
    <path d="M 788.727273 533.585455 
L 1296 533.585455 
L 1296 138.24 
L 788.727273 138.24 
z
" style="fill:#ffffff;"/>
   </g>
   <g id="matplotlib.axis_3">
    <g id="xtick_10">
     <g id="line2d_17">
      <path clip-path="url(#p11e64a20d8)" d="M 802.566516 533.585455 
L 802.566516 138.24 
" style="fill:none;stroke:#cccccc;stroke-linecap:round;"/>
     </g>
     <g id="text_18">
      <!-- −0.06 -->
      <g style="fill:#262626;" transform="translate(780.655117 553.95122)scale(0.143 -0.143)">
       <use xlink:href="#DejaVuSans-8722"/>
       <use x="83.789062" xlink:href="#DejaVuSans-48"/>
       <use x="147.412109" xlink:href="#DejaVuSans-46"/>
       <use x="179.199219" xlink:href="#DejaVuSans-48"/>
       <use x="242.822266" xlink:href="#DejaVuSans-54"/>
      </g>
     </g>
    </g>
    <g id="xtick_11">
     <g id="line2d_18">
      <path clip-path="url(#p11e64a20d8)" d="M 882.006177 533.585455 
L 882.006177 138.24 
" style="fill:none;stroke:#cccccc;stroke-linecap:round;"/>
     </g>
     <g id="text_19">
      <!-- −0.04 -->
      <g style="fill:#262626;" transform="translate(860.094778 553.95122)scale(0.143 -0.143)">
       <use xlink:href="#DejaVuSans-8722"/>
       <use x="83.789062" xlink:href="#DejaVuSans-48"/>
       <use x="147.412109" xlink:href="#DejaVuSans-46"/>
       <use x="179.199219" xlink:href="#DejaVuSans-48"/>
       <use x="242.822266" xlink:href="#DejaVuSans-52"/>
      </g>
     </g>
    </g>
    <g id="xtick_12">
     <g id="line2d_19">
      <path clip-path="url(#p11e64a20d8)" d="M 961.445838 533.585455 
L 961.445838 138.24 
" style="fill:none;stroke:#cccccc;stroke-linecap:round;"/>
     </g>
     <g id="text_20">
      <!-- −0.02 -->
      <g style="fill:#262626;" transform="translate(939.534439 553.95122)scale(0.143 -0.143)">
       <use xlink:href="#DejaVuSans-8722"/>
       <use x="83.789062" xlink:href="#DejaVuSans-48"/>
       <use x="147.412109" xlink:href="#DejaVuSans-46"/>
       <use x="179.199219" xlink:href="#DejaVuSans-48"/>
       <use x="242.822266" xlink:href="#DejaVuSans-50"/>
      </g>
     </g>
    </g>
    <g id="xtick_13">
     <g id="line2d_20">
      <path clip-path="url(#p11e64a20d8)" d="M 1040.885499 533.585455 
L 1040.885499 138.24 
" style="fill:none;stroke:#cccccc;stroke-linecap:round;"/>
     </g>
     <g id="text_21">
      <!-- 0.00 -->
      <g style="fill:#262626;" transform="translate(1024.965577 553.95122)scale(0.143 -0.143)">
       <use xlink:href="#DejaVuSans-48"/>
       <use x="63.623047" xlink:href="#DejaVuSans-46"/>
       <use x="95.410156" xlink:href="#DejaVuSans-48"/>
       <use x="159.033203" xlink:href="#DejaVuSans-48"/>
      </g>
     </g>
    </g>
    <g id="xtick_14">
     <g id="line2d_21">
      <path clip-path="url(#p11e64a20d8)" d="M 1120.32516 533.585455 
L 1120.32516 138.24 
" style="fill:none;stroke:#cccccc;stroke-linecap:round;"/>
     </g>
     <g id="text_22">
      <!-- 0.02 -->
      <g style="fill:#262626;" transform="translate(1104.405238 553.95122)scale(0.143 -0.143)">
       <use xlink:href="#DejaVuSans-48"/>
       <use x="63.623047" xlink:href="#DejaVuSans-46"/>
       <use x="95.410156" xlink:href="#DejaVuSans-48"/>
       <use x="159.033203" xlink:href="#DejaVuSans-50"/>
      </g>
     </g>
    </g>
    <g id="xtick_15">
     <g id="line2d_22">
      <path clip-path="url(#p11e64a20d8)" d="M 1199.764821 533.585455 
L 1199.764821 138.24 
" style="fill:none;stroke:#cccccc;stroke-linecap:round;"/>
     </g>
     <g id="text_23">
      <!-- 0.04 -->
      <g style="fill:#262626;" transform="translate(1183.844899 553.95122)scale(0.143 -0.143)">
       <use xlink:href="#DejaVuSans-48"/>
       <use x="63.623047" xlink:href="#DejaVuSans-46"/>
       <use x="95.410156" xlink:href="#DejaVuSans-48"/>
       <use x="159.033203" xlink:href="#DejaVuSans-52"/>
      </g>
     </g>
    </g>
    <g id="xtick_16">
     <g id="line2d_23">
      <path clip-path="url(#p11e64a20d8)" d="M 1279.204482 533.585455 
L 1279.204482 138.24 
" style="fill:none;stroke:#cccccc;stroke-linecap:round;"/>
     </g>
     <g id="text_24">
      <!-- 0.06 -->
      <g style="fill:#262626;" transform="translate(1263.28456 553.95122)scale(0.143 -0.143)">
       <use xlink:href="#DejaVuSans-48"/>
       <use x="63.623047" xlink:href="#DejaVuSans-46"/>
       <use x="95.410156" xlink:href="#DejaVuSans-48"/>
       <use x="159.033203" xlink:href="#DejaVuSans-54"/>
      </g>
     </g>
    </g>
    <g id="text_25">
     <!-- Caudate -->
     <defs>
      <path d="M 64.40625 67.28125 
L 64.40625 56.890625 
Q 59.421875 61.53125 53.78125 63.8125 
Q 48.140625 66.109375 41.796875 66.109375 
Q 29.296875 66.109375 22.65625 58.46875 
Q 16.015625 50.828125 16.015625 36.375 
Q 16.015625 21.96875 22.65625 14.328125 
Q 29.296875 6.6875 41.796875 6.6875 
Q 48.140625 6.6875 53.78125 8.984375 
Q 59.421875 11.28125 64.40625 15.921875 
L 64.40625 5.609375 
Q 59.234375 2.09375 53.4375 0.328125 
Q 47.65625 -1.421875 41.21875 -1.421875 
Q 24.65625 -1.421875 15.125 8.703125 
Q 5.609375 18.84375 5.609375 36.375 
Q 5.609375 53.953125 15.125 64.078125 
Q 24.65625 74.21875 41.21875 74.21875 
Q 47.75 74.21875 53.53125 72.484375 
Q 59.328125 70.75 64.40625 67.28125 
z
" id="DejaVuSans-67"/>
      <path d="M 34.28125 27.484375 
Q 23.390625 27.484375 19.1875 25 
Q 14.984375 22.515625 14.984375 16.5 
Q 14.984375 11.71875 18.140625 8.90625 
Q 21.296875 6.109375 26.703125 6.109375 
Q 34.1875 6.109375 38.703125 11.40625 
Q 43.21875 16.703125 43.21875 25.484375 
L 43.21875 27.484375 
z
M 52.203125 31.203125 
L 52.203125 0 
L 43.21875 0 
L 43.21875 8.296875 
Q 40.140625 3.328125 35.546875 0.953125 
Q 30.953125 -1.421875 24.3125 -1.421875 
Q 15.921875 -1.421875 10.953125 3.296875 
Q 6 8.015625 6 15.921875 
Q 6 25.140625 12.171875 29.828125 
Q 18.359375 34.515625 30.609375 34.515625 
L 43.21875 34.515625 
L 43.21875 35.40625 
Q 43.21875 41.609375 39.140625 45 
Q 35.0625 48.390625 27.6875 48.390625 
Q 23 48.390625 18.546875 47.265625 
Q 14.109375 46.140625 10.015625 43.890625 
L 10.015625 52.203125 
Q 14.9375 54.109375 19.578125 55.046875 
Q 24.21875 56 28.609375 56 
Q 40.484375 56 46.34375 49.84375 
Q 52.203125 43.703125 52.203125 31.203125 
z
" id="DejaVuSans-97"/>
      <path d="M 45.40625 46.390625 
L 45.40625 75.984375 
L 54.390625 75.984375 
L 54.390625 0 
L 45.40625 0 
L 45.40625 8.203125 
Q 42.578125 3.328125 38.25 0.953125 
Q 33.9375 -1.421875 27.875 -1.421875 
Q 17.96875 -1.421875 11.734375 6.484375 
Q 5.515625 14.40625 5.515625 27.296875 
Q 5.515625 40.1875 11.734375 48.09375 
Q 17.96875 56 27.875 56 
Q 33.9375 56 38.25 53.625 
Q 42.578125 51.265625 45.40625 46.390625 
z
M 14.796875 27.296875 
Q 14.796875 17.390625 18.875 11.75 
Q 22.953125 6.109375 30.078125 6.109375 
Q 37.203125 6.109375 41.296875 11.75 
Q 45.40625 17.390625 45.40625 27.296875 
Q 45.40625 37.203125 41.296875 42.84375 
Q 37.203125 48.484375 30.078125 48.484375 
Q 22.953125 48.484375 18.875 42.84375 
Q 14.796875 37.203125 14.796875 27.296875 
z
" id="DejaVuSans-100"/>
      <path d="M 18.3125 70.21875 
L 18.3125 54.6875 
L 36.8125 54.6875 
L 36.8125 47.703125 
L 18.3125 47.703125 
L 18.3125 18.015625 
Q 18.3125 11.328125 20.140625 9.421875 
Q 21.96875 7.515625 27.59375 7.515625 
L 36.8125 7.515625 
L 36.8125 0 
L 27.59375 0 
Q 17.1875 0 13.234375 3.875 
Q 9.28125 7.765625 9.28125 18.015625 
L 9.28125 47.703125 
L 2.6875 47.703125 
L 2.6875 54.6875 
L 9.28125 54.6875 
L 9.28125 70.21875 
z
" id="DejaVuSans-116"/>
     </defs>
     <g style="fill:#262626;" transform="translate(1009.604855 572.778736)scale(0.156 -0.156)">
      <use xlink:href="#DejaVuSans-67"/>
      <use x="69.824219" xlink:href="#DejaVuSans-97"/>
      <use x="131.103516" xlink:href="#DejaVuSans-117"/>
      <use x="194.482422" xlink:href="#DejaVuSans-100"/>
      <use x="257.958984" xlink:href="#DejaVuSans-97"/>
      <use x="319.238281" xlink:href="#DejaVuSans-116"/>
      <use x="358.447266" xlink:href="#DejaVuSans-101"/>
     </g>
    </g>
   </g>
   <g id="matplotlib.axis_4">
    <g id="ytick_8">
     <g id="line2d_24">
      <path clip-path="url(#p11e64a20d8)" d="M 788.727273 533.585455 
L 1296 533.585455 
" style="fill:none;stroke:#cccccc;stroke-linecap:round;"/>
     </g>
    </g>
    <g id="ytick_9">
     <g id="line2d_25">
      <path clip-path="url(#p11e64a20d8)" d="M 788.727273 476.965984 
L 1296 476.965984 
" style="fill:none;stroke:#cccccc;stroke-linecap:round;"/>
     </g>
    </g>
    <g id="ytick_10">
     <g id="line2d_26">
      <path clip-path="url(#p11e64a20d8)" d="M 788.727273 420.346513 
L 1296 420.346513 
" style="fill:none;stroke:#cccccc;stroke-linecap:round;"/>
     </g>
    </g>
    <g id="ytick_11">
     <g id="line2d_27">
      <path clip-path="url(#p11e64a20d8)" d="M 788.727273 363.727042 
L 1296 363.727042 
" style="fill:none;stroke:#cccccc;stroke-linecap:round;"/>
     </g>
    </g>
    <g id="ytick_12">
     <g id="line2d_28">
      <path clip-path="url(#p11e64a20d8)" d="M 788.727273 307.107572 
L 1296 307.107572 
" style="fill:none;stroke:#cccccc;stroke-linecap:round;"/>
     </g>
    </g>
    <g id="ytick_13">
     <g id="line2d_29">
      <path clip-path="url(#p11e64a20d8)" d="M 788.727273 250.488101 
L 1296 250.488101 
" style="fill:none;stroke:#cccccc;stroke-linecap:round;"/>
     </g>
    </g>
    <g id="ytick_14">
     <g id="line2d_30">
      <path clip-path="url(#p11e64a20d8)" d="M 788.727273 193.86863 
L 1296 193.86863 
" style="fill:none;stroke:#cccccc;stroke-linecap:round;"/>
     </g>
    </g>
   </g>
   <g id="patch_55">
    <path clip-path="url(#p11e64a20d8)" d="M 811.785124 533.585455 
L 823.31405 533.585455 
L 823.31405 527.923507 
L 811.785124 527.923507 
z
" style="fill:#c44e52;opacity:0.75;stroke:#ffffff;stroke-linejoin:miter;"/>
   </g>
   <g id="patch_56">
    <path clip-path="url(#p11e64a20d8)" d="M 823.31405 533.585455 
L 834.842975 533.585455 
L 834.842975 522.26156 
L 823.31405 522.26156 
z
" style="fill:#c44e52;opacity:0.75;stroke:#ffffff;stroke-linejoin:miter;"/>
   </g>
   <g id="patch_57">
    <path clip-path="url(#p11e64a20d8)" d="M 834.842975 533.585455 
L 846.371901 533.585455 
L 846.371901 503.01094 
L 834.842975 503.01094 
z
" style="fill:#c44e52;opacity:0.75;stroke:#ffffff;stroke-linejoin:miter;"/>
   </g>
   <g id="patch_58">
    <path clip-path="url(#p11e64a20d8)" d="M 846.371901 533.585455 
L 857.900826 533.585455 
L 857.900826 474.13501 
L 846.371901 474.13501 
z
" style="fill:#c44e52;opacity:0.75;stroke:#ffffff;stroke-linejoin:miter;"/>
   </g>
   <g id="patch_59">
    <path clip-path="url(#p11e64a20d8)" d="M 857.900826 533.585455 
L 869.429752 533.585455 
L 869.429752 452.053417 
L 857.900826 452.053417 
z
" style="fill:#c44e52;opacity:0.75;stroke:#ffffff;stroke-linejoin:miter;"/>
   </g>
   <g id="patch_60">
    <path clip-path="url(#p11e64a20d8)" d="M 869.429752 533.585455 
L 880.958678 533.585455 
L 880.958678 417.515539 
L 869.429752 417.515539 
z
" style="fill:#c44e52;opacity:0.75;stroke:#ffffff;stroke-linejoin:miter;"/>
   </g>
   <g id="patch_61">
    <path clip-path="url(#p11e64a20d8)" d="M 880.958678 533.585455 
L 892.487603 533.585455 
L 892.487603 416.949345 
L 880.958678 416.949345 
z
" style="fill:#c44e52;opacity:0.75;stroke:#ffffff;stroke-linejoin:miter;"/>
   </g>
   <g id="patch_62">
    <path clip-path="url(#p11e64a20d8)" d="M 892.487603 533.585455 
L 904.016529 533.585455 
L 904.016529 418.081734 
L 892.487603 418.081734 
z
" style="fill:#c44e52;opacity:0.75;stroke:#ffffff;stroke-linejoin:miter;"/>
   </g>
   <g id="patch_63">
    <path clip-path="url(#p11e64a20d8)" d="M 904.016529 533.585455 
L 915.545455 533.585455 
L 915.545455 399.397309 
L 904.016529 399.397309 
z
" style="fill:#c44e52;opacity:0.75;stroke:#ffffff;stroke-linejoin:miter;"/>
   </g>
   <g id="patch_64">
    <path clip-path="url(#p11e64a20d8)" d="M 915.545455 533.585455 
L 927.07438 533.585455 
L 927.07438 388.639609 
L 915.545455 388.639609 
z
" style="fill:#c44e52;opacity:0.75;stroke:#ffffff;stroke-linejoin:miter;"/>
   </g>
   <g id="patch_65">
    <path clip-path="url(#p11e64a20d8)" d="M 927.07438 533.585455 
L 938.603306 533.585455 
L 938.603306 428.273239 
L 927.07438 428.273239 
z
" style="fill:#c44e52;opacity:0.75;stroke:#ffffff;stroke-linejoin:miter;"/>
   </g>
   <g id="patch_66">
    <path clip-path="url(#p11e64a20d8)" d="M 938.603306 533.585455 
L 950.132231 533.585455 
L 950.132231 404.493061 
L 938.603306 404.493061 
z
" style="fill:#c44e52;opacity:0.75;stroke:#ffffff;stroke-linejoin:miter;"/>
   </g>
   <g id="patch_67">
    <path clip-path="url(#p11e64a20d8)" d="M 950.132231 533.585455 
L 961.661157 533.585455 
L 961.661157 340.513059 
L 950.132231 340.513059 
z
" style="fill:#c44e52;opacity:0.75;stroke:#ffffff;stroke-linejoin:miter;"/>
   </g>
   <g id="patch_68">
    <path clip-path="url(#p11e64a20d8)" d="M 961.661157 533.585455 
L 973.190083 533.585455 
L 973.190083 373.918547 
L 961.661157 373.918547 
z
" style="fill:#c44e52;opacity:0.75;stroke:#ffffff;stroke-linejoin:miter;"/>
   </g>
   <g id="patch_69">
    <path clip-path="url(#p11e64a20d8)" d="M 973.190083 533.585455 
L 984.719008 533.585455 
L 984.719008 327.490581 
L 973.190083 327.490581 
z
" style="fill:#c44e52;opacity:0.75;stroke:#ffffff;stroke-linejoin:miter;"/>
   </g>
   <g id="patch_70">
    <path clip-path="url(#p11e64a20d8)" d="M 984.719008 533.585455 
L 996.247934 533.585455 
L 996.247934 256.716243 
L 984.719008 256.716243 
z
" style="fill:#c44e52;opacity:0.75;stroke:#ffffff;stroke-linejoin:miter;"/>
   </g>
   <g id="patch_71">
    <path clip-path="url(#p11e64a20d8)" d="M 996.247934 533.585455 
L 1007.77686 533.585455 
L 1007.77686 238.031817 
L 996.247934 238.031817 
z
" style="fill:#c44e52;opacity:0.75;stroke:#ffffff;stroke-linejoin:miter;"/>
   </g>
   <g id="patch_72">
    <path clip-path="url(#p11e64a20d8)" d="M 1007.77686 533.585455 
L 1019.305785 533.585455 
L 1019.305785 221.612171 
L 1007.77686 221.612171 
z
" style="fill:#c44e52;opacity:0.75;stroke:#ffffff;stroke-linejoin:miter;"/>
   </g>
   <g id="patch_73">
    <path clip-path="url(#p11e64a20d8)" d="M 1019.305785 533.585455 
L 1030.834711 533.585455 
L 1030.834711 283.327394 
L 1019.305785 283.327394 
z
" style="fill:#c44e52;opacity:0.75;stroke:#ffffff;stroke-linejoin:miter;"/>
   </g>
   <g id="patch_74">
    <path clip-path="url(#p11e64a20d8)" d="M 1030.834711 533.585455 
L 1042.363636 533.585455 
L 1042.363636 288.989341 
L 1030.834711 288.989341 
z
" style="fill:#c44e52;opacity:0.75;stroke:#ffffff;stroke-linejoin:miter;"/>
   </g>
   <g id="patch_75">
    <path clip-path="url(#p11e64a20d8)" d="M 1042.363636 533.585455 
L 1053.892562 533.585455 
L 1053.892562 247.090933 
L 1042.363636 247.090933 
z
" style="fill:#c44e52;opacity:0.75;stroke:#ffffff;stroke-linejoin:miter;"/>
   </g>
   <g id="patch_76">
    <path clip-path="url(#p11e64a20d8)" d="M 1053.892562 533.585455 
L 1065.421488 533.585455 
L 1065.421488 218.781197 
L 1053.892562 218.781197 
z
" style="fill:#c44e52;opacity:0.75;stroke:#ffffff;stroke-linejoin:miter;"/>
   </g>
   <g id="patch_77">
    <path clip-path="url(#p11e64a20d8)" d="M 1065.421488 533.585455 
L 1076.950413 533.585455 
L 1076.950413 227.274118 
L 1065.421488 227.274118 
z
" style="fill:#c44e52;opacity:0.75;stroke:#ffffff;stroke-linejoin:miter;"/>
   </g>
   <g id="patch_78">
    <path clip-path="url(#p11e64a20d8)" d="M 1076.950413 533.585455 
L 1088.479339 533.585455 
L 1088.479339 341.079254 
L 1076.950413 341.079254 
z
" style="fill:#c44e52;opacity:0.75;stroke:#ffffff;stroke-linejoin:miter;"/>
   </g>
   <g id="patch_79">
    <path clip-path="url(#p11e64a20d8)" d="M 1088.479339 533.585455 
L 1100.008264 533.585455 
L 1100.008264 356.932706 
L 1088.479339 356.932706 
z
" style="fill:#c44e52;opacity:0.75;stroke:#ffffff;stroke-linejoin:miter;"/>
   </g>
   <g id="patch_80">
    <path clip-path="url(#p11e64a20d8)" d="M 1100.008264 533.585455 
L 1111.53719 533.585455 
L 1111.53719 338.814475 
L 1100.008264 338.814475 
z
" style="fill:#c44e52;opacity:0.75;stroke:#ffffff;stroke-linejoin:miter;"/>
   </g>
   <g id="patch_81">
    <path clip-path="url(#p11e64a20d8)" d="M 1111.53719 533.585455 
L 1123.066116 533.585455 
L 1123.066116 332.020139 
L 1111.53719 332.020139 
z
" style="fill:#c44e52;opacity:0.75;stroke:#ffffff;stroke-linejoin:miter;"/>
   </g>
   <g id="patch_82">
    <path clip-path="url(#p11e64a20d8)" d="M 1123.066116 533.585455 
L 1134.595041 533.585455 
L 1134.595041 354.101732 
L 1123.066116 354.101732 
z
" style="fill:#c44e52;opacity:0.75;stroke:#ffffff;stroke-linejoin:miter;"/>
   </g>
   <g id="patch_83">
    <path clip-path="url(#p11e64a20d8)" d="M 1134.595041 533.585455 
L 1146.123967 533.585455 
L 1146.123967 376.749521 
L 1134.595041 376.749521 
z
" style="fill:#c44e52;opacity:0.75;stroke:#ffffff;stroke-linejoin:miter;"/>
   </g>
   <g id="patch_84">
    <path clip-path="url(#p11e64a20d8)" d="M 1146.123967 533.585455 
L 1157.652893 533.585455 
L 1157.652893 398.264919 
L 1146.123967 398.264919 
z
" style="fill:#c44e52;opacity:0.75;stroke:#ffffff;stroke-linejoin:miter;"/>
   </g>
   <g id="patch_85">
    <path clip-path="url(#p11e64a20d8)" d="M 1157.652893 533.585455 
L 1169.181818 533.585455 
L 1169.181818 409.588814 
L 1157.652893 409.588814 
z
" style="fill:#c44e52;opacity:0.75;stroke:#ffffff;stroke-linejoin:miter;"/>
   </g>
   <g id="patch_86">
    <path clip-path="url(#p11e64a20d8)" d="M 1169.181818 533.585455 
L 1180.710744 533.585455 
L 1180.710744 418.647929 
L 1169.181818 418.647929 
z
" style="fill:#c44e52;opacity:0.75;stroke:#ffffff;stroke-linejoin:miter;"/>
   </g>
   <g id="patch_87">
    <path clip-path="url(#p11e64a20d8)" d="M 1180.710744 533.585455 
L 1192.239669 533.585455 
L 1192.239669 448.656248 
L 1180.710744 448.656248 
z
" style="fill:#c44e52;opacity:0.75;stroke:#ffffff;stroke-linejoin:miter;"/>
   </g>
   <g id="patch_88">
    <path clip-path="url(#p11e64a20d8)" d="M 1192.239669 533.585455 
L 1203.768595 533.585455 
L 1203.768595 463.377311 
L 1192.239669 463.377311 
z
" style="fill:#c44e52;opacity:0.75;stroke:#ffffff;stroke-linejoin:miter;"/>
   </g>
   <g id="patch_89">
    <path clip-path="url(#p11e64a20d8)" d="M 1203.768595 533.585455 
L 1215.297521 533.585455 
L 1215.297521 488.856073 
L 1203.768595 488.856073 
z
" style="fill:#c44e52;opacity:0.75;stroke:#ffffff;stroke-linejoin:miter;"/>
   </g>
   <g id="patch_90">
    <path clip-path="url(#p11e64a20d8)" d="M 1215.297521 533.585455 
L 1226.826446 533.585455 
L 1226.826446 496.216604 
L 1215.297521 496.216604 
z
" style="fill:#c44e52;opacity:0.75;stroke:#ffffff;stroke-linejoin:miter;"/>
   </g>
   <g id="patch_91">
    <path clip-path="url(#p11e64a20d8)" d="M 1226.826446 533.585455 
L 1238.355372 533.585455 
L 1238.355372 507.540498 
L 1226.826446 507.540498 
z
" style="fill:#c44e52;opacity:0.75;stroke:#ffffff;stroke-linejoin:miter;"/>
   </g>
   <g id="patch_92">
    <path clip-path="url(#p11e64a20d8)" d="M 1238.355372 533.585455 
L 1249.884298 533.585455 
L 1249.884298 521.129171 
L 1238.355372 521.129171 
z
" style="fill:#c44e52;opacity:0.75;stroke:#ffffff;stroke-linejoin:miter;"/>
   </g>
   <g id="patch_93">
    <path clip-path="url(#p11e64a20d8)" d="M 1249.884298 533.585455 
L 1261.413223 533.585455 
L 1261.413223 523.39395 
L 1249.884298 523.39395 
z
" style="fill:#c44e52;opacity:0.75;stroke:#ffffff;stroke-linejoin:miter;"/>
   </g>
   <g id="patch_94">
    <path clip-path="url(#p11e64a20d8)" d="M 1261.413223 533.585455 
L 1272.942149 533.585455 
L 1272.942149 529.622092 
L 1261.413223 529.622092 
z
" style="fill:#c44e52;opacity:0.75;stroke:#ffffff;stroke-linejoin:miter;"/>
   </g>
   <g id="patch_95">
    <path d="M 788.727273 533.585455 
L 788.727273 138.24 
" style="fill:none;stroke:#cccccc;stroke-linecap:square;stroke-linejoin:miter;stroke-width:1.25;"/>
   </g>
   <g id="patch_96">
    <path d="M 1296 533.585455 
L 1296 138.24 
" style="fill:none;stroke:#cccccc;stroke-linecap:square;stroke-linejoin:miter;stroke-width:1.25;"/>
   </g>
   <g id="patch_97">
    <path d="M 788.727273 533.585455 
L 1296 533.585455 
" style="fill:none;stroke:#cccccc;stroke-linecap:square;stroke-linejoin:miter;stroke-width:1.25;"/>
   </g>
   <g id="patch_98">
    <path d="M 788.727273 138.24 
L 1296 138.24 
" style="fill:none;stroke:#cccccc;stroke-linecap:square;stroke-linejoin:miter;stroke-width:1.25;"/>
   </g>
  </g>
  <g id="axes_3">
   <g id="patch_99">
    <path d="M 180 1008 
L 687.272727 1008 
L 687.272727 612.654545 
L 180 612.654545 
z
" style="fill:#ffffff;"/>
   </g>
   <g id="matplotlib.axis_5">
    <g id="xtick_17">
     <g id="line2d_31">
      <path clip-path="url(#pa86a2da27b)" d="M 235.85248 1008 
L 235.85248 612.654545 
" style="fill:none;stroke:#cccccc;stroke-linecap:round;"/>
     </g>
     <g id="text_26">
      <!-- −0.04 -->
      <g style="fill:#262626;" transform="translate(213.941081 1028.365766)scale(0.143 -0.143)">
       <use xlink:href="#DejaVuSans-8722"/>
       <use x="83.789062" xlink:href="#DejaVuSans-48"/>
       <use x="147.412109" xlink:href="#DejaVuSans-46"/>
       <use x="179.199219" xlink:href="#DejaVuSans-48"/>
       <use x="242.822266" xlink:href="#DejaVuSans-52"/>
      </g>
     </g>
    </g>
    <g id="xtick_18">
     <g id="line2d_32">
      <path clip-path="url(#pa86a2da27b)" d="M 335.41208 1008 
L 335.41208 612.654545 
" style="fill:none;stroke:#cccccc;stroke-linecap:round;"/>
     </g>
     <g id="text_27">
      <!-- −0.02 -->
      <g style="fill:#262626;" transform="translate(313.500681 1028.365766)scale(0.143 -0.143)">
       <use xlink:href="#DejaVuSans-8722"/>
       <use x="83.789062" xlink:href="#DejaVuSans-48"/>
       <use x="147.412109" xlink:href="#DejaVuSans-46"/>
       <use x="179.199219" xlink:href="#DejaVuSans-48"/>
       <use x="242.822266" xlink:href="#DejaVuSans-50"/>
      </g>
     </g>
    </g>
    <g id="xtick_19">
     <g id="line2d_33">
      <path clip-path="url(#pa86a2da27b)" d="M 434.97168 1008 
L 434.97168 612.654545 
" style="fill:none;stroke:#cccccc;stroke-linecap:round;"/>
     </g>
     <g id="text_28">
      <!-- 0.00 -->
      <g style="fill:#262626;" transform="translate(419.051758 1028.365766)scale(0.143 -0.143)">
       <use xlink:href="#DejaVuSans-48"/>
       <use x="63.623047" xlink:href="#DejaVuSans-46"/>
       <use x="95.410156" xlink:href="#DejaVuSans-48"/>
       <use x="159.033203" xlink:href="#DejaVuSans-48"/>
      </g>
     </g>
    </g>
    <g id="xtick_20">
     <g id="line2d_34">
      <path clip-path="url(#pa86a2da27b)" d="M 534.53128 1008 
L 534.53128 612.654545 
" style="fill:none;stroke:#cccccc;stroke-linecap:round;"/>
     </g>
     <g id="text_29">
      <!-- 0.02 -->
      <g style="fill:#262626;" transform="translate(518.611359 1028.365766)scale(0.143 -0.143)">
       <use xlink:href="#DejaVuSans-48"/>
       <use x="63.623047" xlink:href="#DejaVuSans-46"/>
       <use x="95.410156" xlink:href="#DejaVuSans-48"/>
       <use x="159.033203" xlink:href="#DejaVuSans-50"/>
      </g>
     </g>
    </g>
    <g id="xtick_21">
     <g id="line2d_35">
      <path clip-path="url(#pa86a2da27b)" d="M 634.090881 1008 
L 634.090881 612.654545 
" style="fill:none;stroke:#cccccc;stroke-linecap:round;"/>
     </g>
     <g id="text_30">
      <!-- 0.04 -->
      <g style="fill:#262626;" transform="translate(618.170959 1028.365766)scale(0.143 -0.143)">
       <use xlink:href="#DejaVuSans-48"/>
       <use x="63.623047" xlink:href="#DejaVuSans-46"/>
       <use x="95.410156" xlink:href="#DejaVuSans-48"/>
       <use x="159.033203" xlink:href="#DejaVuSans-52"/>
      </g>
     </g>
    </g>
    <g id="text_31">
     <!-- Pallidum -->
     <defs>
      <path d="M 19.671875 64.796875 
L 19.671875 37.40625 
L 32.078125 37.40625 
Q 38.96875 37.40625 42.71875 40.96875 
Q 46.484375 44.53125 46.484375 51.125 
Q 46.484375 57.671875 42.71875 61.234375 
Q 38.96875 64.796875 32.078125 64.796875 
z
M 9.8125 72.90625 
L 32.078125 72.90625 
Q 44.34375 72.90625 50.609375 67.359375 
Q 56.890625 61.8125 56.890625 51.125 
Q 56.890625 40.328125 50.609375 34.8125 
Q 44.34375 29.296875 32.078125 29.296875 
L 19.671875 29.296875 
L 19.671875 0 
L 9.8125 0 
z
" id="DejaVuSans-80"/>
      <path d="M 9.421875 54.6875 
L 18.40625 54.6875 
L 18.40625 0 
L 9.421875 0 
z
M 9.421875 75.984375 
L 18.40625 75.984375 
L 18.40625 64.59375 
L 9.421875 64.59375 
z
" id="DejaVuSans-105"/>
     </defs>
     <g style="fill:#262626;" transform="translate(400.164614 1047.193281)scale(0.156 -0.156)">
      <use xlink:href="#DejaVuSans-80"/>
      <use x="60.240234" xlink:href="#DejaVuSans-97"/>
      <use x="121.519531" xlink:href="#DejaVuSans-108"/>
      <use x="149.302734" xlink:href="#DejaVuSans-108"/>
      <use x="177.085938" xlink:href="#DejaVuSans-105"/>
      <use x="204.869141" xlink:href="#DejaVuSans-100"/>
      <use x="268.345703" xlink:href="#DejaVuSans-117"/>
      <use x="331.724609" xlink:href="#DejaVuSans-109"/>
     </g>
    </g>
   </g>
   <g id="matplotlib.axis_6">
    <g id="ytick_15">
     <g id="line2d_36">
      <path clip-path="url(#pa86a2da27b)" d="M 180 1008 
L 687.272727 1008 
" style="fill:none;stroke:#cccccc;stroke-linecap:round;"/>
     </g>
     <g id="text_32">
      <!-- 0 -->
      <g style="fill:#262626;" transform="translate(161.401625 1013.432883)scale(0.143 -0.143)">
       <use xlink:href="#DejaVuSans-48"/>
      </g>
     </g>
    </g>
    <g id="ytick_16">
     <g id="line2d_37">
      <path clip-path="url(#pa86a2da27b)" d="M 180 951.380529 
L 687.272727 951.380529 
" style="fill:none;stroke:#cccccc;stroke-linecap:round;"/>
     </g>
     <g id="text_33">
      <!-- 100 -->
      <g style="fill:#262626;" transform="translate(143.204875 956.813412)scale(0.143 -0.143)">
       <use xlink:href="#DejaVuSans-49"/>
       <use x="63.623047" xlink:href="#DejaVuSans-48"/>
       <use x="127.246094" xlink:href="#DejaVuSans-48"/>
      </g>
     </g>
    </g>
    <g id="ytick_17">
     <g id="line2d_38">
      <path clip-path="url(#pa86a2da27b)" d="M 180 894.761058 
L 687.272727 894.761058 
" style="fill:none;stroke:#cccccc;stroke-linecap:round;"/>
     </g>
     <g id="text_34">
      <!-- 200 -->
      <g style="fill:#262626;" transform="translate(143.204875 900.193941)scale(0.143 -0.143)">
       <use xlink:href="#DejaVuSans-50"/>
       <use x="63.623047" xlink:href="#DejaVuSans-48"/>
       <use x="127.246094" xlink:href="#DejaVuSans-48"/>
      </g>
     </g>
    </g>
    <g id="ytick_18">
     <g id="line2d_39">
      <path clip-path="url(#pa86a2da27b)" d="M 180 838.141588 
L 687.272727 838.141588 
" style="fill:none;stroke:#cccccc;stroke-linecap:round;"/>
     </g>
     <g id="text_35">
      <!-- 300 -->
      <g style="fill:#262626;" transform="translate(143.204875 843.574471)scale(0.143 -0.143)">
       <use xlink:href="#DejaVuSans-51"/>
       <use x="63.623047" xlink:href="#DejaVuSans-48"/>
       <use x="127.246094" xlink:href="#DejaVuSans-48"/>
      </g>
     </g>
    </g>
    <g id="ytick_19">
     <g id="line2d_40">
      <path clip-path="url(#pa86a2da27b)" d="M 180 781.522117 
L 687.272727 781.522117 
" style="fill:none;stroke:#cccccc;stroke-linecap:round;"/>
     </g>
     <g id="text_36">
      <!-- 400 -->
      <g style="fill:#262626;" transform="translate(143.204875 786.955)scale(0.143 -0.143)">
       <use xlink:href="#DejaVuSans-52"/>
       <use x="63.623047" xlink:href="#DejaVuSans-48"/>
       <use x="127.246094" xlink:href="#DejaVuSans-48"/>
      </g>
     </g>
    </g>
    <g id="ytick_20">
     <g id="line2d_41">
      <path clip-path="url(#pa86a2da27b)" d="M 180 724.902646 
L 687.272727 724.902646 
" style="fill:none;stroke:#cccccc;stroke-linecap:round;"/>
     </g>
     <g id="text_37">
      <!-- 500 -->
      <g style="fill:#262626;" transform="translate(143.204875 730.335529)scale(0.143 -0.143)">
       <use xlink:href="#DejaVuSans-53"/>
       <use x="63.623047" xlink:href="#DejaVuSans-48"/>
       <use x="127.246094" xlink:href="#DejaVuSans-48"/>
      </g>
     </g>
    </g>
    <g id="ytick_21">
     <g id="line2d_42">
      <path clip-path="url(#pa86a2da27b)" d="M 180 668.283175 
L 687.272727 668.283175 
" style="fill:none;stroke:#cccccc;stroke-linecap:round;"/>
     </g>
     <g id="text_38">
      <!-- 600 -->
      <g style="fill:#262626;" transform="translate(143.204875 673.716058)scale(0.143 -0.143)">
       <use xlink:href="#DejaVuSans-54"/>
       <use x="63.623047" xlink:href="#DejaVuSans-48"/>
       <use x="127.246094" xlink:href="#DejaVuSans-48"/>
      </g>
     </g>
    </g>
   </g>
   <g id="patch_100">
    <path clip-path="url(#pa86a2da27b)" d="M 203.057851 1008 
L 212.469219 1008 
L 212.469219 1006.301416 
L 203.057851 1006.301416 
z
" style="fill:#c44e52;opacity:0.75;stroke:#ffffff;stroke-linejoin:miter;"/>
   </g>
   <g id="patch_101">
    <path clip-path="url(#pa86a2da27b)" d="M 212.469219 1008 
L 221.880587 1008 
L 221.880587 1006.867611 
L 212.469219 1006.867611 
z
" style="fill:#c44e52;opacity:0.75;stroke:#ffffff;stroke-linejoin:miter;"/>
   </g>
   <g id="patch_102">
    <path clip-path="url(#pa86a2da27b)" d="M 221.880587 1008 
L 231.291955 1008 
L 231.291955 1003.470442 
L 221.880587 1003.470442 
z
" style="fill:#c44e52;opacity:0.75;stroke:#ffffff;stroke-linejoin:miter;"/>
   </g>
   <g id="patch_103">
    <path clip-path="url(#pa86a2da27b)" d="M 231.291955 1008 
L 240.703323 1008 
L 240.703323 1000.639469 
L 231.291955 1000.639469 
z
" style="fill:#c44e52;opacity:0.75;stroke:#ffffff;stroke-linejoin:miter;"/>
   </g>
   <g id="patch_104">
    <path clip-path="url(#pa86a2da27b)" d="M 240.703323 1008 
L 250.114691 1008 
L 250.114691 998.940885 
L 240.703323 998.940885 
z
" style="fill:#c44e52;opacity:0.75;stroke:#ffffff;stroke-linejoin:miter;"/>
   </g>
   <g id="patch_105">
    <path clip-path="url(#pa86a2da27b)" d="M 250.114691 1008 
L 259.526058 1008 
L 259.526058 996.109911 
L 250.114691 996.109911 
z
" style="fill:#c44e52;opacity:0.75;stroke:#ffffff;stroke-linejoin:miter;"/>
   </g>
   <g id="patch_106">
    <path clip-path="url(#pa86a2da27b)" d="M 259.526058 1008 
L 268.937426 1008 
L 268.937426 989.881769 
L 259.526058 989.881769 
z
" style="fill:#c44e52;opacity:0.75;stroke:#ffffff;stroke-linejoin:miter;"/>
   </g>
   <g id="patch_107">
    <path clip-path="url(#pa86a2da27b)" d="M 268.937426 1008 
L 278.348794 1008 
L 278.348794 984.786017 
L 268.937426 984.786017 
z
" style="fill:#c44e52;opacity:0.75;stroke:#ffffff;stroke-linejoin:miter;"/>
   </g>
   <g id="patch_108">
    <path clip-path="url(#pa86a2da27b)" d="M 278.348794 1008 
L 287.760162 1008 
L 287.760162 970.631149 
L 278.348794 970.631149 
z
" style="fill:#c44e52;opacity:0.75;stroke:#ffffff;stroke-linejoin:miter;"/>
   </g>
   <g id="patch_109">
    <path clip-path="url(#pa86a2da27b)" d="M 287.760162 1008 
L 297.17153 1008 
L 297.17153 955.910087 
L 287.760162 955.910087 
z
" style="fill:#c44e52;opacity:0.75;stroke:#ffffff;stroke-linejoin:miter;"/>
   </g>
   <g id="patch_110">
    <path clip-path="url(#pa86a2da27b)" d="M 297.17153 1008 
L 306.582898 1008 
L 306.582898 934.960883 
L 297.17153 934.960883 
z
" style="fill:#c44e52;opacity:0.75;stroke:#ffffff;stroke-linejoin:miter;"/>
   </g>
   <g id="patch_111">
    <path clip-path="url(#pa86a2da27b)" d="M 306.582898 1008 
L 315.994265 1008 
L 315.994265 933.828493 
L 306.582898 933.828493 
z
" style="fill:#c44e52;opacity:0.75;stroke:#ffffff;stroke-linejoin:miter;"/>
   </g>
   <g id="patch_112">
    <path clip-path="url(#pa86a2da27b)" d="M 315.994265 1008 
L 325.405633 1008 
L 325.405633 915.710263 
L 315.994265 915.710263 
z
" style="fill:#c44e52;opacity:0.75;stroke:#ffffff;stroke-linejoin:miter;"/>
   </g>
   <g id="patch_113">
    <path clip-path="url(#pa86a2da27b)" d="M 325.405633 1008 
L 334.817001 1008 
L 334.817001 891.36389 
L 325.405633 891.36389 
z
" style="fill:#c44e52;opacity:0.75;stroke:#ffffff;stroke-linejoin:miter;"/>
   </g>
   <g id="patch_114">
    <path clip-path="url(#pa86a2da27b)" d="M 334.817001 1008 
L 344.228369 1008 
L 344.228369 867.583713 
L 334.817001 867.583713 
z
" style="fill:#c44e52;opacity:0.75;stroke:#ffffff;stroke-linejoin:miter;"/>
   </g>
   <g id="patch_115">
    <path clip-path="url(#pa86a2da27b)" d="M 344.228369 1008 
L 353.639737 1008 
L 353.639737 858.524597 
L 344.228369 858.524597 
z
" style="fill:#c44e52;opacity:0.75;stroke:#ffffff;stroke-linejoin:miter;"/>
   </g>
   <g id="patch_116">
    <path clip-path="url(#pa86a2da27b)" d="M 353.639737 1008 
L 363.051105 1008 
L 363.051105 839.273977 
L 353.639737 839.273977 
z
" style="fill:#c44e52;opacity:0.75;stroke:#ffffff;stroke-linejoin:miter;"/>
   </g>
   <g id="patch_117">
    <path clip-path="url(#pa86a2da27b)" d="M 363.051105 1008 
L 372.462473 1008 
L 372.462473 817.758578 
L 363.051105 817.758578 
z
" style="fill:#c44e52;opacity:0.75;stroke:#ffffff;stroke-linejoin:miter;"/>
   </g>
   <g id="patch_118">
    <path clip-path="url(#pa86a2da27b)" d="M 372.462473 1008 
L 381.87384 1008 
L 381.87384 796.243179 
L 372.462473 796.243179 
z
" style="fill:#c44e52;opacity:0.75;stroke:#ffffff;stroke-linejoin:miter;"/>
   </g>
   <g id="patch_119">
    <path clip-path="url(#pa86a2da27b)" d="M 381.87384 1008 
L 391.285208 1008 
L 391.285208 769.632028 
L 381.87384 769.632028 
z
" style="fill:#c44e52;opacity:0.75;stroke:#ffffff;stroke-linejoin:miter;"/>
   </g>
   <g id="patch_120">
    <path clip-path="url(#pa86a2da27b)" d="M 391.285208 1008 
L 400.696576 1008 
L 400.696576 746.98424 
L 391.285208 746.98424 
z
" style="fill:#c44e52;opacity:0.75;stroke:#ffffff;stroke-linejoin:miter;"/>
   </g>
   <g id="patch_121">
    <path clip-path="url(#pa86a2da27b)" d="M 400.696576 1008 
L 410.107944 1008 
L 410.107944 745.285656 
L 400.696576 745.285656 
z
" style="fill:#c44e52;opacity:0.75;stroke:#ffffff;stroke-linejoin:miter;"/>
   </g>
   <g id="patch_122">
    <path clip-path="url(#pa86a2da27b)" d="M 410.107944 1008 
L 419.519312 1008 
L 419.519312 757.741939 
L 410.107944 757.741939 
z
" style="fill:#c44e52;opacity:0.75;stroke:#ffffff;stroke-linejoin:miter;"/>
   </g>
   <g id="patch_123">
    <path clip-path="url(#pa86a2da27b)" d="M 419.519312 1008 
L 428.93068 1008 
L 428.93068 733.961762 
L 419.519312 733.961762 
z
" style="fill:#c44e52;opacity:0.75;stroke:#ffffff;stroke-linejoin:miter;"/>
   </g>
   <g id="patch_124">
    <path clip-path="url(#pa86a2da27b)" d="M 428.93068 1008 
L 438.342048 1008 
L 438.342048 739.057514 
L 428.93068 739.057514 
z
" style="fill:#c44e52;opacity:0.75;stroke:#ffffff;stroke-linejoin:miter;"/>
   </g>
   <g id="patch_125">
    <path clip-path="url(#pa86a2da27b)" d="M 438.342048 1008 
L 447.753415 1008 
L 447.753415 738.491319 
L 438.342048 738.491319 
z
" style="fill:#c44e52;opacity:0.75;stroke:#ffffff;stroke-linejoin:miter;"/>
   </g>
   <g id="patch_126">
    <path clip-path="url(#pa86a2da27b)" d="M 447.753415 1008 
L 457.164783 1008 
L 457.164783 716.409726 
L 447.753415 716.409726 
z
" style="fill:#c44e52;opacity:0.75;stroke:#ffffff;stroke-linejoin:miter;"/>
   </g>
   <g id="patch_127">
    <path clip-path="url(#pa86a2da27b)" d="M 457.164783 1008 
L 466.576151 1008 
L 466.576151 751.513797 
L 457.164783 751.513797 
z
" style="fill:#c44e52;opacity:0.75;stroke:#ffffff;stroke-linejoin:miter;"/>
   </g>
   <g id="patch_128">
    <path clip-path="url(#pa86a2da27b)" d="M 466.576151 1008 
L 475.987519 1008 
L 475.987519 745.85185 
L 466.576151 745.85185 
z
" style="fill:#c44e52;opacity:0.75;stroke:#ffffff;stroke-linejoin:miter;"/>
   </g>
   <g id="patch_129">
    <path clip-path="url(#pa86a2da27b)" d="M 475.987519 1008 
L 485.398887 1008 
L 485.398887 774.72778 
L 475.987519 774.72778 
z
" style="fill:#c44e52;opacity:0.75;stroke:#ffffff;stroke-linejoin:miter;"/>
   </g>
   <g id="patch_130">
    <path clip-path="url(#pa86a2da27b)" d="M 485.398887 1008 
L 494.810255 1008 
L 494.810255 776.992559 
L 485.398887 776.992559 
z
" style="fill:#c44e52;opacity:0.75;stroke:#ffffff;stroke-linejoin:miter;"/>
   </g>
   <g id="patch_131">
    <path clip-path="url(#pa86a2da27b)" d="M 494.810255 1008 
L 504.221623 1008 
L 504.221623 823.98672 
L 494.810255 823.98672 
z
" style="fill:#c44e52;opacity:0.75;stroke:#ffffff;stroke-linejoin:miter;"/>
   </g>
   <g id="patch_132">
    <path clip-path="url(#pa86a2da27b)" d="M 504.221623 1008 
L 513.63299 1008 
L 513.63299 843.23734 
L 504.221623 843.23734 
z
" style="fill:#c44e52;opacity:0.75;stroke:#ffffff;stroke-linejoin:miter;"/>
   </g>
   <g id="patch_133">
    <path clip-path="url(#pa86a2da27b)" d="M 513.63299 1008 
L 523.044358 1008 
L 523.044358 867.017518 
L 513.63299 867.017518 
z
" style="fill:#c44e52;opacity:0.75;stroke:#ffffff;stroke-linejoin:miter;"/>
   </g>
   <g id="patch_134">
    <path clip-path="url(#pa86a2da27b)" d="M 523.044358 1008 
L 532.455726 1008 
L 532.455726 885.701943 
L 523.044358 885.701943 
z
" style="fill:#c44e52;opacity:0.75;stroke:#ffffff;stroke-linejoin:miter;"/>
   </g>
   <g id="patch_135">
    <path clip-path="url(#pa86a2da27b)" d="M 532.455726 1008 
L 541.867094 1008 
L 541.867094 901.555395 
L 532.455726 901.555395 
z
" style="fill:#c44e52;opacity:0.75;stroke:#ffffff;stroke-linejoin:miter;"/>
   </g>
   <g id="patch_136">
    <path clip-path="url(#pa86a2da27b)" d="M 541.867094 1008 
L 551.278462 1008 
L 551.278462 902.12159 
L 541.867094 902.12159 
z
" style="fill:#c44e52;opacity:0.75;stroke:#ffffff;stroke-linejoin:miter;"/>
   </g>
   <g id="patch_137">
    <path clip-path="url(#pa86a2da27b)" d="M 551.278462 1008 
L 560.68983 1008 
L 560.68983 908.915926 
L 551.278462 908.915926 
z
" style="fill:#c44e52;opacity:0.75;stroke:#ffffff;stroke-linejoin:miter;"/>
   </g>
   <g id="patch_138">
    <path clip-path="url(#pa86a2da27b)" d="M 560.68983 1008 
L 570.101198 1008 
L 570.101198 929.298936 
L 560.68983 929.298936 
z
" style="fill:#c44e52;opacity:0.75;stroke:#ffffff;stroke-linejoin:miter;"/>
   </g>
   <g id="patch_139">
    <path clip-path="url(#pa86a2da27b)" d="M 570.101198 1008 
L 579.512565 1008 
L 579.512565 959.87345 
L 570.101198 959.87345 
z
" style="fill:#c44e52;opacity:0.75;stroke:#ffffff;stroke-linejoin:miter;"/>
   </g>
   <g id="patch_140">
    <path clip-path="url(#pa86a2da27b)" d="M 579.512565 1008 
L 588.923933 1008 
L 588.923933 971.763539 
L 579.512565 971.763539 
z
" style="fill:#c44e52;opacity:0.75;stroke:#ffffff;stroke-linejoin:miter;"/>
   </g>
   <g id="patch_141">
    <path clip-path="url(#pa86a2da27b)" d="M 588.923933 1008 
L 598.335301 1008 
L 598.335301 979.690265 
L 588.923933 979.690265 
z
" style="fill:#c44e52;opacity:0.75;stroke:#ffffff;stroke-linejoin:miter;"/>
   </g>
   <g id="patch_142">
    <path clip-path="url(#pa86a2da27b)" d="M 598.335301 1008 
L 607.746669 1008 
L 607.746669 990.447964 
L 598.335301 990.447964 
z
" style="fill:#c44e52;opacity:0.75;stroke:#ffffff;stroke-linejoin:miter;"/>
   </g>
   <g id="patch_143">
    <path clip-path="url(#pa86a2da27b)" d="M 607.746669 1008 
L 617.158037 1008 
L 617.158037 991.014159 
L 607.746669 991.014159 
z
" style="fill:#c44e52;opacity:0.75;stroke:#ffffff;stroke-linejoin:miter;"/>
   </g>
   <g id="patch_144">
    <path clip-path="url(#pa86a2da27b)" d="M 617.158037 1008 
L 626.569405 1008 
L 626.569405 992.146548 
L 617.158037 992.146548 
z
" style="fill:#c44e52;opacity:0.75;stroke:#ffffff;stroke-linejoin:miter;"/>
   </g>
   <g id="patch_145">
    <path clip-path="url(#pa86a2da27b)" d="M 626.569405 1008 
L 635.980772 1008 
L 635.980772 1001.205664 
L 626.569405 1001.205664 
z
" style="fill:#c44e52;opacity:0.75;stroke:#ffffff;stroke-linejoin:miter;"/>
   </g>
   <g id="patch_146">
    <path clip-path="url(#pa86a2da27b)" d="M 635.980772 1008 
L 645.39214 1008 
L 645.39214 1003.470442 
L 635.980772 1003.470442 
z
" style="fill:#c44e52;opacity:0.75;stroke:#ffffff;stroke-linejoin:miter;"/>
   </g>
   <g id="patch_147">
    <path clip-path="url(#pa86a2da27b)" d="M 645.39214 1008 
L 654.803508 1008 
L 654.803508 1006.301416 
L 645.39214 1006.301416 
z
" style="fill:#c44e52;opacity:0.75;stroke:#ffffff;stroke-linejoin:miter;"/>
   </g>
   <g id="patch_148">
    <path clip-path="url(#pa86a2da27b)" d="M 654.803508 1008 
L 664.214876 1008 
L 664.214876 1006.867611 
L 654.803508 1006.867611 
z
" style="fill:#c44e52;opacity:0.75;stroke:#ffffff;stroke-linejoin:miter;"/>
   </g>
   <g id="patch_149">
    <path d="M 180 1008 
L 180 612.654545 
" style="fill:none;stroke:#cccccc;stroke-linecap:square;stroke-linejoin:miter;stroke-width:1.25;"/>
   </g>
   <g id="patch_150">
    <path d="M 687.272727 1008 
L 687.272727 612.654545 
" style="fill:none;stroke:#cccccc;stroke-linecap:square;stroke-linejoin:miter;stroke-width:1.25;"/>
   </g>
   <g id="patch_151">
    <path d="M 180 1008 
L 687.272727 1008 
" style="fill:none;stroke:#cccccc;stroke-linecap:square;stroke-linejoin:miter;stroke-width:1.25;"/>
   </g>
   <g id="patch_152">
    <path d="M 180 612.654545 
L 687.272727 612.654545 
" style="fill:none;stroke:#cccccc;stroke-linecap:square;stroke-linejoin:miter;stroke-width:1.25;"/>
   </g>
  </g>
  <g id="axes_4">
   <g id="patch_153">
    <path d="M 788.727273 1008 
L 1296 1008 
L 1296 612.654545 
L 788.727273 612.654545 
z
" style="fill:#ffffff;"/>
   </g>
   <g id="matplotlib.axis_7">
    <g id="xtick_22">
     <g id="line2d_43">
      <path clip-path="url(#p5880190d68)" d="M 867.670124 1008 
L 867.670124 612.654545 
" style="fill:none;stroke:#cccccc;stroke-linecap:round;"/>
     </g>
     <g id="text_39">
      <!-- −0.04 -->
      <g style="fill:#262626;" transform="translate(845.758726 1028.365766)scale(0.143 -0.143)">
       <use xlink:href="#DejaVuSans-8722"/>
       <use x="83.789062" xlink:href="#DejaVuSans-48"/>
       <use x="147.412109" xlink:href="#DejaVuSans-46"/>
       <use x="179.199219" xlink:href="#DejaVuSans-48"/>
       <use x="242.822266" xlink:href="#DejaVuSans-52"/>
      </g>
     </g>
    </g>
    <g id="xtick_23">
     <g id="line2d_44">
      <path clip-path="url(#p5880190d68)" d="M 954.899252 1008 
L 954.899252 612.654545 
" style="fill:none;stroke:#cccccc;stroke-linecap:round;"/>
     </g>
     <g id="text_40">
      <!-- −0.02 -->
      <g style="fill:#262626;" transform="translate(932.987854 1028.365766)scale(0.143 -0.143)">
       <use xlink:href="#DejaVuSans-8722"/>
       <use x="83.789062" xlink:href="#DejaVuSans-48"/>
       <use x="147.412109" xlink:href="#DejaVuSans-46"/>
       <use x="179.199219" xlink:href="#DejaVuSans-48"/>
       <use x="242.822266" xlink:href="#DejaVuSans-50"/>
      </g>
     </g>
    </g>
    <g id="xtick_24">
     <g id="line2d_45">
      <path clip-path="url(#p5880190d68)" d="M 1042.128381 1008 
L 1042.128381 612.654545 
" style="fill:none;stroke:#cccccc;stroke-linecap:round;"/>
     </g>
     <g id="text_41">
      <!-- 0.00 -->
      <g style="fill:#262626;" transform="translate(1026.208459 1028.365766)scale(0.143 -0.143)">
       <use xlink:href="#DejaVuSans-48"/>
       <use x="63.623047" xlink:href="#DejaVuSans-46"/>
       <use x="95.410156" xlink:href="#DejaVuSans-48"/>
       <use x="159.033203" xlink:href="#DejaVuSans-48"/>
      </g>
     </g>
    </g>
    <g id="xtick_25">
     <g id="line2d_46">
      <path clip-path="url(#p5880190d68)" d="M 1129.357509 1008 
L 1129.357509 612.654545 
" style="fill:none;stroke:#cccccc;stroke-linecap:round;"/>
     </g>
     <g id="text_42">
      <!-- 0.02 -->
      <g style="fill:#262626;" transform="translate(1113.437587 1028.365766)scale(0.143 -0.143)">
       <use xlink:href="#DejaVuSans-48"/>
       <use x="63.623047" xlink:href="#DejaVuSans-46"/>
       <use x="95.410156" xlink:href="#DejaVuSans-48"/>
       <use x="159.033203" xlink:href="#DejaVuSans-50"/>
      </g>
     </g>
    </g>
    <g id="xtick_26">
     <g id="line2d_47">
      <path clip-path="url(#p5880190d68)" d="M 1216.586637 1008 
L 1216.586637 612.654545 
" style="fill:none;stroke:#cccccc;stroke-linecap:round;"/>
     </g>
     <g id="text_43">
      <!-- 0.04 -->
      <g style="fill:#262626;" transform="translate(1200.666715 1028.365766)scale(0.143 -0.143)">
       <use xlink:href="#DejaVuSans-48"/>
       <use x="63.623047" xlink:href="#DejaVuSans-46"/>
       <use x="95.410156" xlink:href="#DejaVuSans-48"/>
       <use x="159.033203" xlink:href="#DejaVuSans-52"/>
      </g>
     </g>
    </g>
    <g id="text_44">
     <!-- Putamen -->
     <g style="fill:#262626;" transform="translate(1007.540293 1047.193281)scale(0.156 -0.156)">
      <use xlink:href="#DejaVuSans-80"/>
      <use x="60.287109" xlink:href="#DejaVuSans-117"/>
      <use x="123.666016" xlink:href="#DejaVuSans-116"/>
      <use x="162.875" xlink:href="#DejaVuSans-97"/>
      <use x="224.154297" xlink:href="#DejaVuSans-109"/>
      <use x="321.566406" xlink:href="#DejaVuSans-101"/>
      <use x="383.089844" xlink:href="#DejaVuSans-110"/>
     </g>
    </g>
   </g>
   <g id="matplotlib.axis_8">
    <g id="ytick_22">
     <g id="line2d_48">
      <path clip-path="url(#p5880190d68)" d="M 788.727273 1008 
L 1296 1008 
" style="fill:none;stroke:#cccccc;stroke-linecap:round;"/>
     </g>
    </g>
    <g id="ytick_23">
     <g id="line2d_49">
      <path clip-path="url(#p5880190d68)" d="M 788.727273 951.380529 
L 1296 951.380529 
" style="fill:none;stroke:#cccccc;stroke-linecap:round;"/>
     </g>
    </g>
    <g id="ytick_24">
     <g id="line2d_50">
      <path clip-path="url(#p5880190d68)" d="M 788.727273 894.761058 
L 1296 894.761058 
" style="fill:none;stroke:#cccccc;stroke-linecap:round;"/>
     </g>
    </g>
    <g id="ytick_25">
     <g id="line2d_51">
      <path clip-path="url(#p5880190d68)" d="M 788.727273 838.141588 
L 1296 838.141588 
" style="fill:none;stroke:#cccccc;stroke-linecap:round;"/>
     </g>
    </g>
    <g id="ytick_26">
     <g id="line2d_52">
      <path clip-path="url(#p5880190d68)" d="M 788.727273 781.522117 
L 1296 781.522117 
" style="fill:none;stroke:#cccccc;stroke-linecap:round;"/>
     </g>
    </g>
    <g id="ytick_27">
     <g id="line2d_53">
      <path clip-path="url(#p5880190d68)" d="M 788.727273 724.902646 
L 1296 724.902646 
" style="fill:none;stroke:#cccccc;stroke-linecap:round;"/>
     </g>
    </g>
    <g id="ytick_28">
     <g id="line2d_54">
      <path clip-path="url(#p5880190d68)" d="M 788.727273 668.283175 
L 1296 668.283175 
" style="fill:none;stroke:#cccccc;stroke-linecap:round;"/>
     </g>
    </g>
   </g>
   <g id="patch_154">
    <path clip-path="url(#p5880190d68)" d="M 811.785124 1008 
L 824.595041 1008 
L 824.595041 998.37469 
L 811.785124 998.37469 
z
" style="fill:#c44e52;opacity:0.75;stroke:#ffffff;stroke-linejoin:miter;"/>
   </g>
   <g id="patch_155">
    <path clip-path="url(#p5880190d68)" d="M 824.595041 1008 
L 837.404959 1008 
L 837.404959 980.256459 
L 824.595041 980.256459 
z
" style="fill:#c44e52;opacity:0.75;stroke:#ffffff;stroke-linejoin:miter;"/>
   </g>
   <g id="patch_156">
    <path clip-path="url(#p5880190d68)" d="M 837.404959 1008 
L 850.214876 1008 
L 850.214876 946.284777 
L 837.404959 946.284777 
z
" style="fill:#c44e52;opacity:0.75;stroke:#ffffff;stroke-linejoin:miter;"/>
   </g>
   <g id="patch_157">
    <path clip-path="url(#p5880190d68)" d="M 850.214876 1008 
L 863.024793 1008 
L 863.024793 930.99752 
L 850.214876 930.99752 
z
" style="fill:#c44e52;opacity:0.75;stroke:#ffffff;stroke-linejoin:miter;"/>
   </g>
   <g id="patch_158">
    <path clip-path="url(#p5880190d68)" d="M 863.024793 1008 
L 875.834711 1008 
L 875.834711 921.37221 
L 863.024793 921.37221 
z
" style="fill:#c44e52;opacity:0.75;stroke:#ffffff;stroke-linejoin:miter;"/>
   </g>
   <g id="patch_159">
    <path clip-path="url(#p5880190d68)" d="M 875.834711 1008 
L 888.644628 1008 
L 888.644628 908.349731 
L 875.834711 908.349731 
z
" style="fill:#c44e52;opacity:0.75;stroke:#ffffff;stroke-linejoin:miter;"/>
   </g>
   <g id="patch_160">
    <path clip-path="url(#p5880190d68)" d="M 888.644628 1008 
L 901.454545 1008 
L 901.454545 947.417166 
L 888.644628 947.417166 
z
" style="fill:#c44e52;opacity:0.75;stroke:#ffffff;stroke-linejoin:miter;"/>
   </g>
   <g id="patch_161">
    <path clip-path="url(#p5880190d68)" d="M 901.454545 1008 
L 914.264463 1008 
L 914.264463 972.895928 
L 901.454545 972.895928 
z
" style="fill:#c44e52;opacity:0.75;stroke:#ffffff;stroke-linejoin:miter;"/>
   </g>
   <g id="patch_162">
    <path clip-path="url(#p5880190d68)" d="M 914.264463 1008 
L 927.07438 1008 
L 927.07438 979.690265 
L 914.264463 979.690265 
z
" style="fill:#c44e52;opacity:0.75;stroke:#ffffff;stroke-linejoin:miter;"/>
   </g>
   <g id="patch_163">
    <path clip-path="url(#p5880190d68)" d="M 927.07438 1008 
L 939.884298 1008 
L 939.884298 873.24566 
L 927.07438 873.24566 
z
" style="fill:#c44e52;opacity:0.75;stroke:#ffffff;stroke-linejoin:miter;"/>
   </g>
   <g id="patch_164">
    <path clip-path="url(#p5880190d68)" d="M 939.884298 1008 
L 952.694215 1008 
L 952.694215 710.747779 
L 939.884298 710.747779 
z
" style="fill:#c44e52;opacity:0.75;stroke:#ffffff;stroke-linejoin:miter;"/>
   </g>
   <g id="patch_165">
    <path clip-path="url(#p5880190d68)" d="M 952.694215 1008 
L 965.504132 1008 
L 965.504132 717.542115 
L 952.694215 717.542115 
z
" style="fill:#c44e52;opacity:0.75;stroke:#ffffff;stroke-linejoin:miter;"/>
   </g>
   <g id="patch_166">
    <path clip-path="url(#p5880190d68)" d="M 965.504132 1008 
L 978.31405 1008 
L 978.31405 631.480519 
L 965.504132 631.480519 
z
" style="fill:#c44e52;opacity:0.75;stroke:#ffffff;stroke-linejoin:miter;"/>
   </g>
   <g id="patch_167">
    <path clip-path="url(#p5880190d68)" d="M 978.31405 1008 
L 991.123967 1008 
L 991.123967 740.756098 
L 978.31405 740.756098 
z
" style="fill:#c44e52;opacity:0.75;stroke:#ffffff;stroke-linejoin:miter;"/>
   </g>
   <g id="patch_168">
    <path clip-path="url(#p5880190d68)" d="M 991.123967 1008 
L 1003.933884 1008 
L 1003.933884 844.935924 
L 991.123967 844.935924 
z
" style="fill:#c44e52;opacity:0.75;stroke:#ffffff;stroke-linejoin:miter;"/>
   </g>
   <g id="patch_169">
    <path clip-path="url(#p5880190d68)" d="M 1003.933884 1008 
L 1016.743802 1008 
L 1016.743802 801.905126 
L 1003.933884 801.905126 
z
" style="fill:#c44e52;opacity:0.75;stroke:#ffffff;stroke-linejoin:miter;"/>
   </g>
   <g id="patch_170">
    <path clip-path="url(#p5880190d68)" d="M 1016.743802 1008 
L 1029.553719 1008 
L 1029.553719 749.249019 
L 1016.743802 749.249019 
z
" style="fill:#c44e52;opacity:0.75;stroke:#ffffff;stroke-linejoin:miter;"/>
   </g>
   <g id="patch_171">
    <path clip-path="url(#p5880190d68)" d="M 1029.553719 1008 
L 1042.363636 1008 
L 1042.363636 635.443882 
L 1029.553719 635.443882 
z
" style="fill:#c44e52;opacity:0.75;stroke:#ffffff;stroke-linejoin:miter;"/>
   </g>
   <g id="patch_172">
    <path clip-path="url(#p5880190d68)" d="M 1042.363636 1008 
L 1055.173554 1008 
L 1055.173554 673.378928 
L 1042.363636 673.378928 
z
" style="fill:#c44e52;opacity:0.75;stroke:#ffffff;stroke-linejoin:miter;"/>
   </g>
   <g id="patch_173">
    <path clip-path="url(#p5880190d68)" d="M 1055.173554 1008 
L 1067.983471 1008 
L 1067.983471 740.189903 
L 1055.173554 740.189903 
z
" style="fill:#c44e52;opacity:0.75;stroke:#ffffff;stroke-linejoin:miter;"/>
   </g>
   <g id="patch_174">
    <path clip-path="url(#p5880190d68)" d="M 1067.983471 1008 
L 1080.793388 1008 
L 1080.793388 831.913446 
L 1067.983471 831.913446 
z
" style="fill:#c44e52;opacity:0.75;stroke:#ffffff;stroke-linejoin:miter;"/>
   </g>
   <g id="patch_175">
    <path clip-path="url(#p5880190d68)" d="M 1080.793388 1008 
L 1093.603306 1008 
L 1093.603306 804.7361 
L 1080.793388 804.7361 
z
" style="fill:#c44e52;opacity:0.75;stroke:#ffffff;stroke-linejoin:miter;"/>
   </g>
   <g id="patch_176">
    <path clip-path="url(#p5880190d68)" d="M 1093.603306 1008 
L 1106.413223 1008 
L 1106.413223 719.240699 
L 1093.603306 719.240699 
z
" style="fill:#c44e52;opacity:0.75;stroke:#ffffff;stroke-linejoin:miter;"/>
   </g>
   <g id="patch_177">
    <path clip-path="url(#p5880190d68)" d="M 1106.413223 1008 
L 1119.22314 1008 
L 1119.22314 663.753618 
L 1106.413223 663.753618 
z
" style="fill:#c44e52;opacity:0.75;stroke:#ffffff;stroke-linejoin:miter;"/>
   </g>
   <g id="patch_178">
    <path clip-path="url(#p5880190d68)" d="M 1119.22314 1008 
L 1132.033058 1008 
L 1132.033058 681.305654 
L 1119.22314 681.305654 
z
" style="fill:#c44e52;opacity:0.75;stroke:#ffffff;stroke-linejoin:miter;"/>
   </g>
   <g id="patch_179">
    <path clip-path="url(#p5880190d68)" d="M 1132.033058 1008 
L 1144.842975 1008 
L 1144.842975 752.646187 
L 1132.033058 752.646187 
z
" style="fill:#c44e52;opacity:0.75;stroke:#ffffff;stroke-linejoin:miter;"/>
   </g>
   <g id="patch_180">
    <path clip-path="url(#p5880190d68)" d="M 1144.842975 1008 
L 1157.652893 1008 
L 1157.652893 893.628669 
L 1144.842975 893.628669 
z
" style="fill:#c44e52;opacity:0.75;stroke:#ffffff;stroke-linejoin:miter;"/>
   </g>
   <g id="patch_181">
    <path clip-path="url(#p5880190d68)" d="M 1157.652893 1008 
L 1170.46281 1008 
L 1170.46281 982.521238 
L 1157.652893 982.521238 
z
" style="fill:#c44e52;opacity:0.75;stroke:#ffffff;stroke-linejoin:miter;"/>
   </g>
   <g id="patch_182">
    <path clip-path="url(#p5880190d68)" d="M 1170.46281 1008 
L 1183.272727 1008 
L 1183.272727 971.197344 
L 1170.46281 971.197344 
z
" style="fill:#c44e52;opacity:0.75;stroke:#ffffff;stroke-linejoin:miter;"/>
   </g>
   <g id="patch_183">
    <path clip-path="url(#p5880190d68)" d="M 1183.272727 1008 
L 1196.082645 1008 
L 1196.082645 926.467962 
L 1183.272727 926.467962 
z
" style="fill:#c44e52;opacity:0.75;stroke:#ffffff;stroke-linejoin:miter;"/>
   </g>
   <g id="patch_184">
    <path clip-path="url(#p5880190d68)" d="M 1196.082645 1008 
L 1208.892562 1008 
L 1208.892562 908.349731 
L 1196.082645 908.349731 
z
" style="fill:#c44e52;opacity:0.75;stroke:#ffffff;stroke-linejoin:miter;"/>
   </g>
   <g id="patch_185">
    <path clip-path="url(#p5880190d68)" d="M 1208.892562 1008 
L 1221.702479 1008 
L 1221.702479 925.901767 
L 1208.892562 925.901767 
z
" style="fill:#c44e52;opacity:0.75;stroke:#ffffff;stroke-linejoin:miter;"/>
   </g>
   <g id="patch_186">
    <path clip-path="url(#p5880190d68)" d="M 1221.702479 1008 
L 1234.512397 1008 
L 1234.512397 920.806015 
L 1221.702479 920.806015 
z
" style="fill:#c44e52;opacity:0.75;stroke:#ffffff;stroke-linejoin:miter;"/>
   </g>
   <g id="patch_187">
    <path clip-path="url(#p5880190d68)" d="M 1234.512397 1008 
L 1247.322314 1008 
L 1247.322314 944.586193 
L 1234.512397 944.586193 
z
" style="fill:#c44e52;opacity:0.75;stroke:#ffffff;stroke-linejoin:miter;"/>
   </g>
   <g id="patch_188">
    <path clip-path="url(#p5880190d68)" d="M 1247.322314 1008 
L 1260.132231 1008 
L 1260.132231 991.014159 
L 1247.322314 991.014159 
z
" style="fill:#c44e52;opacity:0.75;stroke:#ffffff;stroke-linejoin:miter;"/>
   </g>
   <g id="patch_189">
    <path clip-path="url(#p5880190d68)" d="M 1260.132231 1008 
L 1272.942149 1008 
L 1272.942149 1003.470442 
L 1260.132231 1003.470442 
z
" style="fill:#c44e52;opacity:0.75;stroke:#ffffff;stroke-linejoin:miter;"/>
   </g>
   <g id="patch_190">
    <path d="M 788.727273 1008 
L 788.727273 612.654545 
" style="fill:none;stroke:#cccccc;stroke-linecap:square;stroke-linejoin:miter;stroke-width:1.25;"/>
   </g>
   <g id="patch_191">
    <path d="M 1296 1008 
L 1296 612.654545 
" style="fill:none;stroke:#cccccc;stroke-linecap:square;stroke-linejoin:miter;stroke-width:1.25;"/>
   </g>
   <g id="patch_192">
    <path d="M 788.727273 1008 
L 1296 1008 
" style="fill:none;stroke:#cccccc;stroke-linecap:square;stroke-linejoin:miter;stroke-width:1.25;"/>
   </g>
   <g id="patch_193">
    <path d="M 788.727273 612.654545 
L 1296 612.654545 
" style="fill:none;stroke:#cccccc;stroke-linecap:square;stroke-linejoin:miter;stroke-width:1.25;"/>
   </g>
  </g>
  <g id="text_45">
   <!-- Diff Score -->
   <defs>
    <path d="M 19.671875 64.796875 
L 19.671875 8.109375 
L 31.59375 8.109375 
Q 46.6875 8.109375 53.6875 14.9375 
Q 60.6875 21.78125 60.6875 36.53125 
Q 60.6875 51.171875 53.6875 57.984375 
Q 46.6875 64.796875 31.59375 64.796875 
z
M 9.8125 72.90625 
L 30.078125 72.90625 
Q 51.265625 72.90625 61.171875 64.09375 
Q 71.09375 55.28125 71.09375 36.53125 
Q 71.09375 17.671875 61.125 8.828125 
Q 51.171875 0 30.078125 0 
L 9.8125 0 
z
" id="DejaVuSans-68"/>
    <path d="M 37.109375 75.984375 
L 37.109375 68.5 
L 28.515625 68.5 
Q 23.6875 68.5 21.796875 66.546875 
Q 19.921875 64.59375 19.921875 59.515625 
L 19.921875 54.6875 
L 34.71875 54.6875 
L 34.71875 47.703125 
L 19.921875 47.703125 
L 19.921875 0 
L 10.890625 0 
L 10.890625 47.703125 
L 2.296875 47.703125 
L 2.296875 54.6875 
L 10.890625 54.6875 
L 10.890625 58.5 
Q 10.890625 67.625 15.140625 71.796875 
Q 19.390625 75.984375 28.609375 75.984375 
z
" id="DejaVuSans-102"/>
    <path d="M 53.515625 70.515625 
L 53.515625 60.890625 
Q 47.90625 63.578125 42.921875 64.890625 
Q 37.9375 66.21875 33.296875 66.21875 
Q 25.25 66.21875 20.875 63.09375 
Q 16.5 59.96875 16.5 54.203125 
Q 16.5 49.359375 19.40625 46.890625 
Q 22.3125 44.4375 30.421875 42.921875 
L 36.375 41.703125 
Q 47.40625 39.59375 52.65625 34.296875 
Q 57.90625 29 57.90625 20.125 
Q 57.90625 9.515625 50.796875 4.046875 
Q 43.703125 -1.421875 29.984375 -1.421875 
Q 24.8125 -1.421875 18.96875 -0.25 
Q 13.140625 0.921875 6.890625 3.21875 
L 6.890625 13.375 
Q 12.890625 10.015625 18.65625 8.296875 
Q 24.421875 6.59375 29.984375 6.59375 
Q 38.421875 6.59375 43.015625 9.90625 
Q 47.609375 13.234375 47.609375 19.390625 
Q 47.609375 24.75 44.3125 27.78125 
Q 41.015625 30.8125 33.5 32.328125 
L 27.484375 33.5 
Q 16.453125 35.6875 11.515625 40.375 
Q 6.59375 45.0625 6.59375 53.421875 
Q 6.59375 63.09375 13.40625 68.65625 
Q 20.21875 74.21875 32.171875 74.21875 
Q 37.3125 74.21875 42.625 73.28125 
Q 47.953125 72.359375 53.515625 70.515625 
z
" id="DejaVuSans-83"/>
    <path d="M 30.609375 48.390625 
Q 23.390625 48.390625 19.1875 42.75 
Q 14.984375 37.109375 14.984375 27.296875 
Q 14.984375 17.484375 19.15625 11.84375 
Q 23.34375 6.203125 30.609375 6.203125 
Q 37.796875 6.203125 41.984375 11.859375 
Q 46.1875 17.53125 46.1875 27.296875 
Q 46.1875 37.015625 41.984375 42.703125 
Q 37.796875 48.390625 30.609375 48.390625 
z
M 30.609375 56 
Q 42.328125 56 49.015625 48.375 
Q 55.71875 40.765625 55.71875 27.296875 
Q 55.71875 13.875 49.015625 6.21875 
Q 42.328125 -1.421875 30.609375 -1.421875 
Q 18.84375 -1.421875 12.171875 6.21875 
Q 5.515625 13.875 5.515625 27.296875 
Q 5.515625 40.765625 12.171875 48.375 
Q 18.84375 56 30.609375 56 
z
" id="DejaVuSans-111"/>
    <path d="M 41.109375 46.296875 
Q 39.59375 47.171875 37.8125 47.578125 
Q 36.03125 48 33.890625 48 
Q 26.265625 48 22.1875 43.046875 
Q 18.109375 38.09375 18.109375 28.8125 
L 18.109375 0 
L 9.078125 0 
L 9.078125 54.6875 
L 18.109375 54.6875 
L 18.109375 46.1875 
Q 20.953125 51.171875 25.484375 53.578125 
Q 30.03125 56 36.53125 56 
Q 37.453125 56 38.578125 55.875 
Q 39.703125 55.765625 41.0625 55.515625 
z
" id="DejaVuSans-114"/>
   </defs>
   <g style="fill:#262626;" transform="translate(695.538281 1108.679375)scale(0.1 -0.1)">
    <use xlink:href="#DejaVuSans-68"/>
    <use x="77.001953" xlink:href="#DejaVuSans-105"/>
    <use x="104.785156" xlink:href="#DejaVuSans-102"/>
    <use x="139.990234" xlink:href="#DejaVuSans-102"/>
    <use x="175.195312" xlink:href="#DejaVuSans-32"/>
    <use x="206.982422" xlink:href="#DejaVuSans-83"/>
    <use x="270.458984" xlink:href="#DejaVuSans-99"/>
    <use x="325.439453" xlink:href="#DejaVuSans-111"/>
    <use x="386.621094" xlink:href="#DejaVuSans-114"/>
    <use x="427.703125" xlink:href="#DejaVuSans-101"/>
   </g>
  </g>
  <g id="text_46">
   <!-- Raw Count -->
   <defs>
    <path d="M 44.390625 34.1875 
Q 47.5625 33.109375 50.5625 29.59375 
Q 53.5625 26.078125 56.59375 19.921875 
L 66.609375 0 
L 56 0 
L 46.6875 18.703125 
Q 43.0625 26.03125 39.671875 28.421875 
Q 36.28125 30.8125 30.421875 30.8125 
L 19.671875 30.8125 
L 19.671875 0 
L 9.8125 0 
L 9.8125 72.90625 
L 32.078125 72.90625 
Q 44.578125 72.90625 50.734375 67.671875 
Q 56.890625 62.453125 56.890625 51.90625 
Q 56.890625 45.015625 53.6875 40.46875 
Q 50.484375 35.9375 44.390625 34.1875 
z
M 19.671875 64.796875 
L 19.671875 38.921875 
L 32.078125 38.921875 
Q 39.203125 38.921875 42.84375 42.21875 
Q 46.484375 45.515625 46.484375 51.90625 
Q 46.484375 58.296875 42.84375 61.546875 
Q 39.203125 64.796875 32.078125 64.796875 
z
" id="DejaVuSans-82"/>
    <path d="M 4.203125 54.6875 
L 13.1875 54.6875 
L 24.421875 12.015625 
L 35.59375 54.6875 
L 46.1875 54.6875 
L 57.421875 12.015625 
L 68.609375 54.6875 
L 77.59375 54.6875 
L 63.28125 0 
L 52.6875 0 
L 40.921875 44.828125 
L 29.109375 0 
L 18.5 0 
z
" id="DejaVuSans-119"/>
   </defs>
   <g style="fill:#262626;" transform="translate(89.159375 603.063281)rotate(-90)scale(0.1 -0.1)">
    <use xlink:href="#DejaVuSans-82"/>
    <use x="69.451172" xlink:href="#DejaVuSans-97"/>
    <use x="130.730469" xlink:href="#DejaVuSans-119"/>
    <use x="212.517578" xlink:href="#DejaVuSans-32"/>
    <use x="244.304688" xlink:href="#DejaVuSans-67"/>
    <use x="314.128906" xlink:href="#DejaVuSans-111"/>
    <use x="375.310547" xlink:href="#DejaVuSans-117"/>
    <use x="438.689453" xlink:href="#DejaVuSans-110"/>
    <use x="502.068359" xlink:href="#DejaVuSans-116"/>
   </g>
  </g>
  <g id="text_47">
   <!-- Distribution of Diff Scores -->
   <g style="fill:#262626;" transform="translate(642.920625 32.158125)scale(0.12 -0.12)">
    <use xlink:href="#DejaVuSans-68"/>
    <use x="77.001953" xlink:href="#DejaVuSans-105"/>
    <use x="104.785156" xlink:href="#DejaVuSans-115"/>
    <use x="156.884766" xlink:href="#DejaVuSans-116"/>
    <use x="196.09375" xlink:href="#DejaVuSans-114"/>
    <use x="237.207031" xlink:href="#DejaVuSans-105"/>
    <use x="264.990234" xlink:href="#DejaVuSans-98"/>
    <use x="328.466797" xlink:href="#DejaVuSans-117"/>
    <use x="391.845703" xlink:href="#DejaVuSans-116"/>
    <use x="431.054688" xlink:href="#DejaVuSans-105"/>
    <use x="458.837891" xlink:href="#DejaVuSans-111"/>
    <use x="520.019531" xlink:href="#DejaVuSans-110"/>
    <use x="583.398438" xlink:href="#DejaVuSans-32"/>
    <use x="615.185547" xlink:href="#DejaVuSans-111"/>
    <use x="676.367188" xlink:href="#DejaVuSans-102"/>
    <use x="711.572266" xlink:href="#DejaVuSans-32"/>
    <use x="743.359375" xlink:href="#DejaVuSans-68"/>
    <use x="820.361328" xlink:href="#DejaVuSans-105"/>
    <use x="848.144531" xlink:href="#DejaVuSans-102"/>
    <use x="883.349609" xlink:href="#DejaVuSans-102"/>
    <use x="918.554688" xlink:href="#DejaVuSans-32"/>
    <use x="950.341797" xlink:href="#DejaVuSans-83"/>
    <use x="1013.818359" xlink:href="#DejaVuSans-99"/>
    <use x="1068.798828" xlink:href="#DejaVuSans-111"/>
    <use x="1129.980469" xlink:href="#DejaVuSans-114"/>
    <use x="1171.0625" xlink:href="#DejaVuSans-101"/>
    <use x="1232.585938" xlink:href="#DejaVuSans-115"/>
   </g>
  </g>
 </g>
 <defs>
  <clipPath id="p0aac53b2e3">
   <rect height="395.345455" width="507.272727" x="180" y="138.24"/>
  </clipPath>
  <clipPath id="p11e64a20d8">
   <rect height="395.345455" width="507.272727" x="788.727273" y="138.24"/>
  </clipPath>
  <clipPath id="pa86a2da27b">
   <rect height="395.345455" width="507.272727" x="180" y="612.654545"/>
  </clipPath>
  <clipPath id="p5880190d68">
   <rect height="395.345455" width="507.272727" x="788.727273" y="612.654545"/>
  </clipPath>
 </defs>
</svg>
